<svg version="1.1" id="Layer_1" xmlns="http://www.w3.org/2000/svg" xmlns:xlink="http://www.w3.org/1999/xlink" x="0px" y="0px"
	 width="100%" viewBox="0 0 512 512" enable-background="new 0 0 512 512" xml:space="preserve">
<path fill="#FFFFFF" opacity="1.000000" stroke="none" 
	d="
M408.000000,1.000000 
	C442.991394,1.000000 477.982788,1.000000 512.980591,0.999999 
	C512.987061,171.616043 512.987061,342.232086 512.987061,512.924072 
	C342.425995,512.924072 171.851913,512.924072 1.138928,512.924072 
	C1.138928,342.333405 1.138928,171.666718 1.138928,1.000000 
	C41.419353,1.000000 81.742691,1.000000 122.532990,1.468657 
	C122.999939,171.169357 122.999939,340.401398 122.999939,509.661743 
	C218.302811,509.661743 313.007538,509.661743 408.000000,509.661743 
	C408.000000,339.882446 408.000000,170.441223 408.000000,1.000000 
z"/>
<path fill="#8E3F98" opacity="1.000000" stroke="none" 
	d="
M407.531342,1.000000 
	C408.000000,170.441223 408.000000,339.882446 408.000000,509.661743 
	C313.007538,509.661743 218.302811,509.661743 122.999939,509.661743 
	C122.999939,340.401398 122.999939,171.169357 122.999969,1.468657 
	C217.687561,1.000000 312.375122,1.000000 407.531342,1.000000 
M270.176300,197.954742 
	C265.837708,201.487045 260.686218,204.376312 257.297607,208.660110 
	C240.288376,230.162857 243.147217,255.064331 258.871552,276.256805 
	C274.084045,296.759460 292.931976,313.336548 314.920166,326.372223 
	C316.205139,327.134033 316.534912,329.507141 317.309204,331.130402 
	C316.810913,331.368744 316.312653,331.607056 315.814392,331.845398 
	C314.653351,331.245850 313.456146,330.706818 312.336578,330.037842 
	C290.126099,316.766907 270.679718,300.193939 255.516495,279.249542 
	C242.222275,260.886749 235.954895,240.699768 246.018982,218.403763 
	C251.536346,206.180603 259.450806,196.319382 272.940125,192.139938 
	C276.064758,191.171844 279.153595,189.863724 281.993286,188.245926 
	C288.482269,184.549118 295.373169,183.256470 302.641357,184.478485 
	C321.102325,187.582352 332.286285,199.641632 340.055176,215.594971 
	C348.679108,233.304092 349.578491,252.479904 349.477661,271.595184 
	C349.332489,299.115479 344.634583,326.088196 337.952423,352.745422 
	C337.483154,354.617584 338.576294,356.881439 339.157196,360.179779 
	C341.991089,357.859192 343.833710,356.879028 344.932159,355.360535 
	C350.049683,348.285980 353.831329,340.349396 354.709351,331.754089 
	C356.328522,315.902740 357.060333,299.956116 357.967529,284.038116 
	C358.739563,270.492462 359.667816,256.933624 359.743011,243.376251 
	C359.825989,228.417511 359.727661,213.389694 358.387756,198.510895 
	C357.125763,184.497070 353.778717,170.684158 352.017883,156.698654 
	C350.035095,140.950302 342.687988,127.711082 332.728149,116.152649 
	C324.582092,106.699135 315.067505,98.310692 305.516205,90.208626 
	C290.589539,77.546875 274.054138,69.338799 253.346542,71.710777 
	C240.859604,73.141106 228.927612,76.122711 218.585968,82.686928 
	C190.066528,100.789284 178.018127,128.411697 176.328461,161.123718 
	C175.673660,173.800308 178.431976,186.181961 182.101456,198.312805 
	C186.681808,213.454910 192.635773,228.267578 201.737061,240.995926 
	C212.012039,255.365707 224.008209,268.636719 236.236969,281.449127 
	C259.245483,305.555725 285.241180,326.203430 313.152100,344.400024 
	C319.192078,348.337769 325.535919,351.809448 332.094452,355.706573 
	C332.761169,353.870850 333.239746,352.844574 333.510132,351.766083 
	C340.187622,325.133087 344.625519,298.170715 344.947174,270.652954 
	C345.150330,253.274063 343.898499,236.058167 337.018494,219.777298 
	C331.523041,206.772797 323.148926,196.267166 309.677734,190.949524 
	C302.121613,187.966782 294.239075,186.623428 286.678955,190.979385 
	C290.319397,193.085510 293.989227,194.704544 297.067719,197.087479 
	C305.155670,203.347992 306.458466,216.074646 300.060333,223.369446 
	C294.250610,229.993408 282.983368,229.757767 275.370331,222.885818 
	C267.478119,215.761917 267.507599,207.353958 271.634521,198.036148 
	C271.579468,197.802979 271.524384,197.569794 271.469299,197.336624 
	C271.272064,197.512680 271.074829,197.688736 270.176300,197.954742 
M263.494843,312.994293 
	C256.845428,307.021637 249.968781,301.277740 243.635834,294.986572 
	C240.101013,291.475037 237.345230,291.840576 233.689133,294.816681 
	C234.711899,296.018524 235.470505,297.076019 236.390610,297.966705 
	C257.321136,318.228088 277.993988,338.813660 303.028107,354.190491 
	C311.014587,359.096039 318.889252,364.751923 330.389832,362.333832 
	C328.719299,360.301544 327.732635,358.375580 326.160675,357.327393 
	C321.759064,354.392395 316.888489,352.135101 312.607880,349.048798 
	C296.324829,337.308533 280.201508,325.346680 263.494843,312.994293 
M286.167542,223.639908 
	C293.858856,224.665878 297.949738,221.946091 299.654755,214.673065 
	C302.031769,204.533585 290.115326,193.064072 280.195709,196.092102 
	C278.770477,196.527191 277.406891,197.904572 276.502960,199.189346 
	C269.657379,208.919266 273.843445,220.106033 286.167542,223.639908 
M367.999664,224.308472 
	C368.741974,206.490311 366.279297,189.178040 360.238678,172.461990 
	C361.836792,192.037811 363.434906,211.613632 365.049347,231.389481 
	C369.131989,231.204132 367.717926,227.732697 367.999664,224.308472 
z"/>
<path fill="#F26623" opacity="1.000000" stroke="none" 
	d="
M271.314972,198.311279 
	C267.507599,207.353958 267.478119,215.761917 275.370331,222.885818 
	C282.983368,229.757767 294.250610,229.993408 300.060333,223.369446 
	C306.458466,216.074646 305.155670,203.347992 297.067719,197.087479 
	C293.989227,194.704544 290.319397,193.085510 286.678955,190.979385 
	C294.239075,186.623428 302.121613,187.966782 309.677734,190.949524 
	C323.148926,196.267166 331.523041,206.772797 337.018494,219.777298 
	C343.898499,236.058167 345.150330,253.274063 344.947174,270.652954 
	C344.625519,298.170715 340.187622,325.133087 333.510132,351.766083 
	C333.239746,352.844574 332.761169,353.870850 332.094452,355.706573 
	C325.535919,351.809448 319.192078,348.337769 313.152100,344.400024 
	C285.241180,326.203430 259.245483,305.555725 236.236969,281.449127 
	C224.008209,268.636719 212.012039,255.365707 201.737061,240.995926 
	C192.635773,228.267578 186.681808,213.454910 182.101456,198.312805 
	C178.431976,186.181961 175.673660,173.800308 176.328461,161.123718 
	C178.018127,128.411697 190.066528,100.789284 218.585968,82.686928 
	C228.927612,76.122711 240.859604,73.141106 253.346542,71.710777 
	C274.054138,69.338799 290.589539,77.546875 305.516205,90.208626 
	C315.067505,98.310692 324.582092,106.699135 332.728149,116.152649 
	C342.687988,127.711082 350.035095,140.950302 352.017883,156.698654 
	C353.778717,170.684158 357.125763,184.497070 358.387756,198.510895 
	C359.727661,213.389694 359.825989,228.417511 359.743011,243.376251 
	C359.667816,256.933624 358.739563,270.492462 357.967529,284.038116 
	C357.060333,299.956116 356.328522,315.902740 354.709351,331.754089 
	C353.831329,340.349396 350.049683,348.285980 344.932159,355.360535 
	C343.833710,356.879028 341.991089,357.859192 339.157196,360.179779 
	C338.576294,356.881439 337.483154,354.617584 337.952423,352.745422 
	C344.634583,326.088196 349.332489,299.115479 349.477661,271.595184 
	C349.578491,252.479904 348.679108,233.304092 340.055176,215.594971 
	C332.286285,199.641632 321.102325,187.582352 302.641357,184.478485 
	C295.373169,183.256470 288.482269,184.549118 281.993286,188.245926 
	C279.153595,189.863724 276.064758,191.171844 272.940125,192.139938 
	C259.450806,196.319382 251.536346,206.180603 246.018982,218.403763 
	C235.954895,240.699768 242.222275,260.886749 255.516495,279.249542 
	C270.679718,300.193939 290.126099,316.766907 312.336578,330.037842 
	C313.456146,330.706818 314.653351,331.245850 315.814392,331.845398 
	C316.312653,331.607056 316.810913,331.368744 317.309204,331.130402 
	C316.534912,329.507141 316.205139,327.134033 314.920166,326.372223 
	C292.931976,313.336548 274.084045,296.759460 258.871552,276.256805 
	C243.147217,255.064331 240.288376,230.162857 257.297607,208.660110 
	C260.686218,204.376312 265.837708,201.487045 270.635406,198.022247 
	C271.094513,198.089752 271.314972,198.311279 271.314972,198.311279 
z"/>
<path fill="#EF6525" opacity="1.000000" stroke="none" 
	d="
M263.756653,313.230988 
	C280.201508,325.346680 296.324829,337.308533 312.607880,349.048798 
	C316.888489,352.135101 321.759064,354.392395 326.160675,357.327393 
	C327.732635,358.375580 328.719299,360.301544 330.389832,362.333832 
	C318.889252,364.751923 311.014587,359.096039 303.028107,354.190491 
	C277.993988,338.813660 257.321136,318.228088 236.390610,297.966705 
	C235.470505,297.076019 234.711899,296.018524 233.689133,294.816681 
	C237.345230,291.840576 240.101013,291.475037 243.635834,294.986572 
	C249.968781,301.277740 256.845428,307.021637 263.756653,313.230988 
z"/>
<path fill="#F16623" opacity="1.000000" stroke="none" 
	d="
M285.798004,223.466827 
	C273.843445,220.106033 269.657379,208.919266 276.502960,199.189346 
	C277.406891,197.904572 278.770477,196.527191 280.195709,196.092102 
	C290.115326,193.064072 302.031769,204.533585 299.654755,214.673065 
	C297.949738,221.946091 293.858856,224.665878 285.798004,223.466827 
z"/>
<path fill="#ED6428" opacity="1.000000" stroke="none" 
	d="
M368.004669,224.776215 
	C367.717926,227.732697 369.131989,231.204132 365.049347,231.389481 
	C363.434906,211.613632 361.836792,192.037811 360.238678,172.461990 
	C366.279297,189.178040 368.741974,206.490311 368.004669,224.776215 
z"/>
<path fill="#F26623" opacity="1.000000" stroke="none" 
	d="
M270.986023,197.977264 
	C271.074829,197.688736 271.272064,197.512680 271.469299,197.336624 
	C271.524384,197.569794 271.579468,197.802979 271.474731,198.173706 
	C271.314972,198.311279 271.094513,198.089752 270.986023,197.977264 
z"/>
</svg>