<svg version="1.1" id="Layer_1" xmlns="http://www.w3.org/2000/svg" xmlns:xlink="http://www.w3.org/1999/xlink" x="0px" y="0px"
	 width="100%" viewBox="0 0 512 512" enable-background="new 0 0 512 512" xml:space="preserve">
<path fill="#000000" opacity="1.000000" stroke="none" 
	d="
M513.000000,194.000000 
	C513.000000,300.640747 513.000000,406.781494 513.000000,512.961121 
	C342.400909,512.961121 171.801804,512.961121 1.101355,512.961121 
	C1.101355,342.442627 1.101355,171.885147 1.101355,1.163839 
	C171.666534,1.163839 342.333252,1.163839 513.000000,1.163839 
	C513.000000,65.198151 513.000000,129.349075 513.000000,194.000000 
M129.000092,472.522888 
	C129.000092,470.104919 129.000092,467.686951 129.000092,464.830261 
	C120.616341,464.830261 113.020111,464.830261 105.881348,464.830261 
	C104.974510,459.849030 105.605743,453.896698 102.956467,451.328522 
	C100.126740,448.585419 94.200615,449.036499 88.999870,447.964081 
	C88.999870,440.868134 89.014259,433.249786 88.995560,425.631531 
	C88.979095,418.921417 87.126328,417.034424 80.536270,417.004791 
	C75.444443,416.981903 70.352417,417.000244 65.271912,417.000244 
	C65.271912,400.273132 65.271912,384.332001 65.271912,368.068939 
	C66.671455,368.197906 67.773659,368.385956 68.876091,368.387268 
	C76.969574,368.396942 85.206223,369.331787 93.126991,368.154083 
	C109.897423,365.660461 123.474777,357.100281 133.893570,343.621063 
	C143.860626,330.726288 148.324265,315.906128 147.757843,299.898499 
	C147.471893,291.816864 144.992706,283.800140 143.368103,275.781860 
	C141.321945,265.683044 137.817978,255.682877 137.275543,245.515717 
	C136.025543,222.085709 136.195663,198.632660 143.478867,175.809982 
	C147.005264,164.759674 148.284637,153.229111 145.700241,141.731522 
	C140.729202,119.616119 128.142532,103.464691 107.347473,93.936165 
	C106.365784,93.486359 105.077728,92.095146 105.138306,91.226456 
	C105.847672,81.055367 105.177956,70.424721 108.008713,60.841877 
	C113.608414,41.885464 128.693893,33.449646 149.351227,33.083687 
	C170.509399,32.708847 191.682800,32.771557 212.842957,33.085159 
	C225.896576,33.278618 237.892365,36.795158 246.785507,47.293736 
	C251.040176,52.316463 254.345901,57.777328 255.051971,64.999847 
	C252.712631,64.999847 250.898987,64.999840 249.085358,64.999847 
	C224.587494,64.999924 200.089630,64.987396 175.591782,65.007156 
	C167.386169,65.013771 161.011795,71.190994 161.010757,79.207474 
	C160.995636,197.697113 160.996185,316.186737 161.008789,434.676392 
	C161.009659,442.793762 167.279907,448.985382 175.465302,448.992157 
	C200.629761,449.013031 225.794235,448.999969 250.958710,449.000092 
	C252.775421,449.000122 254.592148,449.000122 256.645020,449.000122 
	C259.889496,463.104675 265.681122,475.501892 277.114441,484.638428 
	C286.189087,491.890106 296.279114,496.719757 308.028198,496.937836 
	C322.188751,497.200745 336.357941,497.018738 350.523254,496.976715 
	C352.328491,496.971344 354.177185,496.842865 355.930511,496.442230 
	C368.567383,493.554535 379.493683,487.794525 387.916199,477.632324 
	C395.814117,468.103119 400.955414,457.461456 400.961853,444.932800 
	C401.025269,321.443634 400.984375,197.954437 401.042633,74.465256 
	C401.045807,67.696228 401.459320,60.909714 402.041382,54.162354 
	C403.235229,40.323215 417.955627,30.646646 431.261566,34.681141 
	C443.748505,38.467312 448.912109,47.873459 448.929596,62.152313 
	C449.059113,167.976227 449.000671,273.800385 448.990509,379.624451 
	C448.990356,381.246002 448.852386,382.867554 448.785614,384.336884 
	C448.173828,384.618805 447.886719,384.864014 447.596283,384.868073 
	C443.099274,384.930511 438.601929,384.976532 434.104492,384.996552 
	C427.349060,385.026642 425.003967,386.651398 424.159729,393.292480 
	C422.851288,403.585022 422.097351,413.946747 420.976166,424.264801 
	C420.159607,431.779572 418.966400,439.255493 418.244537,446.777863 
	C417.612915,453.359680 417.196747,459.978607 417.085236,466.587891 
	C417.016266,470.676666 419.545135,472.888336 423.683044,472.981750 
	C426.631561,473.048309 429.582825,472.994659 433.140503,472.994659 
	C433.140503,481.281311 433.140503,489.006104 433.140503,496.695496 
	C438.699158,496.695496 443.621765,496.695496 449.167297,496.695496 
	C449.167297,488.685760 449.167297,480.963470 449.167297,473.319031 
	C454.727356,473.319031 459.649445,473.319031 465.195648,473.319031 
	C465.195648,481.343994 465.195648,489.067017 465.195648,496.666931 
	C470.756439,496.666931 475.678497,496.666931 481.220398,496.666931 
	C481.220398,488.625610 481.220398,480.900726 481.220398,473.000061 
	C483.843140,473.000061 485.837830,473.003906 487.832550,472.999359 
	C495.233154,472.982452 497.253998,471.272003 496.928070,464.075531 
	C496.540070,455.509521 495.774994,446.950897 494.881805,438.419586 
	C493.374237,424.019623 491.453522,409.661285 490.070038,395.250580 
	C489.315247,387.388580 487.219727,385.005981 479.373718,385.000549 
	C474.752960,384.997345 470.132172,384.999939 465.000092,384.999939 
	C465.000092,382.342682 465.000092,380.222748 465.000092,378.102814 
	C465.000092,270.278900 464.969269,162.454971 465.051117,54.631145 
	C465.058685,44.630074 461.218903,36.345966 454.684296,29.301470 
	C445.987946,19.926538 435.008270,16.728031 422.205048,16.803774 
	C403.362457,16.915245 384.887695,35.357376 384.912598,54.215111 
	C385.080231,181.203781 385.068268,308.192902 384.824707,435.181335 
	C384.810547,442.557861 383.578705,450.505951 380.642517,457.190491 
	C373.194977,474.145630 358.495667,480.660767 340.785309,480.913422 
	C330.690002,481.057465 320.584198,480.254028 310.479767,480.028229 
	C298.555359,479.761841 289.332733,474.146210 281.998413,465.318542 
	C278.276917,460.839386 275.388733,455.650055 274.963470,449.000153 
	C277.190125,449.000153 278.997528,449.000153 280.804901,449.000153 
	C304.969452,449.000092 329.134003,449.002533 353.298553,448.998840 
	C363.217957,448.997345 368.998474,443.258148 368.998627,433.403290 
	C369.000732,315.746918 369.000885,198.090530 368.998199,80.434158 
	C368.997986,70.890739 363.132477,65.004028 353.624573,65.001831 
	C328.293457,64.995995 302.962311,64.982758 277.631256,65.025131 
	C275.033844,65.029472 272.628784,65.147263 272.053345,61.762691 
	C270.267487,51.258575 265.581879,42.241974 258.204376,34.549706 
	C247.738815,23.637642 235.295425,17.058823 219.918320,17.019123 
	C193.087509,16.949850 166.256378,16.990683 139.425446,17.020538 
	C137.620270,17.022547 135.769440,17.115757 134.017761,17.511509 
	C120.625183,20.537277 109.142700,26.936792 100.726181,37.897652 
	C93.821884,46.889122 89.074898,56.939739 89.006752,68.641045 
	C88.968224,75.257973 88.999802,81.875305 88.999802,88.999847 
	C84.670105,88.999847 80.876350,89.100067 77.089554,88.980225 
	C67.417671,88.674149 58.449821,91.512779 50.212528,96.053085 
	C22.403811,111.380943 9.495364,141.135590 17.490616,171.932785 
	C22.522247,191.314331 26.618029,210.736282 25.057570,230.957306 
	C24.648369,236.259888 25.723873,241.761169 24.767035,246.920761 
	C22.383869,259.771576 19.254578,272.485321 16.367489,285.241119 
	C12.579980,301.975189 13.781696,318.111816 21.832500,333.511902 
	C27.359123,344.083557 34.769726,352.863159 45.087166,359.105774 
	C46.693199,360.077454 48.801426,362.015167 48.823971,363.533691 
	C49.085819,381.176300 48.991440,398.824219 48.991440,416.640350 
	C44.117661,417.154175 40.958553,419.018188 40.974354,424.308197 
	C41.039558,446.139404 40.966885,467.971039 41.028519,489.802307 
	C41.042686,494.821716 43.268902,496.958008 48.397671,496.976624 
	C64.729355,497.035919 81.061501,497.030609 97.393250,496.981232 
	C102.817757,496.964844 104.874039,494.869537 104.988358,489.510803 
	C105.047043,486.760101 104.998665,484.007141 104.998665,480.822266 
	C113.388351,480.822266 120.984398,480.822266 129.000092,480.822266 
	C129.000092,478.072418 129.000092,475.774445 129.000092,472.522888 
z"/>
<path fill="#A8237F" opacity="1.000000" stroke="none" 
	d="
M129.000092,472.999695 
	C129.000092,475.774445 129.000092,478.072418 129.000092,480.822266 
	C120.984398,480.822266 113.388351,480.822266 104.998665,480.822266 
	C104.998665,484.007141 105.047043,486.760101 104.988358,489.510803 
	C104.874039,494.869537 102.817757,496.964844 97.393250,496.981232 
	C81.061501,497.030609 64.729355,497.035919 48.397671,496.976624 
	C43.268902,496.958008 41.042686,494.821716 41.028519,489.802307 
	C40.966885,467.971039 41.039558,446.139404 40.974354,424.308197 
	C40.958553,419.018188 44.117661,417.154175 48.991440,416.640350 
	C48.991440,398.824219 49.085819,381.176300 48.823971,363.533691 
	C48.801426,362.015167 46.693199,360.077454 45.087166,359.105774 
	C34.769726,352.863159 27.359123,344.083557 21.832500,333.511902 
	C13.781696,318.111816 12.579980,301.975189 16.367489,285.241119 
	C19.254578,272.485321 22.383869,259.771576 24.767035,246.920761 
	C25.723873,241.761169 24.648369,236.259888 25.057570,230.957306 
	C26.618029,210.736282 22.522247,191.314331 17.490616,171.932785 
	C9.495364,141.135590 22.403811,111.380943 50.212528,96.053085 
	C58.449821,91.512779 67.417671,88.674149 77.089554,88.980225 
	C80.876350,89.100067 84.670105,88.999847 88.999802,88.999847 
	C88.999802,81.875305 88.968224,75.257973 89.006752,68.641045 
	C89.074898,56.939739 93.821884,46.889122 100.726181,37.897652 
	C109.142700,26.936792 120.625183,20.537277 134.017761,17.511509 
	C135.769440,17.115757 137.620270,17.022547 139.425446,17.020538 
	C166.256378,16.990683 193.087509,16.949850 219.918320,17.019123 
	C235.295425,17.058823 247.738815,23.637642 258.204376,34.549706 
	C265.581879,42.241974 270.267487,51.258575 272.053345,61.762691 
	C272.628784,65.147263 275.033844,65.029472 277.631256,65.025131 
	C302.962311,64.982758 328.293457,64.995995 353.624573,65.001831 
	C363.132477,65.004028 368.997986,70.890739 368.998199,80.434158 
	C369.000885,198.090530 369.000732,315.746918 368.998627,433.403290 
	C368.998474,443.258148 363.217957,448.997345 353.298553,448.998840 
	C329.134003,449.002533 304.969452,449.000092 280.804901,449.000153 
	C278.997528,449.000153 277.190125,449.000153 274.963470,449.000153 
	C275.388733,455.650055 278.276917,460.839386 281.998413,465.318542 
	C289.332733,474.146210 298.555359,479.761841 310.479767,480.028229 
	C320.584198,480.254028 330.690002,481.057465 340.785309,480.913422 
	C358.495667,480.660767 373.194977,474.145630 380.642517,457.190491 
	C383.578705,450.505951 384.810547,442.557861 384.824707,435.181335 
	C385.068268,308.192902 385.080231,181.203781 384.912598,54.215111 
	C384.887695,35.357376 403.362457,16.915245 422.205048,16.803774 
	C435.008270,16.728031 445.987946,19.926538 454.684296,29.301470 
	C461.218903,36.345966 465.058685,44.630074 465.051117,54.631145 
	C464.969269,162.454971 465.000092,270.278900 465.000092,378.102814 
	C465.000092,380.222748 465.000092,382.342682 465.000092,384.999939 
	C470.132172,384.999939 474.752960,384.997345 479.373718,385.000549 
	C487.219727,385.005981 489.315247,387.388580 490.070038,395.250580 
	C491.453522,409.661285 493.374237,424.019623 494.881805,438.419586 
	C495.774994,446.950897 496.540070,455.509521 496.928070,464.075531 
	C497.253998,471.272003 495.233154,472.982452 487.832550,472.999359 
	C485.837830,473.003906 483.843140,473.000061 481.220398,473.000061 
	C481.220398,480.900726 481.220398,488.625610 481.220398,496.666931 
	C475.678497,496.666931 470.756439,496.666931 465.195648,496.666931 
	C465.195648,489.067017 465.195648,481.343994 465.195648,473.319031 
	C459.649445,473.319031 454.727356,473.319031 449.167297,473.319031 
	C449.167297,480.963470 449.167297,488.685760 449.167297,496.695496 
	C443.621765,496.695496 438.699158,496.695496 433.140503,496.695496 
	C433.140503,489.006104 433.140503,481.281311 433.140503,472.994659 
	C429.582825,472.994659 426.631561,473.048309 423.683044,472.981750 
	C419.545135,472.888336 417.016266,470.676666 417.085236,466.587891 
	C417.196747,459.978607 417.612915,453.359680 418.244537,446.777863 
	C418.966400,439.255493 420.159607,431.779572 420.976166,424.264801 
	C422.097351,413.946747 422.851288,403.585022 424.159729,393.292480 
	C425.003967,386.651398 427.349060,385.026642 434.104492,384.996552 
	C438.601929,384.976532 443.099274,384.930511 447.596283,384.868073 
	C447.886719,384.864014 448.173828,384.618805 448.785614,384.336884 
	C448.852386,382.867554 448.990356,381.246002 448.990509,379.624451 
	C449.000671,273.800385 449.059113,167.976227 448.929596,62.152313 
	C448.912109,47.873459 443.748505,38.467312 431.261566,34.681141 
	C417.955627,30.646646 403.235229,40.323215 402.041382,54.162354 
	C401.459320,60.909714 401.045807,67.696228 401.042633,74.465256 
	C400.984375,197.954437 401.025269,321.443634 400.961853,444.932800 
	C400.955414,457.461456 395.814117,468.103119 387.916199,477.632324 
	C379.493683,487.794525 368.567383,493.554535 355.930511,496.442230 
	C354.177185,496.842865 352.328491,496.971344 350.523254,496.976715 
	C336.357941,497.018738 322.188751,497.200745 308.028198,496.937836 
	C296.279114,496.719757 286.189087,491.890106 277.114441,484.638428 
	C265.681122,475.501892 259.889496,463.104675 256.645020,449.000122 
	C254.592148,449.000122 252.775421,449.000122 250.958710,449.000092 
	C225.794235,448.999969 200.629761,449.013031 175.465302,448.992157 
	C167.279907,448.985382 161.009659,442.793762 161.008789,434.676392 
	C160.996185,316.186737 160.995636,197.697113 161.010757,79.207474 
	C161.011795,71.190994 167.386169,65.013771 175.591782,65.007156 
	C200.089630,64.987396 224.587494,64.999924 249.085358,64.999847 
	C250.898987,64.999840 252.712631,64.999847 255.051971,64.999847 
	C254.345901,57.777328 251.040176,52.316463 246.785507,47.293736 
	C237.892365,36.795158 225.896576,33.278618 212.842957,33.085159 
	C191.682800,32.771557 170.509399,32.708847 149.351227,33.083687 
	C128.693893,33.449646 113.608414,41.885464 108.008713,60.841877 
	C105.177956,70.424721 105.847672,81.055367 105.138306,91.226456 
	C105.077728,92.095146 106.365784,93.486359 107.347473,93.936165 
	C128.142532,103.464691 140.729202,119.616119 145.700241,141.731522 
	C148.284637,153.229111 147.005264,164.759674 143.478867,175.809982 
	C136.195663,198.632660 136.025543,222.085709 137.275543,245.515717 
	C137.817978,255.682877 141.321945,265.683044 143.368103,275.781860 
	C144.992706,283.800140 147.471893,291.816864 147.757843,299.898499 
	C148.324265,315.906128 143.860626,330.726288 133.893570,343.621063 
	C123.474777,357.100281 109.897423,365.660461 93.126991,368.154083 
	C85.206223,369.331787 76.969574,368.396942 68.876091,368.387268 
	C67.773659,368.385956 66.671455,368.197906 65.271912,368.068939 
	C65.271912,384.332001 65.271912,400.273132 65.271912,417.000244 
	C70.352417,417.000244 75.444443,416.981903 80.536270,417.004791 
	C87.126328,417.034424 88.979095,418.921417 88.995560,425.631531 
	C89.014259,433.249786 88.999870,440.868134 88.999870,447.964081 
	C94.200615,449.036499 100.126740,448.585419 102.956467,451.328522 
	C105.605743,453.896698 104.974510,459.849030 105.881348,464.830261 
	C113.020111,464.830261 120.616341,464.830261 129.000092,464.830261 
	C129.000092,467.686951 129.000092,470.104919 129.000092,472.999695 
M352.999939,422.466187 
	C352.999939,308.729523 352.999939,194.992844 352.999939,81.323776 
	C293.930328,81.323776 235.678284,81.323776 177.411041,81.323776 
	C177.411041,198.681351 177.411041,315.714752 177.411041,432.673523 
	C236.074997,432.673523 294.327026,432.673523 352.999939,432.673523 
	C352.999939,429.385284 352.999939,426.418274 352.999939,422.466187 
M43.767586,209.009613 
	C42.877140,209.509720 41.217690,209.998169 41.209904,210.511658 
	C41.057072,220.590225 41.096252,230.671722 41.096252,240.682068 
	C68.061523,240.682068 94.312569,240.682068 120.588158,240.682068 
	C120.588158,229.986572 120.588158,219.614136 120.588158,209.327927 
	C119.854668,209.178955 119.531563,209.056168 119.208336,209.055847 
	C94.381035,209.031769 69.553726,209.017319 43.767586,209.009613 
M471.029510,401.023743 
	C462.216736,401.016602 453.402435,401.099976 444.592072,400.950531 
	C441.718536,400.901825 440.258392,401.962158 440.026489,404.766510 
	C439.673828,409.031891 439.454468,413.311890 438.971466,417.562134 
	C438.138245,424.894348 437.047699,432.197845 436.252045,439.533661 
	C435.639099,445.184387 435.312744,450.866211 434.850494,456.639984 
	C449.996735,456.639984 464.360779,456.639984 478.903809,456.639984 
	C478.903809,453.804382 479.132111,451.302460 478.864624,448.854706 
	C477.652588,437.763336 476.432770,426.669312 474.938324,415.613800 
	C474.278564,410.733093 472.959473,405.941498 471.029510,401.023743 
M101.440529,331.031158 
	C90.029320,338.770233 77.867592,338.750610 65.004333,334.168854 
	C65.004333,338.675751 64.723518,342.856323 65.157562,346.961334 
	C65.308266,348.386627 67.131554,350.661224 68.358635,350.777466 
	C75.495148,351.453613 82.945663,352.987213 89.803535,351.679596 
	C113.976257,347.070343 134.226273,324.227203 130.006287,296.191711 
	C129.446960,292.475830 128.757858,288.773682 127.971397,285.098877 
	C125.968727,275.741302 123.876892,266.402832 121.841774,257.152313 
	C116.674423,257.152313 112.202202,257.152313 107.325050,257.152313 
	C109.797920,269.351166 112.166161,281.339722 114.668411,293.300232 
	C117.795288,308.246399 114.143379,320.823608 101.440529,331.031158 
M87.997665,318.940155 
	C96.243553,314.695251 99.792679,307.572083 98.081352,298.834320 
	C97.328064,294.988129 96.750351,291.107208 95.981300,287.264435 
	C93.974052,277.234619 91.905190,267.217133 89.862068,257.200439 
	C83.712563,257.200439 78.102821,257.200439 72.569618,257.200439 
	C72.069527,258.449036 71.473740,259.464081 71.256752,260.554535 
	C69.791275,267.919128 68.407814,275.300018 66.994217,282.674957 
	C65.674141,289.561951 62.889565,296.547485 63.350006,303.312683 
	C64.153969,315.125275 73.579536,323.287537 87.997665,318.940155 
M68.582756,122.835243 
	C75.194847,121.939316 81.806938,121.043388 88.669579,120.113518 
	C88.669579,115.742828 88.669579,111.026154 88.669579,106.067322 
	C82.956078,106.067322 77.364586,105.113586 72.222382,106.229736 
	C47.851440,111.519600 31.811470,131.017563 32.385635,154.966385 
	C32.674427,167.011932 36.940372,178.971725 39.586060,190.930862 
	C39.774479,191.782562 41.400116,192.831039 42.412903,192.893829 
	C46.179119,193.127289 49.968510,192.986954 54.266010,192.986954 
	C53.545559,189.465118 52.975712,186.607758 52.375088,183.756866 
	C50.592274,175.294693 47.988575,166.911499 47.180325,158.358078 
	C45.633965,141.993454 52.899426,130.123749 68.582756,122.835243 
M65.808601,147.526489 
	C65.368767,151.331390 64.049614,155.283478 64.657166,158.913055 
	C66.348671,169.018265 68.940407,178.969482 70.953468,189.026184 
	C71.549576,192.004135 72.770561,193.255386 75.868156,193.051483 
	C79.343781,192.822678 82.855103,192.843338 86.333893,193.046555 
	C89.192406,193.213516 90.459656,192.051041 91.013092,189.318039 
	C93.049438,179.261902 95.123161,169.210663 97.394913,159.205719 
	C99.380142,150.462601 95.413269,142.050186 87.565216,138.994507 
	C79.152626,135.719009 70.565529,138.825806 65.808601,147.526489 
M112.131577,140.535248 
	C116.940819,150.757889 114.958542,161.003311 112.411293,171.323395 
	C110.681305,178.332367 109.338394,185.436874 107.872337,192.265945 
	C108.818573,192.729080 108.962402,192.855164 109.114403,192.865936 
	C121.633804,193.752472 121.992867,193.828094 124.538803,181.842987 
	C127.069771,169.928406 131.994873,158.269089 129.028809,145.596161 
	C125.702415,131.383652 118.630424,119.986435 105.022400,112.200516 
	C105.022400,118.317810 104.943550,123.749382 105.094185,129.174576 
	C105.121704,130.165695 106.012001,131.179337 106.628914,132.098770 
	C108.363556,134.684052 110.163330,137.225616 112.131577,140.535248 
M31.973928,308.649078 
	C32.914211,321.265289 38.759411,331.233704 48.781425,339.215027 
	C48.944275,330.783600 49.287392,322.324524 47.862225,314.174622 
	C46.597485,306.942169 45.845764,300.086700 47.481693,292.831299 
	C50.132610,281.074280 52.230148,269.192474 54.591515,257.210205 
	C49.659267,257.210205 45.038242,257.210205 40.123375,257.210205 
	C37.400097,269.616089 34.472195,281.840210 32.139671,294.176910 
	C31.309896,298.565613 31.925867,303.227631 31.973928,308.649078 
M57.000553,476.345612 
	C57.106152,477.782501 57.211746,479.219391 57.323238,480.736481 
	C67.952736,480.736481 78.204147,480.736481 88.643089,480.736481 
	C88.643089,475.430603 88.643089,470.394318 88.643089,465.270599 
	C78.032722,465.270599 67.781105,465.270599 57.000202,465.270599 
	C57.000202,468.810974 57.000202,472.098663 57.000553,476.345612 
M68.345467,448.999451 
	C69.782471,448.894196 71.219482,448.788910 72.736038,448.677826 
	C72.736038,443.380524 72.736038,438.460571 72.736038,433.355835 
	C67.429932,433.355835 62.393784,433.355835 57.271042,433.355835 
	C57.271042,438.633972 57.271042,443.554169 57.271042,448.999817 
	C60.810474,448.999817 64.098366,448.999817 68.345467,448.999451 
z"/>
<path fill="#000000" opacity="1.000000" stroke="none" 
	d="
M352.999939,422.958740 
	C352.999939,426.418274 352.999939,429.385284 352.999939,432.673523 
	C294.327026,432.673523 236.074997,432.673523 177.411041,432.673523 
	C177.411041,315.714752 177.411041,198.681351 177.411041,81.323776 
	C235.678284,81.323776 293.930328,81.323776 352.999939,81.323776 
	C352.999939,194.992844 352.999939,308.729523 352.999939,422.958740 
M237.500000,225.000000 
	C267.973633,224.999878 298.447296,225.011948 328.920929,224.989243 
	C334.943756,224.984756 336.983459,222.969971 336.988007,216.993637 
	C337.012390,185.021301 337.011292,153.048889 336.989044,121.076546 
	C336.984863,115.053337 334.971222,113.014908 328.991577,113.011917 
	C286.361755,112.990608 243.731918,112.992043 201.102097,113.010139 
	C195.170410,113.012657 193.015579,115.143684 193.011368,121.028809 
	C192.988449,153.001160 192.988358,184.973557 193.011353,216.945892 
	C193.015671,222.953644 195.038452,224.969543 201.030685,224.988541 
	C212.853699,225.026031 224.676880,224.999863 237.500000,225.000000 
z"/>
<path fill="#000000" opacity="1.000000" stroke="none" 
	d="
M44.247002,209.005859 
	C69.553726,209.017319 94.381035,209.031769 119.208336,209.055847 
	C119.531563,209.056168 119.854668,209.178955 120.588158,209.327927 
	C120.588158,219.614136 120.588158,229.986572 120.588158,240.682068 
	C94.312569,240.682068 68.061523,240.682068 41.096252,240.682068 
	C41.096252,230.671722 41.057072,220.590225 41.209904,210.511658 
	C41.217690,209.998169 42.877140,209.509720 44.247002,209.005859 
z"/>
<path fill="#000000" opacity="1.000000" stroke="none" 
	d="
M471.484619,401.066589 
	C472.959473,405.941498 474.278564,410.733093 474.938324,415.613800 
	C476.432770,426.669312 477.652588,437.763336 478.864624,448.854706 
	C479.132111,451.302460 478.903809,453.804382 478.903809,456.639984 
	C464.360779,456.639984 449.996735,456.639984 434.850494,456.639984 
	C435.312744,450.866211 435.639099,445.184387 436.252045,439.533661 
	C437.047699,432.197845 438.138245,424.894348 438.971466,417.562134 
	C439.454468,413.311890 439.673828,409.031891 440.026489,404.766510 
	C440.258392,401.962158 441.718536,400.901825 444.592072,400.950531 
	C453.402435,401.099976 462.216736,401.016602 471.484619,401.066589 
z"/>
<path fill="#000000" opacity="1.000000" stroke="none" 
	d="
M101.709000,330.779480 
	C114.143379,320.823608 117.795288,308.246399 114.668411,293.300232 
	C112.166161,281.339722 109.797920,269.351166 107.325050,257.152313 
	C112.202202,257.152313 116.674423,257.152313 121.841774,257.152313 
	C123.876892,266.402832 125.968727,275.741302 127.971397,285.098877 
	C128.757858,288.773682 129.446960,292.475830 130.006287,296.191711 
	C134.226273,324.227203 113.976257,347.070343 89.803535,351.679596 
	C82.945663,352.987213 75.495148,351.453613 68.358635,350.777466 
	C67.131554,350.661224 65.308266,348.386627 65.157562,346.961334 
	C64.723518,342.856323 65.004333,338.675751 65.004333,334.168854 
	C77.867592,338.750610 90.029320,338.770233 101.709000,330.779480 
z"/>
<path fill="#000000" opacity="1.000000" stroke="none" 
	d="
M87.592560,318.985657 
	C73.579536,323.287537 64.153969,315.125275 63.350006,303.312683 
	C62.889565,296.547485 65.674141,289.561951 66.994217,282.674957 
	C68.407814,275.300018 69.791275,267.919128 71.256752,260.554535 
	C71.473740,259.464081 72.069527,258.449036 72.569618,257.200439 
	C78.102821,257.200439 83.712563,257.200439 89.862068,257.200439 
	C91.905190,267.217133 93.974052,277.234619 95.981300,287.264435 
	C96.750351,291.107208 97.328064,294.988129 98.081352,298.834320 
	C99.792679,307.572083 96.243553,314.695251 87.592560,318.985657 
z"/>
<path fill="#000000" opacity="1.000000" stroke="none" 
	d="
M68.199921,122.943207 
	C52.899426,130.123749 45.633965,141.993454 47.180325,158.358078 
	C47.988575,166.911499 50.592274,175.294693 52.375088,183.756866 
	C52.975712,186.607758 53.545559,189.465118 54.266010,192.986954 
	C49.968510,192.986954 46.179119,193.127289 42.412903,192.893829 
	C41.400116,192.831039 39.774479,191.782562 39.586060,190.930862 
	C36.940372,178.971725 32.674427,167.011932 32.385635,154.966385 
	C31.811470,131.017563 47.851440,111.519600 72.222382,106.229736 
	C77.364586,105.113586 82.956078,106.067322 88.669579,106.067322 
	C88.669579,111.026154 88.669579,115.742828 88.669579,120.113518 
	C81.806938,121.043388 75.194847,121.939316 68.199921,122.943207 
z"/>
<path fill="#000000" opacity="1.000000" stroke="none" 
	d="
M65.922928,147.154892 
	C70.565529,138.825806 79.152626,135.719009 87.565216,138.994507 
	C95.413269,142.050186 99.380142,150.462601 97.394913,159.205719 
	C95.123161,169.210663 93.049438,179.261902 91.013092,189.318039 
	C90.459656,192.051041 89.192406,193.213516 86.333893,193.046555 
	C82.855103,192.843338 79.343781,192.822678 75.868156,193.051483 
	C72.770561,193.255386 71.549576,192.004135 70.953468,189.026184 
	C68.940407,178.969482 66.348671,169.018265 64.657166,158.913055 
	C64.049614,155.283478 65.368767,151.331390 65.922928,147.154892 
z"/>
<path fill="#000000" opacity="1.000000" stroke="none" 
	d="
M112.034500,140.159836 
	C110.163330,137.225616 108.363556,134.684052 106.628914,132.098770 
	C106.012001,131.179337 105.121704,130.165695 105.094185,129.174576 
	C104.943550,123.749382 105.022400,118.317810 105.022400,112.200516 
	C118.630424,119.986435 125.702415,131.383652 129.028809,145.596161 
	C131.994873,158.269089 127.069771,169.928406 124.538803,181.842987 
	C121.992867,193.828094 121.633804,193.752472 109.114403,192.865936 
	C108.962402,192.855164 108.818573,192.729080 107.872337,192.265945 
	C109.338394,185.436874 110.681305,178.332367 112.411293,171.323395 
	C114.958542,161.003311 116.940819,150.757889 112.034500,140.159836 
z"/>
<path fill="#000000" opacity="1.000000" stroke="none" 
	d="
M31.927900,308.206970 
	C31.925867,303.227631 31.309896,298.565613 32.139671,294.176910 
	C34.472195,281.840210 37.400097,269.616089 40.123375,257.210205 
	C45.038242,257.210205 49.659267,257.210205 54.591515,257.210205 
	C52.230148,269.192474 50.132610,281.074280 47.481693,292.831299 
	C45.845764,300.086700 46.597485,306.942169 47.862225,314.174622 
	C49.287392,322.324524 48.944275,330.783600 48.781425,339.215027 
	C38.759411,331.233704 32.914211,321.265289 31.927900,308.206970 
z"/>
<path fill="#000000" opacity="1.000000" stroke="none" 
	d="
M57.000378,475.865967 
	C57.000202,472.098663 57.000202,468.810974 57.000202,465.270599 
	C67.781105,465.270599 78.032722,465.270599 88.643089,465.270599 
	C88.643089,470.394318 88.643089,475.430603 88.643089,480.736481 
	C78.204147,480.736481 67.952736,480.736481 57.323238,480.736481 
	C57.211746,479.219391 57.106152,477.782501 57.000378,475.865967 
z"/>
<path fill="#000000" opacity="1.000000" stroke="none" 
	d="
M67.865860,448.999634 
	C64.098366,448.999817 60.810474,448.999817 57.271042,448.999817 
	C57.271042,443.554169 57.271042,438.633972 57.271042,433.355835 
	C62.393784,433.355835 67.429932,433.355835 72.736038,433.355835 
	C72.736038,438.460571 72.736038,443.380524 72.736038,448.677826 
	C71.219482,448.788910 69.782471,448.894196 67.865860,448.999634 
z"/>
<path fill="#A8237F" opacity="1.000000" stroke="none" 
	d="
M237.000000,225.000000 
	C224.676880,224.999863 212.853699,225.026031 201.030685,224.988541 
	C195.038452,224.969543 193.015671,222.953644 193.011353,216.945892 
	C192.988358,184.973557 192.988449,153.001160 193.011368,121.028809 
	C193.015579,115.143684 195.170410,113.012657 201.102097,113.010139 
	C243.731918,112.992043 286.361755,112.990608 328.991577,113.011917 
	C334.971222,113.014908 336.984863,115.053337 336.989044,121.076546 
	C337.011292,153.048889 337.012390,185.021301 336.988007,216.993637 
	C336.983459,222.969971 334.943756,224.984756 328.920929,224.989243 
	C298.447296,225.011948 267.973633,224.999878 237.000000,225.000000 
M282.500000,129.000000 
	C258.089355,129.000000 233.678680,129.000000 209.312057,129.000000 
	C209.312057,156.050262 209.312057,182.301102 209.312057,208.600922 
	C246.658905,208.600922 283.692291,208.600922 320.687958,208.600922 
	C320.687958,181.949814 320.687958,155.698959 320.687958,129.000000 
	C308.087463,129.000000 295.793732,129.000000 282.500000,129.000000 
z"/>
<path fill="#000000" opacity="1.000000" stroke="none" 
	d="
M283.000000,129.000000 
	C295.793732,129.000000 308.087463,129.000000 320.687958,129.000000 
	C320.687958,155.698959 320.687958,181.949814 320.687958,208.600922 
	C283.692291,208.600922 246.658905,208.600922 209.312057,208.600922 
	C209.312057,182.301102 209.312057,156.050262 209.312057,129.000000 
	C233.678680,129.000000 258.089355,129.000000 283.000000,129.000000 
M288.497650,161.000000 
	C293.919434,161.000000 299.341217,161.000000 304.681763,161.000000 
	C304.681763,155.271347 304.681763,150.350540 304.681763,145.401031 
	C277.996368,145.401031 251.631180,145.401031 225.318237,145.401031 
	C225.318237,150.728699 225.318237,155.649506 225.318237,161.000000 
	C246.255066,161.000000 266.876678,161.000000 288.497650,161.000000 
M225.000443,181.658844 
	C225.000443,185.276443 225.000443,188.894028 225.000443,192.625793 
	C235.939880,192.625793 246.310898,192.625793 256.708374,192.625793 
	C256.708374,187.326599 256.708374,182.404877 256.708374,177.016678 
	C246.802139,177.016678 237.178253,176.920334 227.563812,177.177414 
	C226.679031,177.201096 225.854523,179.479095 225.000443,181.658844 
M298.386108,177.000000 
	C290.103363,177.000000 281.820618,177.000000 273.356201,177.000000 
	C273.356201,182.567520 273.356201,187.604813 273.356201,192.730896 
	C283.965454,192.730896 294.216553,192.730896 304.637329,192.730896 
	C304.637329,187.420853 304.637329,182.383865 304.637329,177.000076 
	C302.635284,177.000076 300.993835,177.000076 298.386108,177.000000 
z"/>
<path fill="#A8237F" opacity="1.000000" stroke="none" 
	d="
M287.997986,161.000000 
	C266.876678,161.000000 246.255066,161.000000 225.318237,161.000000 
	C225.318237,155.649506 225.318237,150.728699 225.318237,145.401031 
	C251.631180,145.401031 277.996368,145.401031 304.681763,145.401031 
	C304.681763,150.350540 304.681763,155.271347 304.681763,161.000000 
	C299.341217,161.000000 293.919434,161.000000 287.997986,161.000000 
z"/>
<path fill="#A8237F" opacity="1.000000" stroke="none" 
	d="
M225.001251,181.184570 
	C225.854523,179.479095 226.679031,177.201096 227.563812,177.177414 
	C237.178253,176.920334 246.802139,177.016678 256.708374,177.016678 
	C256.708374,182.404877 256.708374,187.326599 256.708374,192.625793 
	C246.310898,192.625793 235.939880,192.625793 225.000443,192.625793 
	C225.000443,188.894028 225.000443,185.276443 225.001251,181.184570 
z"/>
<path fill="#A8237F" opacity="1.000000" stroke="none" 
	d="
M298.869263,177.000031 
	C300.993835,177.000076 302.635284,177.000076 304.637329,177.000076 
	C304.637329,182.383865 304.637329,187.420853 304.637329,192.730896 
	C294.216553,192.730896 283.965454,192.730896 273.356201,192.730896 
	C273.356201,187.604813 273.356201,182.567520 273.356201,177.000000 
	C281.820618,177.000000 290.103363,177.000000 298.869263,177.000031 
z"/>
</svg>