<svg version="1.1" id="Layer_1" xmlns="http://www.w3.org/2000/svg" xmlns:xlink="http://www.w3.org/1999/xlink" x="0px" y="0px"
	 width="100%" viewBox="0 0 512 512" enable-background="new 0 0 512 512" xml:space="preserve">
<path fill="#000000" opacity="1.000000" stroke="none" 
	d="
M513.000000,189.000000 
	C513.000000,297.307007 513.000000,405.114014 513.000000,512.960510 
	C342.401306,512.960510 171.802628,512.960510 1.101965,512.960510 
	C1.101965,342.443024 1.101965,171.885956 1.101965,1.164450 
	C171.666534,1.164450 342.333252,1.164450 513.000000,1.164450 
	C513.000000,63.530674 513.000000,126.015335 513.000000,189.000000 
M121.272247,232.102875 
	C130.535263,234.734970 139.808563,237.331863 149.053436,240.026184 
	C151.127838,240.630753 153.909195,240.982300 154.996368,242.458405 
	C163.837555,254.462784 172.438431,266.648102 180.904999,278.921478 
	C182.898956,281.811981 185.018845,283.079926 188.605209,283.071381 
	C234.261368,282.962769 279.917999,283.035431 325.573914,282.889526 
	C327.752319,282.882538 330.721985,281.894775 331.971771,280.302826 
	C339.971588,270.112915 348.270325,260.044800 355.060760,249.064667 
	C358.593506,243.352219 362.172272,240.214935 368.694214,238.887894 
	C396.111267,233.309280 420.393066,220.842834 441.511536,202.759277 
	C460.682556,186.343338 475.596558,166.379074 485.419495,142.984482 
	C493.695496,123.274147 498.626160,102.786591 498.028625,81.199272 
	C497.844299,74.539207 498.004120,67.869728 497.998932,61.204559 
	C497.992065,52.318794 491.727020,46.008572 482.863007,46.004005 
	C459.868164,45.992157 436.873322,45.999939 413.878479,45.999886 
	C412.093903,45.999882 410.309357,45.999886 407.999878,45.999886 
	C407.999878,40.685986 408.007355,35.898193 407.998291,31.110435 
	C407.980835,21.872707 402.125092,16.004297 392.889160,16.002798 
	C352.065002,15.996175 311.240814,15.999936 270.416656,15.999959 
	C220.427887,15.999988 170.439117,15.994551 120.450348,16.006508 
	C113.631180,16.008141 107.016991,21.087116 106.104568,27.280914 
	C105.481163,31.512842 105.035278,35.821121 105.086441,40.088352 
	C105.139458,44.510521 103.735619,46.147625 99.043579,46.101772 
	C76.050949,45.877068 53.054882,45.980721 30.060089,46.012627 
	C23.255806,46.022064 16.021656,51.761669 16.139643,58.117958 
	C16.462273,75.498909 15.689920,93.151054 18.495951,110.177536 
	C22.952784,137.220749 34.632591,161.602432 52.325054,182.905930 
	C70.830399,205.188217 93.288986,221.855057 121.272247,232.102875 
M286.500000,428.000244 
	C241.857651,428.000305 197.214264,428.160706 152.573837,427.867249 
	C143.472946,427.807404 135.220047,434.232025 135.828094,444.757599 
	C136.556976,457.375244 136.175858,470.070496 135.933701,482.725616 
	C135.791962,490.133087 141.928879,498.212799 151.465637,498.170135 
	C221.759186,497.855530 292.054779,498.001221 362.349731,497.998779 
	C372.503540,497.998413 377.976715,492.466980 377.994293,482.149078 
	C378.015869,469.489349 378.001678,456.829590 377.999237,444.169830 
	C377.997223,433.597382 372.473053,428.010376 361.959351,428.004791 
	C337.139557,427.991638 312.319794,428.000366 286.500000,428.000244 
M314.500000,397.986359 
	C320.829468,397.986359 327.162018,398.108124 333.487457,397.948578 
	C338.753204,397.815765 344.091919,397.819397 349.251617,396.920532 
	C356.053406,395.735596 358.279846,388.587463 353.834869,383.362946 
	C351.380554,380.478271 348.899872,377.609894 346.310028,374.847687 
	C329.503784,356.922760 317.542969,336.656677 315.787628,311.293030 
	C276.494293,311.293030 237.446045,311.293030 198.434372,311.293030 
	C195.579437,334.317902 191.748108,344.336945 181.524033,359.695068 
	C175.993591,368.002625 169.280838,375.522339 163.114609,383.407745 
	C158.793549,388.933563 160.996506,395.423370 167.802963,397.014587 
	C170.018326,397.532532 172.321609,397.943787 174.585190,397.946381 
	C220.890076,397.999512 267.195038,397.986328 314.500000,397.986359 
z"/>
<path fill="#A8237F" opacity="1.000000" stroke="none" 
	d="
M120.881439,232.051483 
	C93.288986,221.855057 70.830399,205.188217 52.325054,182.905930 
	C34.632591,161.602432 22.952784,137.220749 18.495951,110.177536 
	C15.689920,93.151054 16.462273,75.498909 16.139643,58.117958 
	C16.021656,51.761669 23.255806,46.022064 30.060089,46.012627 
	C53.054882,45.980721 76.050949,45.877068 99.043579,46.101772 
	C103.735619,46.147625 105.139458,44.510521 105.086441,40.088352 
	C105.035278,35.821121 105.481163,31.512842 106.104568,27.280914 
	C107.016991,21.087116 113.631180,16.008141 120.450348,16.006508 
	C170.439117,15.994551 220.427887,15.999988 270.416656,15.999959 
	C311.240814,15.999936 352.065002,15.996175 392.889160,16.002798 
	C402.125092,16.004297 407.980835,21.872707 407.998291,31.110435 
	C408.007355,35.898193 407.999878,40.685986 407.999878,45.999886 
	C410.309357,45.999886 412.093903,45.999882 413.878479,45.999886 
	C436.873322,45.999939 459.868164,45.992157 482.863007,46.004005 
	C491.727020,46.008572 497.992065,52.318794 497.998932,61.204559 
	C498.004120,67.869728 497.844299,74.539207 498.028625,81.199272 
	C498.626160,102.786591 493.695496,123.274147 485.419495,142.984482 
	C475.596558,166.379074 460.682556,186.343338 441.511536,202.759277 
	C420.393066,220.842834 396.111267,233.309280 368.694214,238.887894 
	C362.172272,240.214935 358.593506,243.352219 355.060760,249.064667 
	C348.270325,260.044800 339.971588,270.112915 331.971771,280.302826 
	C330.721985,281.894775 327.752319,282.882538 325.573914,282.889526 
	C279.917999,283.035431 234.261368,282.962769 188.605209,283.071381 
	C185.018845,283.079926 182.898956,281.811981 180.904999,278.921478 
	C172.438431,266.648102 163.837555,254.462784 154.996368,242.458405 
	C153.909195,240.982300 151.127838,240.630753 149.053436,240.026184 
	C139.808563,237.331863 130.535263,234.734970 120.881439,232.051483 
M279.544037,211.045685 
	C280.986237,211.824966 282.369110,212.752106 283.880676,213.358444 
	C291.260254,216.318695 301.110382,209.549240 300.260773,201.785263 
	C299.298645,192.993256 297.765717,184.258865 296.311859,175.527603 
	C295.622253,171.385925 295.904572,168.001984 299.408173,164.851700 
	C305.460541,159.409622 311.346344,153.702698 316.657440,147.550415 
	C319.196716,144.608978 320.892822,140.546356 321.823730,136.712982 
	C322.897858,132.289871 316.623199,126.904442 310.310425,126.020348 
	C303.007660,124.997604 295.703278,123.985527 288.406982,122.918404 
	C285.078857,122.431633 282.623657,121.078194 281.075043,117.630005 
	C277.643860,109.990021 273.875153,102.487099 269.917908,95.103111 
	C267.369629,90.348221 263.081482,87.051132 257.656219,87.213501 
	C253.187469,87.347229 249.191238,89.787582 247.039673,94.198647 
	C243.000824,102.478951 239.083511,110.820541 234.891525,119.022087 
	C234.217804,120.340202 232.503830,121.681847 231.066086,121.961845 
	C223.210342,123.491745 215.303421,124.777260 207.388809,125.980453 
	C201.395615,126.891556 196.482086,129.812302 194.465546,135.357681 
	C192.553558,140.615479 194.255157,145.484375 198.894821,149.503738 
	C204.538177,154.392639 209.416275,160.154831 214.916580,165.223282 
	C217.541885,167.642456 218.484543,170.245361 217.977661,173.564331 
	C216.616196,182.479050 215.675949,191.493698 213.658783,200.259323 
	C212.451767,205.504517 214.730072,208.685135 218.061462,211.337082 
	C221.832687,214.339127 226.463440,215.331055 231.036911,212.944763 
	C238.751953,208.919235 246.283066,204.537125 254.047760,200.614258 
	C255.607880,199.826019 258.187744,199.743637 259.744354,200.489716 
	C266.259399,203.612427 272.563904,207.174332 279.544037,211.045685 
M436.500000,77.000366 
	C427.086334,77.000366 417.672668,77.000366 408.347931,77.000366 
	C402.793121,140.674164 402.793121,140.674164 380.633636,202.572250 
	C432.820618,186.321655 471.042603,127.837311 466.317291,77.000366 
	C456.742371,77.000366 447.121185,77.000366 436.500000,77.000366 
M104.918152,80.031166 
	C104.335167,76.976006 102.110649,76.962440 99.644058,76.971283 
	C83.485329,77.029205 67.326286,76.993317 51.167389,77.017281 
	C49.894665,77.019165 48.622269,77.242821 47.404671,77.358200 
	C43.906620,131.635376 83.340538,186.981064 133.578232,202.668961 
	C115.591072,163.980530 105.845413,123.498230 104.918152,80.031166 
z"/>
<path fill="#A8237F" opacity="1.000000" stroke="none" 
	d="
M287.000000,428.000244 
	C312.319794,428.000366 337.139557,427.991638 361.959351,428.004791 
	C372.473053,428.010376 377.997223,433.597382 377.999237,444.169830 
	C378.001678,456.829590 378.015869,469.489349 377.994293,482.149078 
	C377.976715,492.466980 372.503540,497.998413 362.349731,497.998779 
	C292.054779,498.001221 221.759186,497.855530 151.465637,498.170135 
	C141.928879,498.212799 135.791962,490.133087 135.933701,482.725616 
	C136.175858,470.070496 136.556976,457.375244 135.828094,444.757599 
	C135.220047,434.232025 143.472946,427.807404 152.573837,427.867249 
	C197.214264,428.160706 241.857651,428.000305 287.000000,428.000244 
z"/>
<path fill="#A8237F" opacity="1.000000" stroke="none" 
	d="
M314.000000,397.986359 
	C267.195038,397.986328 220.890076,397.999512 174.585190,397.946381 
	C172.321609,397.943787 170.018326,397.532532 167.802963,397.014587 
	C160.996506,395.423370 158.793549,388.933563 163.114609,383.407745 
	C169.280838,375.522339 175.993591,368.002625 181.524033,359.695068 
	C191.748108,344.336945 195.579437,334.317902 198.434372,311.293030 
	C237.446045,311.293030 276.494293,311.293030 315.787628,311.293030 
	C317.542969,336.656677 329.503784,356.922760 346.310028,374.847687 
	C348.899872,377.609894 351.380554,380.478271 353.834869,383.362946 
	C358.279846,388.587463 356.053406,395.735596 349.251617,396.920532 
	C344.091919,397.819397 338.753204,397.815765 333.487457,397.948578 
	C327.162018,398.108124 320.829468,397.986359 314.000000,397.986359 
z"/>
<path fill="#000000" opacity="1.000000" stroke="none" 
	d="
M279.244812,210.810501 
	C272.563904,207.174332 266.259399,203.612427 259.744354,200.489716 
	C258.187744,199.743637 255.607880,199.826019 254.047760,200.614258 
	C246.283066,204.537125 238.751953,208.919235 231.036911,212.944763 
	C226.463440,215.331055 221.832687,214.339127 218.061462,211.337082 
	C214.730072,208.685135 212.451767,205.504517 213.658783,200.259323 
	C215.675949,191.493698 216.616196,182.479050 217.977661,173.564331 
	C218.484543,170.245361 217.541885,167.642456 214.916580,165.223282 
	C209.416275,160.154831 204.538177,154.392639 198.894821,149.503738 
	C194.255157,145.484375 192.553558,140.615479 194.465546,135.357681 
	C196.482086,129.812302 201.395615,126.891556 207.388809,125.980453 
	C215.303421,124.777260 223.210342,123.491745 231.066086,121.961845 
	C232.503830,121.681847 234.217804,120.340202 234.891525,119.022087 
	C239.083511,110.820541 243.000824,102.478951 247.039673,94.198647 
	C249.191238,89.787582 253.187469,87.347229 257.656219,87.213501 
	C263.081482,87.051132 267.369629,90.348221 269.917908,95.103111 
	C273.875153,102.487099 277.643860,109.990021 281.075043,117.630005 
	C282.623657,121.078194 285.078857,122.431633 288.406982,122.918404 
	C295.703278,123.985527 303.007660,124.997604 310.310425,126.020348 
	C316.623199,126.904442 322.897858,132.289871 321.823730,136.712982 
	C320.892822,140.546356 319.196716,144.608978 316.657440,147.550415 
	C311.346344,153.702698 305.460541,159.409622 299.408173,164.851700 
	C295.904572,168.001984 295.622253,171.385925 296.311859,175.527603 
	C297.765717,184.258865 299.298645,192.993256 300.260773,201.785263 
	C301.110382,209.549240 291.260254,216.318695 283.880676,213.358444 
	C282.369110,212.752106 280.986237,211.824966 279.244812,210.810501 
z"/>
<path fill="#000000" opacity="1.000000" stroke="none" 
	d="
M437.000000,77.000366 
	C447.121185,77.000366 456.742371,77.000366 466.317291,77.000366 
	C471.042603,127.837311 432.820618,186.321655 380.633636,202.572250 
	C402.793121,140.674164 402.793121,140.674164 408.347931,77.000366 
	C417.672668,77.000366 427.086334,77.000366 437.000000,77.000366 
z"/>
<path fill="#000000" opacity="1.000000" stroke="none" 
	d="
M104.950073,80.488121 
	C105.845413,123.498230 115.591072,163.980530 133.578232,202.668961 
	C83.340538,186.981064 43.906620,131.635376 47.404671,77.358200 
	C48.622269,77.242821 49.894665,77.019165 51.167389,77.017281 
	C67.326286,76.993317 83.485329,77.029205 99.644058,76.971283 
	C102.110649,76.962440 104.335167,76.976006 104.950073,80.488121 
z"/>
</svg>