<svg version="1.1" id="Layer_1" xmlns="http://www.w3.org/2000/svg" xmlns:xlink="http://www.w3.org/1999/xlink" x="0px" y="0px"
	 width="100%" viewBox="0 0 512 512" enable-background="new 0 0 512 512" xml:space="preserve">
<path fill="#000000" opacity="1.000000" stroke="none" 
	d="
M291.000000,513.000000 
	C195.356552,513.000000 100.213081,512.979919 5.069745,513.084900 
	C1.799262,513.088501 0.894573,512.638489 0.897082,509.071533 
	C1.015226,341.112579 1.016805,173.153549 0.891954,5.194640 
	C0.889162,1.439416 1.845932,0.913295 5.303416,0.915291 
	C173.095764,1.012162 340.888153,1.011489 508.680511,0.918975 
	C512.094482,0.917092 513.114197,1.378825 513.111267,5.178544 
	C512.982483,173.137466 512.985168,341.096497 513.101074,509.055450 
	C513.103516,512.589539 512.251587,513.093323 508.946289,513.088074 
	C436.464325,512.972717 363.982147,513.000000 291.000000,513.000000 
z"/>
<path fill="#A8237F" opacity="1.000000" stroke="none" 
	d="
M309.000000,331.999664 
	C327.663910,331.999664 345.827820,331.987762 363.991730,332.004700 
	C373.100220,332.013153 379.969238,338.853241 379.996399,347.915039 
	C380.017395,354.913910 380.168152,361.918579 379.930054,368.909363 
	C379.815979,372.258331 380.974152,373.295471 384.187836,373.050781 
	C387.335693,372.811096 390.517548,372.942322 393.682098,373.014862 
	C398.533020,373.125977 400.906708,375.167053 400.949860,379.845001 
	C401.074402,393.341797 401.073517,406.841217 400.951355,420.338013 
	C400.908844,425.038239 397.730316,427.923828 393.151031,427.996490 
	C391.818237,428.017670 390.455353,428.180878 389.156769,427.969116 
	C383.366821,427.024933 379.409912,428.552155 376.798401,434.468933 
	C374.215027,440.321991 368.241974,441.926971 362.356567,441.934631 
	C287.534729,442.032166 212.712753,442.013672 137.890808,441.980011 
	C129.085480,441.976074 119.249962,434.620422 119.928398,423.648193 
	C120.318459,417.340027 119.879646,410.984650 120.050446,404.656921 
	C120.126244,401.848877 119.246742,400.718506 116.380531,400.962708 
	C114.064445,401.160004 111.712090,400.892792 109.386101,401.019836 
	C101.911652,401.428162 99.669327,399.108124 99.263618,391.440399 
	C98.612984,379.143341 98.921211,366.783630 99.151627,354.456543 
	C99.279091,347.637238 102.243111,345.096832 108.988708,345.002228 
	C110.154968,344.985870 111.339691,344.866730 112.485046,345.022186 
	C117.611397,345.717987 121.022667,344.742706 123.355629,339.041595 
	C125.521126,333.749664 131.112106,331.962769 137.026245,331.968170 
	C194.184128,332.020386 251.342072,331.999573 309.000000,331.999664 
z"/>
<path fill="#A8237F" opacity="1.000000" stroke="none" 
	d="
M292.760712,124.266785 
	C302.513031,135.165451 308.086517,147.779541 308.778442,161.831131 
	C309.517242,176.834976 305.162445,190.782974 295.069672,202.373199 
	C287.077942,211.550690 280.560059,221.365112 278.535889,233.708984 
	C278.182159,235.866211 278.035583,237.968613 278.027527,240.092041 
	C277.974426,254.079865 278.007629,268.067993 277.996552,282.056000 
	C277.990814,289.305664 275.461731,291.943787 268.239258,291.981110 
	C256.083344,292.043884 243.926727,292.029236 231.770615,291.985413 
	C225.549957,291.962982 222.047836,288.499542 222.021866,282.234711 
	C221.960419,267.414337 222.065872,252.593140 221.979553,237.773010 
	C221.909317,225.710815 217.601089,215.023361 209.073074,206.769272 
	C188.295944,186.659561 185.754517,151.974274 203.550537,129.340927 
	C213.628250,116.523918 226.816772,108.561813 243.712219,106.840805 
	C262.922363,104.884010 278.715820,111.271233 292.760712,124.266785 
z"/>
<path fill="#A8237F" opacity="1.000000" stroke="none" 
	d="
M153.072845,139.112747 
	C159.012650,151.424026 151.790573,167.290573 134.930161,168.968872 
	C124.526642,170.004440 113.663322,160.173447 113.003387,149.277512 
	C112.338341,138.297287 121.269363,127.674171 131.701675,127.000786 
	C141.302032,126.381104 148.833984,129.485092 153.072845,139.112747 
z"/>
<path fill="#A8237F" opacity="1.000000" stroke="none" 
	d="
M336.772339,273.990417 
	C333.072449,274.156769 330.357574,273.016449 329.397675,269.734039 
	C328.446075,266.479736 328.309113,263.102325 331.677460,260.832947 
	C335.800232,258.055359 334.729858,255.698990 331.490967,252.895508 
	C328.222137,250.066147 328.080872,244.613937 330.736389,241.853821 
	C333.243530,239.247955 338.605164,239.054321 341.485992,242.175735 
	C344.639374,245.592484 346.768768,246.677490 350.287170,242.428864 
	C353.271729,238.824860 357.688446,239.199188 360.750244,242.275818 
	C363.796692,245.337036 364.078064,249.713211 360.562439,252.771774 
	C356.920288,255.940414 356.816315,257.933289 360.499878,261.200195 
	C363.957550,264.266785 363.640533,268.819153 360.733612,271.740936 
	C357.685181,274.804962 353.365417,275.093597 350.247192,271.568939 
	C347.084991,267.994537 344.792877,267.468445 341.882202,271.554260 
	C340.828217,273.033783 339.048859,273.756683 336.772339,273.990417 
z"/>
<path fill="#A8237F" opacity="1.000000" stroke="none" 
	d="
M74.576546,381.961609 
	C67.518066,381.727112 65.030518,379.192780 65.005241,372.580353 
	C64.983047,366.772614 64.925751,360.963440 65.025421,355.157318 
	C65.111504,350.143158 68.285057,346.979950 72.950172,347.005249 
	C77.160332,347.028076 79.967178,350.309662 79.993065,355.321869 
	C80.022209,360.963593 79.729767,366.622742 80.085754,372.242065 
	C80.370255,376.732971 78.895515,379.869141 74.576546,381.961609 
z"/>
<path fill="#A8237F" opacity="1.000000" stroke="none" 
	d="
M448.123108,335.783783 
	C446.576630,340.823181 442.877869,341.601929 438.941315,340.805969 
	C435.224487,340.054504 433.879272,337.142517 433.961639,333.359955 
	C434.102661,326.884552 434.101288,320.401703 433.965240,313.926056 
	C433.873718,309.569489 436.113861,307.006561 439.999847,306.099274 
	C444.115936,305.138275 447.998352,307.605591 448.502319,312.221283 
	C449.340179,319.894989 449.744110,327.677002 448.123108,335.783783 
z"/>
<path fill="#A8237F" opacity="1.000000" stroke="none" 
	d="
M69.158508,299.958832 
	C75.464523,298.088318 79.823784,300.942993 79.961975,306.915741 
	C80.115662,313.558014 79.972649,320.206726 80.006691,326.852386 
	C80.027519,330.917114 78.185638,333.400635 74.092598,333.973389 
	C69.750496,334.580963 65.630081,332.269470 65.290062,328.071045 
	C64.675720,320.485260 64.544342,312.819458 65.424744,305.226379 
	C65.659599,303.200775 66.557121,301.069916 69.158508,299.958832 
z"/>
<path fill="#A8237F" opacity="1.000000" stroke="none" 
	d="
M198.604202,223.019714 
	C202.413467,225.100235 203.907532,228.083115 202.544937,231.835968 
	C201.176575,235.604675 198.415619,237.325409 194.097519,237.089020 
	C187.802338,236.744431 181.474258,236.978745 175.160370,237.006027 
	C171.081940,237.023651 168.587936,235.119354 168.038055,231.049881 
	C167.486115,226.965240 168.697006,223.728989 173.198135,222.915161 
	C181.516968,221.411041 189.864014,221.374298 198.604202,223.019714 
z"/>
<path fill="#A8237F" opacity="1.000000" stroke="none" 
	d="
M70.037201,252.006165 
	C75.479446,250.608429 79.696823,253.023148 79.901970,257.909546 
	C80.208466,265.209686 80.213173,272.541931 79.895531,279.840881 
	C79.730186,283.640167 77.742134,286.225403 73.205956,286.057983 
	C68.192451,285.872955 65.383156,284.151733 65.129814,279.375946 
	C64.760605,272.415741 64.848869,265.412720 65.144791,258.445068 
	C65.261337,255.700821 66.413940,252.967834 70.037201,252.006165 
z"/>
<path fill="#A8237F" opacity="1.000000" stroke="none" 
	d="
M433.999817,270.157745 
	C434.009583,268.015411 433.820404,266.318542 434.069519,264.688629 
	C434.628571,261.030304 436.926819,258.352234 440.495544,258.204712 
	C443.852051,258.065979 447.330963,258.866730 448.223328,263.415955 
	C449.777313,271.338470 449.239716,279.312103 448.586060,287.181793 
	C448.253784,291.182434 444.924896,293.659027 440.232880,293.017151 
	C435.837097,292.415802 433.952698,289.923035 433.991058,285.633118 
	C434.035736,280.633636 434.000427,275.633484 433.999817,270.157745 
z"/>
<path fill="#A8237F" opacity="1.000000" stroke="none" 
	d="
M128.389099,237.000183 
	C123.392319,237.172623 120.668747,234.782669 120.093475,230.518906 
	C119.499176,226.114059 121.927704,222.854187 126.220482,222.470779 
	C134.089722,221.767944 142.051254,221.095398 149.900711,222.919724 
	C154.395462,223.964355 155.612335,227.475250 154.831329,231.277756 
	C154.146179,234.613602 151.757034,237.026291 147.809250,237.006653 
	C141.487167,236.975189 135.164780,236.999695 128.389099,237.000183 
z"/>
<path fill="#A8237F" opacity="1.000000" stroke="none" 
	d="
M426.957458,345.491394 
	C431.375916,347.271820 431.606995,350.481903 431.056732,354.128082 
	C430.446808,358.169342 427.334717,359.669006 424.101715,359.856323 
	C417.135132,360.259949 410.126282,360.108948 403.140472,359.943909 
	C398.693726,359.838898 396.835419,356.778809 396.504822,352.788055 
	C396.175385,348.811523 399.636505,345.174500 404.179871,345.075287 
	C411.657104,344.912048 419.143311,345.158661 426.957458,345.491394 
z"/>
<path fill="#A8237F" opacity="1.000000" stroke="none" 
	d="
M80.000763,409.937012 
	C79.906815,413.889893 80.262276,417.256287 81.152481,420.681000 
	C82.220444,424.789520 80.315872,427.739319 76.255730,429.358032 
	C72.317139,430.928314 69.987320,428.969452 68.020782,426.003326 
	C65.860428,422.744843 65.465965,418.908051 65.101654,415.215790 
	C64.694710,411.091431 64.870903,406.890320 65.043549,402.733002 
	C65.245071,397.880219 68.363922,394.914673 72.818268,395.001801 
	C77.805908,395.099365 79.920563,397.433075 79.995293,402.963837 
	C80.024551,405.128998 80.000526,407.294891 80.000763,409.937012 
z"/>
<path fill="#A8237F" opacity="1.000000" stroke="none" 
	d="
M434.487122,240.950958 
	C434.152252,233.141235 434.113495,225.664139 433.988220,218.188492 
	C433.911591,213.613281 436.364899,211.089005 440.571625,210.337189 
	C444.241638,209.681305 448.684998,213.379120 448.877838,217.614136 
	C449.195160,224.582642 449.278076,231.599808 448.793793,238.550049 
	C448.568359,241.785583 446.719299,244.831131 442.630890,245.152496 
	C439.221222,245.420486 436.076508,245.221725 434.487122,240.950958 
z"/>
<path fill="#A8237F" opacity="1.000000" stroke="none" 
	d="
M102.621643,223.023407 
	C107.287750,225.159531 107.837929,228.816757 106.594582,232.732742 
	C105.410316,236.462631 102.184410,237.194458 98.592072,237.022324 
	C93.272690,236.767410 88.357361,237.401596 83.528488,240.484238 
	C80.392212,242.486359 76.405037,241.218140 74.189445,237.424179 
	C72.020172,233.709488 72.505997,229.921570 75.944420,227.784180 
	C83.953514,222.805618 92.683952,220.353729 102.621643,223.023407 
z"/>
<path fill="#A8237F" opacity="1.000000" stroke="none" 
	d="
M435.549805,178.245178 
	C437.967377,180.970825 441.301483,182.025955 443.090454,185.085587 
	C445.808075,189.733444 445.804016,194.485260 442.460358,196.997177 
	C439.197205,199.448547 434.208710,198.103180 431.037354,194.033661 
	C428.479492,190.751373 424.972504,189.309769 420.874329,188.978561 
	C415.813293,188.569534 413.869629,186.315720 414.002869,181.288940 
	C414.121338,176.819321 416.261932,175.217087 421.513672,174.946732 
	C426.433868,174.693420 430.965271,175.636063 435.549805,178.245178 
z"/>
<path fill="#A8237F" opacity="1.000000" stroke="none" 
	d="
M352.024445,178.140106 
	C354.223236,185.486557 351.927063,188.931412 345.079712,188.988037 
	C338.583405,189.041763 332.085815,189.048401 325.589722,188.983444 
	C320.323029,188.930786 318.012390,186.744888 318.004456,182.024475 
	C317.996338,177.193268 320.262787,175.021317 325.405945,175.005142 
	C332.069183,174.984192 338.732880,175.036713 345.395752,174.982864 
	C348.008514,174.961746 350.312378,175.468643 352.024445,178.140106 
z"/>
<path fill="#A8237F" opacity="1.000000" stroke="none" 
	d="
M399.719116,185.589722 
	C397.829346,188.226883 395.701324,189.175262 392.729156,189.070282 
	C386.268280,188.842056 379.792969,189.064865 373.325226,188.978027 
	C368.095398,188.907822 365.878815,186.491776 366.002777,181.290054 
	C366.109802,176.798538 368.201477,175.019638 373.476990,175.004486 
	C380.111725,174.985443 386.747131,174.942429 393.381073,175.017365 
	C399.836670,175.090271 402.280701,178.979233 399.719116,185.589722 
z"/>
<path fill="#A8237F" opacity="1.000000" stroke="none" 
	d="
M257.000336,87.937965 
	C256.999939,90.076675 256.957947,91.735580 257.007477,93.391754 
	C257.124756,97.312607 255.388962,99.528091 251.377731,100.021645 
	C246.939453,100.567726 243.556519,99.120331 243.154984,94.486732 
	C242.670288,88.893127 242.602585,83.178993 243.196487,77.606781 
	C243.575714,74.048790 246.849304,71.982407 250.367355,72.154404 
	C253.715912,72.318123 256.815063,73.835823 256.963928,78.009087 
	C257.076111,81.154793 256.995239,84.307396 257.000336,87.937965 
z"/>
<path fill="#A8237F" opacity="1.000000" stroke="none" 
	d="
M113.819710,437.317230 
	C109.555214,441.970673 98.209198,443.797180 93.055687,441.002533 
	C89.936974,439.311310 88.494164,436.539581 89.187012,433.170959 
	C89.906303,429.673767 92.266479,427.287506 96.008347,427.061462 
	C99.648140,426.841553 103.326752,426.803192 106.960922,427.065155 
	C111.785393,427.412903 114.045525,430.802094 113.819710,437.317230 
z"/>
<path fill="#A8237F" opacity="1.000000" stroke="none" 
	d="
M236.952759,101.630333 
	C233.560120,108.231529 228.551849,108.992882 223.575882,104.055466 
	C221.695145,102.189308 219.884598,100.248085 217.939667,98.451927 
	C214.969101,95.708565 214.778183,92.438362 216.506088,89.179085 
	C218.344894,85.710632 221.789627,85.420662 225.173950,86.178391 
	C229.836121,87.222198 236.819565,96.339417 236.952759,101.630333 
z"/>
<path fill="#A8237F" opacity="1.000000" stroke="none" 
	d="
M283.798828,97.461014 
	C281.290894,100.160049 279.041534,102.625511 276.569427,104.842552 
	C273.137573,107.920258 268.235626,107.880440 265.481049,104.961395 
	C262.009888,101.282944 262.192902,98.442261 266.216034,94.294716 
	C267.952911,92.504120 269.902069,90.895485 271.474915,88.974976 
	C274.187286,85.663040 277.674011,84.699310 281.074036,86.844536 
	C284.693359,89.128136 286.322388,92.760757 283.798828,97.461014 
z"/>
<path fill="#A8237F" opacity="1.000000" stroke="none" 
	d="
M373.000061,126.988106 
	C373.475220,121.874123 375.759308,119.829292 380.338379,120.004196 
	C384.691559,120.170479 386.846527,122.792496 387.047302,127.479568 
	C387.252472,132.270233 383.979004,133.900757 380.411652,134.719543 
	C376.760284,135.557587 373.440033,131.947433 373.000061,126.988106 
z"/>
<path fill="#000000" opacity="1.000000" stroke="none" 
	d="
M265.000000,426.999969 
	C223.502411,426.999939 182.504822,427.001404 141.507233,426.998260 
	C135.007431,426.997772 134.999207,426.988068 134.998093,420.329407 
	C134.994308,397.664062 135.125229,374.997437 134.893509,352.334473 
	C134.844559,347.544708 136.376587,345.937775 141.072144,345.943115 
	C214.067764,346.026031 287.063538,346.024750 360.059143,345.945648 
	C364.711334,345.940613 366.078278,347.924469 366.055298,352.284668 
	C365.935059,375.116028 365.910797,397.948944 366.069611,420.779846 
	C366.103607,425.665009 364.101074,427.080994 359.494324,427.063141 
	C328.163269,426.941772 296.831512,426.999847 265.000000,426.999969 
z"/>
<path fill="#000000" opacity="1.000000" stroke="none" 
	d="
M382.087463,413.967438 
	C379.325623,413.584351 380.052979,411.729858 380.038147,410.416718 
	C379.963318,403.791382 380.065887,397.163849 379.970703,390.539032 
	C379.937042,388.196686 380.304626,386.867889 383.170227,386.927826 
	C385.851898,386.983887 386.034698,388.332764 386.017700,390.377625 
	C385.961151,397.168976 385.891663,403.963531 386.046997,410.751831 
	C386.109100,413.465118 385.016327,414.320374 382.087463,413.967438 
z"/>
<path fill="#000000" opacity="1.000000" stroke="none" 
	d="
M119.999062,373.987915 
	C119.998100,377.127472 119.915436,379.777161 120.020981,382.419342 
	C120.112213,384.703400 119.792717,386.137817 116.879662,386.071411 
	C114.263435,386.011780 113.957359,384.776794 113.979774,382.679993 
	C114.048729,376.230072 114.047501,369.778503 113.980331,363.328552 
	C113.958580,361.240875 114.244881,359.987549 116.870934,359.928192 
	C119.774689,359.862518 120.097374,361.277283 120.023552,363.571564 
	C119.917221,366.876129 119.998093,370.186737 119.999062,373.987915 
z"/>
<path fill="#000000" opacity="1.000000" stroke="none" 
	d="
M221.771942,131.727417 
	C236.598633,118.180428 261.131378,117.632614 276.556641,130.012970 
	C288.561615,139.648163 294.481720,152.139557 293.870239,167.340149 
	C293.480713,177.023483 289.943573,185.802963 283.319641,193.241928 
	C273.005341,204.825272 264.858032,217.547699 264.018677,233.667847 
	C263.857544,236.762375 261.741547,235.818909 260.101196,235.986160 
	C258.186127,236.181396 256.963104,235.732468 256.979767,233.358810 
	C257.054626,222.699402 257.058807,212.038696 256.963104,201.379593 
	C256.945343,199.400940 258.119232,198.377457 259.273651,197.220169 
	C264.448639,192.032272 269.667206,186.887512 274.813568,181.671478 
	C278.551422,177.883011 279.106293,172.628265 276.182037,169.753510 
	C273.277039,166.897644 267.971649,167.479446 264.376160,171.147064 
	C259.841675,175.772552 255.374023,180.463577 250.537659,185.478745 
	C245.474121,180.268921 240.793930,175.533737 236.209610,170.707489 
	C233.331482,167.677444 229.704224,167.087967 226.228256,168.523224 
	C221.522369,170.466324 220.842148,176.162613 224.607986,180.064636 
	C229.811523,185.456329 235.149094,190.720978 240.513351,195.953812 
	C242.137833,197.538498 243.091583,199.107758 243.057892,201.539536 
	C242.917160,211.697876 243.034271,221.859573 242.961365,232.019348 
	C242.949982,233.607346 243.873032,235.812256 240.759857,236.037231 
	C238.029739,236.234543 237.156647,235.337112 236.767273,232.587006 
	C235.110229,220.883133 230.875931,210.112747 223.732559,200.654251 
	C220.161270,195.925537 215.430069,192.169144 212.394455,186.922150 
	C201.656448,168.361740 205.392151,146.065842 221.771942,131.727417 
z"/>
<path fill="#000000" opacity="1.000000" stroke="none" 
	d="
M262.999939,261.037476 
	C262.998596,265.522461 262.892609,269.519379 263.034485,273.507507 
	C263.122284,275.975250 262.472748,277.115570 259.726471,277.046204 
	C253.241653,276.882446 246.749146,276.939087 240.261292,277.024750 
	C238.069992,277.053650 236.931717,276.586578 236.937302,274.027161 
	C236.942749,271.529907 237.949936,270.893005 240.206497,270.973907 
	C243.529800,271.093048 246.864716,271.101410 250.187469,270.971802 
	C255.145905,270.778290 257.063873,268.483490 257.020325,263.392120 
	C256.980408,258.730225 254.537842,256.892578 250.123184,256.985870 
	C246.797028,257.056152 243.464096,256.895111 240.141846,257.028381 
	C237.808670,257.121979 236.956619,256.332306 236.938339,253.908127 
	C236.918457,251.274734 238.205032,250.952530 240.326126,250.978714 
	C246.315018,251.052658 252.315430,251.210159 258.291595,250.923645 
	C261.923157,250.749527 263.607483,251.689163 263.039124,255.560013 
	C262.799988,257.188690 262.999695,258.881836 262.999939,261.037476 
z"/>
<path fill="#000000" opacity="1.000000" stroke="none" 
	d="
M139.989807,148.781311 
	C138.889877,153.012497 136.097244,154.459717 132.507385,153.666275 
	C129.502304,153.002060 127.891518,150.608078 128.032913,147.427628 
	C128.191193,143.867493 130.565430,142.072830 133.746124,141.833878 
	C138.170929,141.501434 140.100571,144.101761 139.989807,148.781311 
z"/>
<path fill="#A8237F" opacity="1.000000" stroke="none" 
	d="
M145.249329,379.937256 
	C146.082962,379.604034 146.557251,379.137787 146.957947,379.194183 
	C152.728683,380.006897 154.433990,377.651947 154.263138,371.853119 
	C154.150131,368.017578 157.457245,365.692871 161.841812,365.971771 
	C165.617233,366.211914 169.043060,369.162689 168.871735,373.312042 
	C168.690552,377.700012 169.819122,379.176117 174.502563,379.228638 
	C179.870209,379.288727 182.345810,382.718048 181.993805,387.524872 
	C181.658066,392.109314 179.418869,394.146881 173.921371,393.914185 
	C170.114319,393.753021 168.609451,394.729095 168.905548,398.797577 
	C169.233627,403.305878 167.472610,407.138763 162.429276,407.699890 
	C159.051025,408.075806 154.868942,406.814728 154.853348,403.130768 
	C154.822372,395.819550 151.799118,393.125824 144.777145,393.169189 
	C141.729080,393.188019 140.351425,389.838226 140.355133,387.399597 
	C140.359589,384.471405 141.255417,381.198303 145.249329,379.937256 
z"/>
<path fill="#A8237F" opacity="1.000000" stroke="none" 
	d="
M359.987762,386.091125 
	C358.544220,392.624542 356.924225,393.987000 350.972260,393.997101 
	C342.983368,394.010620 334.994415,394.006653 327.005493,393.998474 
	C321.491455,393.992828 318.100128,391.406128 318.004547,387.158630 
	C317.891449,382.133087 321.040619,379.145752 327.039459,379.039001 
	C335.025879,378.896851 343.018829,378.893494 351.004761,379.047302 
	C355.418549,379.132294 359.079620,380.658875 359.987762,386.091125 
z"/>
</svg>