<?xml version="1.0" standalone="no"?>
<svg version="1.0" xmlns="http://www.w3.org/2000/svg"
     width="100%" viewBox="0 0 919.000000 1280.000000"
     preserveAspectRatio="xMidYMid meet">
    <path fill="#a8237f" transform="translate(0.000000,1280.000000) scale(0.100000,-0.100000)" stroke="none" d="M713 12768 c-39 -42 -90 -136 -117 -217 l-26 -81 20 -40 c11 -22 23
-40 25 -40 3 0 11 16 19 35 18 41 33 43 131 19 81 -20 116 -56 145 -150 21
-69 20 -84 -7 -84 -36 0 -183 -81 -227 -125 -42 -43 -54 -68 -71 -147 -6 -34
-39 -57 -195 -138 -155 -81 -170 -101 -236 -304 -73 -228 -87 -297 -73 -364
28 -136 78 -222 129 -222 16 0 61 16 101 35 72 34 73 34 101 17 53 -34 317
-274 338 -307 12 -19 20 -50 20 -76 0 -53 19 -85 99 -171 90 -96 124 -117 228
-135 109 -19 204 -13 260 16 59 30 105 28 144 -7 29 -26 32 -35 32 -83 0 -30
-4 -75 -8 -100 -7 -42 -4 -51 23 -91 54 -79 141 -132 243 -149 35 -6 68 -15
72 -19 15 -14 -75 -221 -105 -244 l-28 -20 -192 23 c-213 26 -647 40 -708 24
l-35 -9 0 -145 0 -144 -47 -95 c-66 -133 -134 -250 -165 -282 -47 -49 -83 -35
-187 70 l-69 70 -61 -25 c-33 -15 -69 -34 -79 -43 -17 -15 -17 -19 0 -83 21
-78 28 -60 -86 -222 -41 -59 -83 -112 -94 -120 -16 -11 -20 -26 -20 -82 -1
-58 7 -89 54 -218 l55 -150 120 -62 c65 -35 147 -71 181 -82 107 -35 171 -71
331 -194 128 -98 160 -112 308 -137 100 -18 126 -19 162 -9 38 11 46 10 70 -7
15 -11 46 -57 69 -104 l42 -84 -49 -51 c-42 -45 -49 -59 -55 -108 -12 -93 0
-131 56 -179 l48 -43 -24 -114 c-34 -157 -46 -174 -166 -210 -69 -22 -100 -47
-119 -96 -25 -66 -42 -177 -47 -311 -5 -119 -3 -145 11 -176 22 -45 212 -219
320 -291 30 -21 42 -24 57 -16 15 8 21 6 25 -6 11 -27 -4 -73 -67 -213 -71
-159 -82 -214 -49 -255 33 -42 84 -58 206 -67 109 -8 269 -43 280 -62 8 -13
-36 -78 -101 -148 -79 -86 -85 -98 -106 -227 l-19 -117 64 -96 c78 -114 83
-127 91 -221 3 -41 10 -94 15 -119 13 -68 57 -460 74 -670 9 -102 20 -205 26
-230 5 -25 14 -71 20 -102 8 -39 27 -81 59 -130 26 -40 64 -103 85 -141 l38
-67 -32 -36 c-49 -56 -53 -76 -29 -142 37 -102 39 -115 39 -246 0 -247 26
-309 143 -344 48 -14 67 -25 83 -50 27 -39 37 -104 28 -180 -7 -68 -2 -75 56
-74 50 1 116 35 124 64 3 13 6 48 6 78 0 73 21 192 66 374 35 141 38 147 51
123 7 -14 20 -53 28 -86 14 -53 14 -63 -1 -102 -32 -88 -38 -145 -19 -202 19
-60 59 -117 81 -117 46 0 129 146 187 325 63 197 62 181 23 281 l-33 89 28 33
c16 18 29 45 30 60 l0 27 10 -25 c6 -14 7 -57 3 -101 -4 -53 -3 -79 5 -83 16
-10 44 58 78 187 l28 108 -37 69 -38 69 46 93 c25 51 50 98 56 103 25 24 -45
-753 -76 -842 -8 -22 -28 -65 -46 -97 -27 -47 -32 -65 -27 -99 6 -56 45 -155
69 -179 28 -28 55 -18 165 58 88 61 224 137 319 177 23 10 70 44 105 76 l64
58 -34 74 c-18 41 -36 85 -38 99 -2 14 5 71 16 127 27 130 27 249 0 385 -27
136 -22 171 43 284 60 106 155 241 174 248 28 11 13 -28 -35 -89 -90 -114
-151 -246 -151 -327 0 -21 14 -80 31 -130 26 -77 32 -116 38 -228 6 -115 11
-142 32 -185 43 -85 110 -100 117 -26 2 17 7 31 13 31 5 0 9 -4 9 -9 0 -5 22
-23 49 -40 l49 -30 -18 -49 c-23 -60 -41 -183 -29 -198 5 -6 56 -35 113 -64
161 -82 247 -80 350 10 48 42 60 68 80 165 9 44 21 84 26 89 6 6 10 22 10 37
0 15 19 62 41 105 23 44 54 104 70 134 34 65 49 136 49 234 0 39 5 78 10 86
13 20 13 -112 0 -202 -5 -37 -7 -73 -5 -80 3 -7 22 -25 43 -40 l38 -26 45 71
c25 40 58 92 72 118 18 32 40 53 77 73 135 73 207 305 141 456 -21 49 -22 59
-12 106 15 65 -3 142 -55 247 -20 38 -34 70 -32 72 7 7 160 -108 175 -131 24
-37 51 -154 64 -275 15 -136 1 -273 -38 -363 -64 -151 -103 -306 -103 -411 0
-48 31 -101 72 -124 25 -14 31 -14 73 7 60 29 201 166 244 237 44 73 82 181
116 331 22 97 28 153 33 302 l5 182 -86 89 c-88 92 -195 228 -227 291 -10 20
-28 76 -39 124 -12 49 -31 106 -42 126 l-21 38 26 38 c33 49 33 67 -1 93 -70
56 -294 77 -378 36 -38 -19 -41 -23 -52 -85 -20 -109 -17 -153 13 -181 14 -13
42 -52 61 -87 19 -35 40 -61 47 -59 18 6 45 98 46 160 l0 57 46 0 c25 0 44 -3
42 -7 -51 -100 -74 -179 -84 -289 l-7 -75 -18 40 c-33 75 -102 186 -156 253
l-54 66 39 129 c22 70 45 160 52 199 13 74 14 68 -33 215 -9 26 -12 52 -7 59
5 8 47 19 100 26 50 7 103 20 117 29 31 20 60 84 78 173 23 106 19 150 -15
201 -17 24 -30 47 -30 51 0 18 -56 41 -128 54 -43 8 -96 23 -118 34 -95 48
-298 221 -281 239 4 3 44 -6 90 -20 45 -15 145 -40 221 -54 l139 -27 18 23
c26 32 51 121 58 211 l7 75 13 -37 c7 -21 16 -38 20 -38 4 0 35 11 69 25 34
14 73 25 87 25 22 0 25 4 25 37 0 52 22 28 24 -26 1 -57 -20 -75 -83 -72 -27
1 -65 -5 -84 -13 -31 -12 -36 -21 -46 -66 -17 -78 -14 -168 8 -226 11 -28 30
-102 42 -165 22 -115 23 -217 3 -404 l-6 -60 50 -63 c91 -113 174 -283 191
-392 21 -128 102 -260 266 -429 112 -117 168 -161 200 -161 12 0 43 9 69 21
43 19 53 19 121 8 87 -14 268 -8 306 11 28 13 52 53 63 107 5 22 24 47 59 76
49 42 283 209 318 228 31 16 203 -181 346 -396 183 -276 220 -358 274 -615 21
-102 91 -294 150 -415 30 -61 109 -356 133 -494 7 -42 10 -85 5 -96 -4 -12
-10 -52 -14 -89 l-8 -68 41 21 c23 12 46 21 51 21 16 0 23 -58 11 -94 -11 -34
-12 -34 -30 -16 -31 31 -80 52 -106 46 -62 -16 -81 -122 -65 -351 13 -176 17
-196 50 -236 l27 -32 67 37 c37 21 75 48 86 61 20 27 37 101 46 215 6 69 10
79 45 118 l39 43 6 -45 c8 -50 -6 -152 -37 -271 -24 -89 -36 -114 -86 -166
l-34 -36 42 -83 c23 -45 57 -106 76 -135 51 -76 64 -130 64 -262 0 -132 -3
-125 110 -293 100 -150 163 -257 273 -465 49 -93 103 -189 118 -212 27 -39 63
-62 77 -49 12 13 -30 153 -73 246 -51 109 -65 170 -65 280 0 103 -16 183 -51
251 -38 76 -52 172 -47 333 3 125 5 135 36 198 35 72 107 141 216 207 l56 33
52 -26 c29 -15 102 -57 162 -94 l110 -67 46 -115 c58 -144 69 -162 95 -154 29
9 114 55 125 69 6 8 -1 47 -20 116 -61 211 -96 464 -106 764 -4 123 -2 200 6
245 21 115 23 191 5 305 -10 65 -21 212 -25 360 -8 269 -17 342 -81 655 -24
116 -44 246 -49 322 -13 184 -39 283 -104 393 -30 49 -85 153 -124 230 l-69
140 -28 311 -27 311 31 55 c18 31 31 69 31 88 0 19 -29 119 -64 224 -68 201
-85 281 -111 513 -16 152 -26 190 -50 199 -9 4 -44 1 -78 -6 l-62 -12 -27 33
-27 32 -72 -59 c-39 -32 -85 -75 -102 -96 -58 -72 -133 -41 -234 97 l-22 30
-17 -40 c-23 -55 -22 -120 6 -257 23 -115 23 -118 6 -181 -23 -83 -57 -123
-142 -167 -79 -40 -117 -84 -184 -215 -59 -114 -61 -153 -17 -275 19 -52 42
-127 52 -167 l17 -72 -31 -44 c-62 -90 -126 -140 -293 -227 l-87 -45 -45 44
c-58 57 -90 126 -165 351 -34 102 -70 200 -81 218 -21 34 -107 95 -122 86 -17
-11 -48 -85 -54 -126 -3 -28 4 -84 20 -157 13 -62 22 -120 19 -128 -9 -24 -46
-10 -70 26 -31 47 -45 95 -108 392 -66 307 -81 354 -145 461 -91 151 -140 314
-140 467 l0 80 38 11 c83 22 123 105 132 270 4 94 10 123 29 160 54 103 228
327 272 351 16 8 36 5 92 -12 51 -17 95 -23 152 -23 81 1 144 19 380 109 62
23 82 26 185 25 182 -2 165 -7 194 53 38 77 59 188 52 273 -6 67 -5 71 17 81
19 9 28 7 48 -8 13 -10 33 -19 44 -19 23 0 130 58 224 122 78 52 84 70 72 189
l-9 84 64 65 c57 59 66 74 93 157 17 50 49 167 72 258 33 132 40 177 35 213
-14 99 -17 147 -8 161 17 25 94 4 184 -50 105 -64 138 -70 206 -35 109 55 108
105 -3 217 -56 57 -75 83 -75 103 0 41 -24 80 -70 110 -22 15 -58 42 -78 60
-20 18 -55 39 -77 46 -22 7 -119 48 -215 91 -96 42 -195 83 -220 90 -89 26
-454 5 -725 -41 -60 -10 -185 -24 -277 -31 -198 -15 -242 -9 -436 58 -199 69
-194 68 -375 55 -156 -12 -223 -23 -427 -72 -131 -32 -307 -32 -620 -1 l-245
24 -107 -32 -107 -33 -158 47 c-212 63 -379 124 -552 202 -178 79 -243 97
-325 88 -34 -3 -69 -3 -78 0 -9 4 -25 27 -34 51 -22 59 -15 186 22 354 20 94
27 154 28 240 0 105 -4 129 -43 275 -24 88 -48 177 -54 198 -9 36 -7 45 38
129 l48 91 -17 70 c-34 143 -145 384 -209 454 -11 12 -41 30 -66 40 -67 24
-82 37 -117 96 -17 28 -38 54 -48 55 -26 5 -64 -35 -101 -108 l-33 -65 39 -84
c22 -46 39 -89 39 -96 0 -19 -96 -105 -138 -122 -29 -12 -57 -14 -134 -9 -123
9 -248 30 -285 50 -41 20 -198 144 -258 201 -27 27 -54 48 -59 46 -16 -4 -44
30 -59 72 -9 23 -28 98 -42 167 -14 69 -35 164 -46 212 l-21 88 -125 66 -126
67 -29 -34 c-55 -65 -60 -81 -37 -127 13 -26 36 -50 62 -65 23 -14 72 -54 110
-89 69 -65 77 -84 56 -131 -13 -28 -13 -28 -236 -6 -115 11 -153 22 -254 75
-110 58 -142 103 -173 247 -14 61 -123 153 -213 179 -58 17 -247 138 -263 168
-6 11 -17 20 -24 20 -18 0 -36 47 -45 110 l-6 52 -22 -24z m4360 -6664 c9 -9
-13 -60 -34 -80 -18 -16 -25 -16 -72 -4 -29 7 -68 21 -87 30 l-35 18 40 11
c96 27 175 38 188 25z m-2179 -3102 c15 -51 25 -96 22 -99 -10 -10 -52 97 -70
174 -19 86 -20 137 -3 166 10 19 13 11 18 -63 3 -49 17 -125 33 -178z m1409
-24 c-20 -34 -34 -44 -77 -53 -30 -6 -62 -35 -133 -120 -23 -27 -45 -46 -48
-43 -9 8 96 122 195 212 56 51 76 64 78 52 2 -9 -5 -31 -15 -48z"/>
    <path fill="#a8237f" transform="translate(0.000000,1280.000000) scale(0.100000,-0.100000)" stroke="none" d="M6711 3977 c-30 -74 -51 -155 -51 -200 0 -64 120 -295 173 -332 34
-24 91 -19 127 12 42 35 50 60 38 117 -20 95 -220 456 -253 456 -7 0 -22 -24
-34 -53z"/>
    <path fill="#a8237f" transform="translate(0.000000,1280.000000) scale(0.100000,-0.100000)" stroke="none" d="M6022 3803 c-17 -33 -22 -75 -42 -413 -18 -295 -28 -386 -55 -491 -4
-15 -3 -29 2 -32 11 -7 157 101 224 164 40 38 48 53 60 109 8 36 14 101 14
145 0 71 -7 99 -59 250 -62 181 -104 277 -123 283 -6 2 -16 -5 -21 -15z"/>
    <path fill="#a8237f" transform="translate(0.000000,1280.000000) scale(0.100000,-0.100000)" stroke="none" d="M5004 2992 c-78 -50 -132 -98 -150 -133 -27 -53 -12 -154 29 -188 27
-22 64 -5 91 42 22 36 100 228 120 295 11 34 -21 28 -90 -16z"/>
</svg>
