<svg version="1.1" id="Layer_1" xmlns="http://www.w3.org/2000/svg" xmlns:xlink="http://www.w3.org/1999/xlink" x="0px" y="0px"
	 width="100%" viewBox="0 0 512 512" enable-background="new 0 0 512 512" xml:space="preserve">
<path fill="#000000" opacity="1.000000" stroke="none" 
	d="
M313.000000,513.000000 
	C210.025009,513.000000 107.549995,512.981567 5.075102,513.083923 
	C1.816130,513.087158 0.893962,512.654846 0.896494,509.076904 
	C1.015359,341.117950 1.016569,173.158920 0.893039,5.200006 
	C0.890288,1.459597 1.826026,0.912041 5.298050,0.914075 
	C173.090393,1.012387 340.882782,1.011266 508.675140,0.920216 
	C512.074646,0.918371 513.115295,1.358596 513.112305,5.173178 
	C512.982300,173.132095 512.985291,341.091125 513.100464,509.050079 
	C513.102905,512.573181 512.268616,513.095337 508.951660,513.089233 
	C443.801270,512.969360 378.650604,513.000000 313.000000,513.000000 
z"/>
<path fill="#A8237F" opacity="1.000000" stroke="none" 
	d="
M350.333923,434.698303 
	C326.187561,419.061066 302.158051,403.908020 278.640381,387.998291 
	C273.221283,384.332245 268.414429,384.787445 263.286316,386.189606 
	C257.217651,387.848969 251.548492,386.501007 245.794647,385.295837 
	C242.617096,384.630249 240.125183,384.892426 237.172989,386.829773 
	C208.234619,405.819855 179.143524,424.577332 150.082413,443.380157 
	C135.076340,453.089264 120.058708,462.780670 105.016983,472.434387 
	C94.639999,479.094330 84.000946,478.117401 73.659988,472.667267 
	C66.426003,468.854645 60.438122,463.263855 55.962681,456.371277 
	C50.320782,447.682251 48.485802,438.555756 54.039845,428.969421 
	C56.747578,424.295868 61.609180,422.114624 65.692009,419.215790 
	C94.172791,398.994171 122.845940,379.043335 151.476151,359.032471 
	C162.085739,351.616943 172.746429,344.274536 183.382156,336.896423 
	C188.428635,333.395630 188.308762,329.822723 183.223724,326.512878 
	C162.759293,313.192535 142.395309,299.717072 121.880829,286.474548 
	C86.756920,263.801361 51.578197,241.212570 16.359232,218.687271 
	C2.916582,210.089600 1.516644,199.722275 6.410320,186.681564 
	C12.402613,170.713272 23.030378,157.973129 38.973049,150.522614 
	C49.208424,145.739288 58.707161,145.670807 68.560181,152.672485 
	C104.401848,178.141937 140.616013,203.086670 176.636108,228.305832 
	C192.918655,239.705933 209.094345,251.259247 225.260757,262.823761 
	C226.972153,264.047974 228.594818,264.658417 230.150452,263.216339 
	C232.278168,261.243958 234.711090,259.864471 237.401840,259.088470 
	C239.667175,258.435120 238.942017,256.801361 238.962479,255.495972 
	C239.048676,249.997864 239.000671,244.497635 239.000702,238.998184 
	C239.000854,192.502823 238.786896,146.005493 239.216476,99.514107 
	C239.286102,91.978836 236.585419,88.132156 230.887482,83.692665 
	C218.204346,73.810738 215.463135,56.034981 227.922958,44.629444 
	C233.342331,39.668644 240.314117,37.557507 247.290222,37.204475 
	C256.474640,36.739693 265.718689,36.329231 274.914764,38.885468 
	C294.509613,44.332272 298.883698,64.290573 288.483215,78.201591 
	C285.515961,82.170403 281.867493,84.978737 277.908234,87.592293 
	C275.822754,88.968941 274.916931,90.479332 274.922089,93.165062 
	C275.025787,146.992813 275.062347,200.821045 274.867828,254.648300 
	C274.853851,258.519867 277.572784,258.554169 279.343597,260.328339 
	C284.288849,265.282990 287.985199,263.301575 292.801392,259.888641 
	C324.630096,237.333344 356.708710,215.131165 388.621796,192.694336 
	C407.677368,179.297119 426.584778,165.689102 445.549896,152.163345 
	C457.757172,143.457230 469.750305,146.435455 480.940002,153.733734 
	C496.285034,163.742279 506.806000,177.714371 509.703461,196.097595 
	C511.053711,204.664124 507.458130,212.104401 499.661713,217.127487 
	C463.099762,240.683624 426.608002,264.348694 390.093079,287.977753 
	C369.700500,301.173950 349.310394,314.374054 328.922424,327.577332 
	C326.366486,329.232605 326.045563,333.271667 328.609680,335.153564 
	C336.807343,341.170044 345.103210,347.054504 353.417206,352.910370 
	C383.745819,374.272064 414.095551,395.603821 444.441711,416.940582 
	C449.399292,420.426331 454.956848,423.321716 458.834473,427.982727 
	C465.254333,435.699524 464.559570,447.959564 457.450684,457.815216 
	C450.818237,467.010406 442.231049,473.855835 431.001862,476.381256 
	C423.641510,478.036591 416.352478,477.546021 409.612305,473.125458 
	C390.024231,460.278717 370.304749,447.632355 350.333923,434.698303 
z"/>
<path fill="#000000" opacity="1.000000" stroke="none" 
	d="
M152.342484,290.709534 
	C125.053047,273.014221 98.066727,255.525101 71.080948,238.035141 
	C55.245113,227.771667 39.400795,217.521240 23.579210,207.235855 
	C16.898241,202.892639 15.866811,201.332794 18.102077,194.038834 
	C22.893860,178.402603 33.032085,167.353958 48.147530,160.864853 
	C52.295113,159.084305 56.049335,159.897171 59.361416,162.219940 
	C79.225266,176.150650 98.957191,190.269257 118.775978,204.264511 
	C130.020645,212.205048 141.355591,220.017624 152.634155,227.910294 
	C180.139130,247.158127 207.636444,266.416870 235.122635,285.691528 
	C235.627701,286.045715 235.956070,286.651855 236.696533,287.532471 
	C226.508575,289.066193 216.899063,291.183563 208.074249,295.956787 
	C201.004745,299.780640 194.717865,304.405884 191.531006,312.074921 
	C190.256958,315.140900 188.988983,314.351837 186.955856,313.027679 
	C175.554733,305.602356 164.089294,298.275757 152.342484,290.709534 
z"/>
<path fill="#000000" opacity="1.000000" stroke="none" 
	d="
M425.669128,182.698914 
	C435.332062,175.822647 444.755341,169.236450 454.037506,162.457047 
	C460.034332,158.077194 466.003052,160.071823 471.137115,163.212265 
	C483.400330,170.713531 492.641327,180.920410 496.190002,195.396347 
	C497.526611,200.848892 496.503174,203.279877 490.725800,207.044052 
	C475.909088,216.697662 461.059662,226.301086 446.221619,235.921982 
	C421.896301,251.694336 397.581848,267.483551 373.239166,283.229004 
	C357.838684,293.190460 342.371185,303.048523 326.998566,313.052521 
	C324.850708,314.450287 323.826019,314.882233 322.415863,312.047516 
	C317.601898,302.370575 309.204437,296.790405 299.418549,292.995758 
	C292.247406,290.215057 284.784119,288.639771 276.210846,287.666412 
	C326.375549,252.434006 375.872589,217.670532 425.669128,182.698914 
z"/>
<path fill="#000000" opacity="1.000000" stroke="none" 
	d="
M330.769531,353.250549 
	C347.803131,365.277802 364.568237,377.059204 381.336731,388.835907 
	C392.744720,396.847900 404.164581,404.843109 415.565765,412.864777 
	C425.609497,419.931366 435.499359,427.228149 445.728027,434.015137 
	C450.469025,437.160889 450.789001,440.846008 448.989624,445.453583 
	C445.029419,455.594299 431.612610,464.607666 423.663330,464.099579 
	C420.657562,463.907532 418.212982,462.807343 415.898529,461.309479 
	C390.976410,445.180481 366.120239,428.949646 341.205139,412.809723 
	C323.574219,401.388489 305.880707,390.063904 287.808350,378.434357 
	C301.823883,370.420410 315.116638,362.202057 322.436279,347.435028 
	C325.105957,349.277740 327.804230,351.140198 330.769531,353.250549 
z"/>
<path fill="#000000" opacity="1.000000" stroke="none" 
	d="
M71.775604,455.230286 
	C69.152275,451.430603 66.088921,448.349823 64.641037,444.198486 
	C63.237392,440.174103 63.687744,436.829620 67.424835,434.212158 
	C100.740181,410.878448 134.031189,387.509979 167.334457,364.158997 
	C173.767197,359.648560 180.357239,355.347870 186.611252,350.603119 
	C189.877991,348.124786 191.027069,347.847992 193.774750,351.880127 
	C201.308441,362.935699 211.633728,371.180817 223.644470,377.209045 
	C224.229614,377.502747 224.744873,377.935730 225.509140,378.449341 
	C213.015274,386.655914 200.662384,394.862396 188.214737,402.922546 
	C172.802856,412.902130 157.297897,422.737915 141.860001,432.677490 
	C126.688683,442.445374 111.572296,452.298706 96.387268,462.045166 
	C90.928841,465.548645 82.267578,463.928131 75.953415,458.479584 
	C74.710945,457.407471 73.343079,456.480621 71.775604,455.230286 
z"/>
<path fill="#000000" opacity="1.000000" stroke="none" 
	d="
M207.731552,312.739716 
	C215.345169,304.683807 225.248093,302.801239 235.113953,301.044220 
	C246.803726,298.962433 258.657288,299.792023 270.399963,300.164490 
	C281.386230,300.512909 292.234192,302.647491 301.697021,308.922241 
	C315.762909,318.249268 317.866089,335.598999 306.390686,348.079254 
	C293.724854,361.854156 277.776398,370.024536 259.695007,373.773590 
	C252.459122,375.273895 245.560852,371.719299 238.745682,369.340759 
	C228.667938,365.823486 220.110901,359.773743 211.825211,353.277313 
	C201.090073,344.860352 197.463425,330.011383 203.182556,318.409546 
	C204.237640,316.269226 205.766479,314.579071 207.731552,312.739716 
z"/>
<path fill="#000000" opacity="1.000000" stroke="none" 
	d="
M261.999603,141.000000 
	C261.999512,177.975586 261.926605,214.451523 262.097931,250.926315 
	C262.117737,255.150375 260.892853,256.148987 256.815094,256.157959 
	C252.763428,256.166962 251.913559,254.866364 251.921478,251.055969 
	C252.036957,195.593323 252.000534,140.130371 252.001984,84.667488 
	C252.001999,83.668343 251.868118,82.638107 252.062546,81.676102 
	C252.564865,79.190727 254.160629,77.518723 256.617157,77.079147 
	C258.983307,76.655754 260.052399,78.448883 261.129425,80.243057 
	C262.155823,81.952911 261.992035,83.736092 261.993073,85.536873 
	C262.003418,103.857918 261.999512,122.178955 261.999603,141.000000 
z"/>
<path fill="#000000" opacity="1.000000" stroke="none" 
	d="
M247.647369,50.224594 
	C255.335434,50.181484 262.638794,49.286358 269.834290,51.057072 
	C281.565735,53.944016 284.369324,63.613205 276.038116,72.468353 
	C275.354828,73.194641 274.841553,74.080917 273.837891,75.456871 
	C270.189941,67.681976 264.466553,64.019417 256.873810,64.086266 
	C249.417969,64.151909 243.782928,67.743553 240.476715,74.745865 
	C238.694717,73.054718 236.961334,71.667931 235.794907,69.507927 
	C230.889084,60.423340 233.152267,54.579220 243.012756,51.535992 
	C244.403946,51.106628 245.819214,50.755379 247.647369,50.224594 
z"/>
<path fill="#000000" opacity="1.000000" stroke="none" 
	d="
M251.210312,280.736694 
	C247.839722,278.352997 244.717270,276.239777 241.637711,274.065796 
	C241.125900,273.704498 240.801086,273.078339 240.369247,272.549347 
	C249.699875,267.675934 264.782379,267.714691 273.665436,272.671112 
	C268.978912,277.407288 263.091980,280.454956 257.839050,284.273895 
	C255.640518,285.872284 253.485718,282.436493 251.210312,280.736694 
z"/>
</svg>