<svg version="1.1" id="Layer_1" xmlns="http://www.w3.org/2000/svg" xmlns:xlink="http://www.w3.org/1999/xlink" x="0px" y="0px"
	 width="100%" viewBox="0 0 512 512" enable-background="new 0 0 512 512" xml:space="preserve">
<path fill="#000000" opacity="1.000000" stroke="none" 
	d="
M252.000000,513.000000 
	C168.369202,513.000000 84.738388,513.000000 1.053792,513.000000 
	C1.053792,342.442352 1.053792,171.884705 1.053792,1.000000 
	C84.021729,1.000000 167.043884,1.000000 250.766052,1.345828 
	C250.644028,4.635628 249.119629,7.576492 249.106598,10.524045 
	C248.943680,47.344021 248.999863,84.164970 248.999817,120.985664 
	C248.999817,122.902985 248.999802,124.820312 248.999802,127.000885 
	C246.219437,127.000885 244.224854,127.123230 242.249191,126.981659 
	C225.351685,125.770851 212.029968,138.547745 212.957352,156.452179 
	C213.232010,161.754868 212.999710,167.083832 212.999710,172.604965 
	C190.821381,178.977707 171.828964,190.651001 154.397934,205.140289 
	C150.942474,208.012589 149.735733,214.306061 152.308884,217.683594 
	C154.666901,220.778717 160.714050,221.176544 164.165298,218.315765 
	C175.822052,208.653427 188.111816,200.118301 202.053314,193.866135 
	C219.134369,186.205994 237.078156,182.451920 255.514694,182.277557 
	C267.074432,182.168243 279.006348,183.444244 290.167999,186.386871 
	C322.660492,194.953064 349.279510,212.686096 368.933411,240.380096 
	C383.223541,260.516052 391.893372,282.901825 393.730652,307.352051 
	C395.050262,324.913635 393.964233,342.654022 394.019684,360.314423 
	C394.028748,363.195160 392.663971,364.060852 390.008881,364.023956 
	C383.845581,363.938324 377.675995,363.864197 371.516998,364.051208 
	C366.691345,364.197754 363.892670,367.530609 364.000732,372.464111 
	C364.100830,377.034027 367.083862,379.952637 371.850677,379.986786 
	C378.847900,380.036957 385.850403,379.838531 392.842255,380.038696 
	C402.605896,380.318207 410.554840,370.558990 410.137268,362.815430 
	C409.581818,352.515594 410.260468,342.155060 409.935638,331.835480 
	C409.509247,318.288910 409.963287,304.523712 407.658661,291.266235 
	C402.567596,261.979248 389.133087,236.369720 368.932648,214.541397 
	C356.626862,201.243958 342.147095,190.577896 325.902496,182.547150 
	C317.893616,178.587845 309.439148,175.529800 301.000366,171.985855 
	C301.000366,166.086823 301.011139,160.095123 300.998260,154.103500 
	C300.964722,138.484940 289.495117,127.010643 273.917816,127.000931 
	C271.009125,126.999123 268.100464,127.000671 265.000153,127.000671 
	C265.000153,124.140320 265.000153,122.146339 265.000153,120.152351 
	C265.000153,86.164017 265.092285,52.175190 264.910339,18.187828 
	C264.879669,12.455309 263.666687,6.729116 263.000000,1.000000 
	C346.297607,1.000000 429.595215,1.000000 512.946411,1.000000 
	C512.946411,171.557785 512.946411,342.115601 512.946411,513.000000 
	C429.644928,513.000000 346.289459,513.000000 262.197937,512.690918 
	C262.641327,509.092255 264.746307,505.828369 264.838593,502.508575 
	C265.222473,488.701141 265.019287,474.876770 264.990387,461.058716 
	C264.978394,455.313721 261.838898,451.889679 256.839966,452.024414 
	C251.943542,452.156403 249.031296,455.386597 249.011551,460.879364 
	C248.973282,471.534180 248.958069,482.189423 249.014969,492.844055 
	C249.051575,499.694550 247.850525,506.750153 252.000000,513.000000 
M248.500000,364.000732 
	C205.760880,364.000732 163.021759,364.000732 120.000092,364.000732 
	C120.000092,347.566833 120.114471,331.918396 119.964096,316.272491 
	C119.842697,303.640625 122.390327,291.499115 125.800949,279.438568 
	C129.459686,266.500610 135.887253,254.927200 142.724243,243.494583 
	C145.331055,239.135559 144.111557,234.473633 140.376907,232.163528 
	C136.301956,229.642929 131.705643,230.657211 129.005661,235.268784 
	C124.627144,242.747314 120.146576,250.228470 116.563553,258.097595 
	C108.736893,275.286652 104.317558,293.413239 104.047935,312.364044 
	C103.815659,328.689941 104.581711,345.049866 103.796150,361.341156 
	C103.267715,372.299927 113.401329,380.386322 122.647408,380.173981 
	C145.629486,379.646240 168.631805,380.006470 191.626007,379.993195 
	C194.346024,379.991638 196.130203,379.970581 197.303894,383.686462 
	C199.348618,390.160065 202.067322,396.772797 206.019272,402.229462 
	C221.088928,423.036957 242.203079,431.394470 267.204193,427.761292 
	C291.506775,424.229614 309.636536,407.468445 316.769562,383.855530 
	C317.732635,380.667450 318.855713,379.894958 321.733368,379.966705 
	C326.728973,380.091309 331.730072,380.020264 336.728668,379.991455 
	C340.114075,379.971924 342.771667,378.914948 344.041901,375.348846 
	C346.279602,369.066711 342.379364,364.023193 334.978394,364.014404 
	C306.485657,363.980591 277.992798,364.000702 248.500000,364.000732 
M179.546005,437.967407 
	C186.074615,431.429871 185.592758,425.668976 178.293320,422.707458 
	C173.891922,420.921692 171.031113,423.707306 168.374405,426.301086 
	C158.859436,435.590942 149.474075,445.014435 140.114761,454.461761 
	C138.866028,455.722260 137.851700,457.313934 137.067657,458.917877 
	C134.420090,464.333954 137.827515,470.244781 143.852081,469.788361 
	C146.927795,469.555328 150.465668,467.766876 152.710892,465.572571 
	C161.713226,456.774597 170.291412,447.542603 179.546005,437.967407 
M358.506836,463.006439 
	C360.754486,464.931702 362.838379,467.102600 365.283234,468.731995 
	C370.671509,472.323120 377.943909,468.816284 377.770386,462.430969 
	C377.699310,459.815186 375.869751,456.768158 373.954620,454.763123 
	C364.879395,445.261841 355.541626,436.008850 346.184845,426.781494 
	C344.583679,425.202423 342.522644,424.019104 340.523285,422.929688 
	C336.834503,420.919739 333.527496,422.313232 331.481537,425.351379 
	C329.429260,428.398926 328.623688,432.014191 331.772461,435.267914 
	C340.538422,444.326172 349.263062,453.424438 358.506836,463.006439 
z"/>
<path fill="#A8237F" opacity="1.000000" stroke="none" 
	d="
M262.539368,1.000000 
	C263.666687,6.729116 264.879669,12.455309 264.910339,18.187828 
	C265.092285,52.175190 265.000153,86.164017 265.000153,120.152351 
	C265.000153,122.146339 265.000153,124.140320 265.000153,127.000671 
	C268.100464,127.000671 271.009125,126.999123 273.917816,127.000931 
	C289.495117,127.010643 300.964722,138.484940 300.998260,154.103500 
	C301.011139,160.095123 301.000366,166.086823 301.000366,171.985855 
	C309.439148,175.529800 317.893616,178.587845 325.902496,182.547150 
	C342.147095,190.577896 356.626862,201.243958 368.932648,214.541397 
	C389.133087,236.369720 402.567596,261.979248 407.658661,291.266235 
	C409.963287,304.523712 409.509247,318.288910 409.935638,331.835480 
	C410.260468,342.155060 409.581818,352.515594 410.137268,362.815430 
	C410.554840,370.558990 402.605896,380.318207 392.842255,380.038696 
	C385.850403,379.838531 378.847900,380.036957 371.850677,379.986786 
	C367.083862,379.952637 364.100830,377.034027 364.000732,372.464111 
	C363.892670,367.530609 366.691345,364.197754 371.516998,364.051208 
	C377.675995,363.864197 383.845581,363.938324 390.008881,364.023956 
	C392.663971,364.060852 394.028748,363.195160 394.019684,360.314423 
	C393.964233,342.654022 395.050262,324.913635 393.730652,307.352051 
	C391.893372,282.901825 383.223541,260.516052 368.933411,240.380096 
	C349.279510,212.686096 322.660492,194.953064 290.167999,186.386871 
	C279.006348,183.444244 267.074432,182.168243 255.514694,182.277557 
	C237.078156,182.451920 219.134369,186.205994 202.053314,193.866135 
	C188.111816,200.118301 175.822052,208.653427 164.165298,218.315765 
	C160.714050,221.176544 154.666901,220.778717 152.308884,217.683594 
	C149.735733,214.306061 150.942474,208.012589 154.397934,205.140289 
	C171.828964,190.651001 190.821381,178.977707 212.999710,172.604965 
	C212.999710,167.083832 213.232010,161.754868 212.957352,156.452179 
	C212.029968,138.547745 225.351685,125.770851 242.249191,126.981659 
	C244.224854,127.123230 246.219437,127.000885 248.999802,127.000885 
	C248.999802,124.820312 248.999817,122.902985 248.999817,120.985664 
	C248.999863,84.164970 248.943680,47.344021 249.106598,10.524045 
	C249.119629,7.576492 250.644028,4.635628 251.233032,1.345828 
	C254.692917,1.000000 258.385834,1.000000 262.539368,1.000000 
M229.000259,164.225922 
	C229.000259,165.696762 229.000259,167.167603 229.000259,168.908203 
	C247.830994,165.355347 266.218628,165.450836 284.988800,168.847595 
	C284.988800,163.352890 285.231537,158.203369 284.924164,153.086884 
	C284.580475,147.365494 279.933197,143.107391 274.081665,143.041092 
	C262.775391,142.912979 251.466446,142.967133 240.158951,143.021011 
	C235.462433,143.043381 231.476471,144.997574 230.320038,149.633865 
	C229.225418,154.022324 229.389542,158.724747 229.000259,164.225922 
z"/>
<path fill="#A8237F" opacity="1.000000" stroke="none" 
	d="
M252.454102,513.000000 
	C247.850525,506.750153 249.051575,499.694550 249.014969,492.844055 
	C248.958069,482.189423 248.973282,471.534180 249.011551,460.879364 
	C249.031296,455.386597 251.943542,452.156403 256.839966,452.024414 
	C261.838898,451.889679 264.978394,455.313721 264.990387,461.058716 
	C265.019287,474.876770 265.222473,488.701141 264.838593,502.508575 
	C264.746307,505.828369 262.641327,509.092255 261.730957,512.690918 
	C258.969421,513.000000 255.938812,513.000000 252.454102,513.000000 
z"/>
<path fill="#A8237F" opacity="1.000000" stroke="none" 
	d="
M249.000000,364.000732 
	C277.992798,364.000702 306.485657,363.980591 334.978394,364.014404 
	C342.379364,364.023193 346.279602,369.066711 344.041901,375.348846 
	C342.771667,378.914948 340.114075,379.971924 336.728668,379.991455 
	C331.730072,380.020264 326.728973,380.091309 321.733368,379.966705 
	C318.855713,379.894958 317.732635,380.667450 316.769562,383.855530 
	C309.636536,407.468445 291.506775,424.229614 267.204193,427.761292 
	C242.203079,431.394470 221.088928,423.036957 206.019272,402.229462 
	C202.067322,396.772797 199.348618,390.160065 197.303894,383.686462 
	C196.130203,379.970581 194.346024,379.991638 191.626007,379.993195 
	C168.631805,380.006470 145.629486,379.646240 122.647408,380.173981 
	C113.401329,380.386322 103.267715,372.299927 103.796150,361.341156 
	C104.581711,345.049866 103.815659,328.689941 104.047935,312.364044 
	C104.317558,293.413239 108.736893,275.286652 116.563553,258.097595 
	C120.146576,250.228470 124.627144,242.747314 129.005661,235.268784 
	C131.705643,230.657211 136.301956,229.642929 140.376907,232.163528 
	C144.111557,234.473633 145.331055,239.135559 142.724243,243.494583 
	C135.887253,254.927200 129.459686,266.500610 125.800949,279.438568 
	C122.390327,291.499115 119.842697,303.640625 119.964096,316.272491 
	C120.114471,331.918396 120.000092,347.566833 120.000092,364.000732 
	C163.021759,364.000732 205.760880,364.000732 249.000000,364.000732 
M215.173721,380.012787 
	C214.709869,380.791351 213.680801,381.780334 213.878906,382.312531 
	C214.791626,384.764740 215.892929,387.178314 217.203278,389.445862 
	C226.144028,404.917877 240.196106,412.311829 257.468475,412.761017 
	C267.898285,413.032257 277.769470,409.116089 285.990845,402.367920 
	C293.048157,396.575195 297.941620,389.147247 300.947540,380.002472 
	C272.292633,380.002472 244.172256,380.002472 215.173721,380.012787 
z"/>
<path fill="#A7227E" opacity="1.000000" stroke="none" 
	d="
M179.286224,438.219238 
	C170.291412,447.542603 161.713226,456.774597 152.710892,465.572571 
	C150.465668,467.766876 146.927795,469.555328 143.852081,469.788361 
	C137.827515,470.244781 134.420090,464.333954 137.067657,458.917877 
	C137.851700,457.313934 138.866028,455.722260 140.114761,454.461761 
	C149.474075,445.014435 158.859436,435.590942 168.374405,426.301086 
	C171.031113,423.707306 173.891922,420.921692 178.293320,422.707458 
	C185.592758,425.668976 186.074615,431.429871 179.286224,438.219238 
z"/>
<path fill="#A8237E" opacity="1.000000" stroke="none" 
	d="
M358.255432,462.756653 
	C349.263062,453.424438 340.538422,444.326172 331.772461,435.267914 
	C328.623688,432.014191 329.429260,428.398926 331.481537,425.351379 
	C333.527496,422.313232 336.834503,420.919739 340.523285,422.929688 
	C342.522644,424.019104 344.583679,425.202423 346.184845,426.781494 
	C355.541626,436.008850 364.879395,445.261841 373.954620,454.763123 
	C375.869751,456.768158 377.699310,459.815186 377.770386,462.430969 
	C377.943909,468.816284 370.671509,472.323120 365.283234,468.731995 
	C362.838379,467.102600 360.754486,464.931702 358.255432,462.756653 
z"/>
<path fill="#000000" opacity="1.000000" stroke="none" 
	d="
M229.000153,163.757507 
	C229.389542,158.724747 229.225418,154.022324 230.320038,149.633865 
	C231.476471,144.997574 235.462433,143.043381 240.158951,143.021011 
	C251.466446,142.967133 262.775391,142.912979 274.081665,143.041092 
	C279.933197,143.107391 284.580475,147.365494 284.924164,153.086884 
	C285.231537,158.203369 284.988800,163.352890 284.988800,168.847595 
	C266.218628,165.450836 247.830994,165.355347 229.000259,168.908203 
	C229.000259,167.167603 229.000259,165.696762 229.000153,163.757507 
z"/>
<path fill="#000000" opacity="1.000000" stroke="none" 
	d="
M215.612793,380.007629 
	C244.172256,380.002472 272.292633,380.002472 300.947540,380.002472 
	C297.941620,389.147247 293.048157,396.575195 285.990845,402.367920 
	C277.769470,409.116089 267.898285,413.032257 257.468475,412.761017 
	C240.196106,412.311829 226.144028,404.917877 217.203278,389.445862 
	C215.892929,387.178314 214.791626,384.764740 213.878906,382.312531 
	C213.680801,381.780334 214.709869,380.791351 215.612793,380.007629 
z"/>
</svg>