<svg version="1.1" id="Layer_1" xmlns="http://www.w3.org/2000/svg" xmlns:xlink="http://www.w3.org/1999/xlink" x="0px" y="0px"
	 width="100%" viewBox="0 0 512 512" enable-background="new 0 0 512 512" xml:space="preserve">
<path fill="#000000" opacity="1.000000" stroke="none" 
	d="
M274.739410,1.294385 
	C352.965851,1.000000 430.931702,1.022412 508.897430,0.920031 
	C512.096191,0.915831 513.109131,1.258982 513.106506,4.894102 
	C512.983948,172.987030 512.982422,341.080078 513.112976,509.173004 
	C513.115906,512.945740 511.889832,513.071960 508.830353,513.068726 
	C427.532745,512.982300 346.235016,513.000000 264.468658,513.000000 
	C262.177246,511.282990 262.527985,509.818848 264.560272,508.619629 
	C266.577179,507.429382 268.796295,506.671173 270.957397,505.806427 
	C310.861176,489.839264 350.670654,473.638153 390.512451,457.517944 
	C425.720551,443.272614 460.975311,429.141724 496.116089,414.729767 
	C504.776428,411.178009 505.368225,410.441467 503.644623,401.351349 
	C496.383850,363.058594 488.712036,324.845886 481.176300,286.606628 
	C480.251434,281.913483 478.005280,278.913055 473.310669,277.325348 
	C455.321899,271.241699 437.477570,264.735291 419.454285,258.748688 
	C416.949219,257.916626 414.370728,256.724426 411.914612,258.901154 
	C408.233826,262.163239 409.139740,267.486420 413.971344,269.251251 
	C421.479645,271.993805 428.992340,274.747345 436.590912,277.231567 
	C445.778107,280.235077 454.750336,283.858398 463.983704,286.703217 
	C467.991150,287.937988 469.873993,290.386505 470.676971,294.420837 
	C477.472260,328.561829 484.270905,362.701935 490.689758,396.916046 
	C491.786407,402.761597 491.216858,403.828461 485.726471,406.047821 
	C460.088409,416.411316 434.447540,426.768494 408.813721,437.142029 
	C371.908295,452.076996 334.983551,466.964508 298.073334,481.887604 
	C295.469452,482.940369 292.308624,485.548737 289.834595,482.663940 
	C287.154816,479.539154 290.817291,477.180054 292.319550,474.905365 
	C308.371216,450.599915 319.042206,423.916382 327.196564,396.143982 
	C334.306885,371.927460 338.750336,347.141388 340.203430,321.989044 
	C341.528625,299.050110 341.185730,276.046722 337.056976,253.292160 
	C336.728912,251.484039 336.509369,249.669434 336.327759,247.847763 
	C335.886322,243.420059 337.049469,242.314423 341.334106,243.352432 
	C347.015808,244.728851 352.309692,247.274734 357.867401,249.037277 
	C359.613831,249.591156 361.333771,250.226868 363.108124,250.694946 
	C366.402588,251.564072 368.642609,250.389618 369.825714,247.218384 
	C371.051880,243.931686 370.440033,241.234665 367.005127,239.789795 
	C362.860382,238.046295 358.609192,236.554474 354.356567,235.102448 
	C348.521515,233.110077 342.815460,230.749893 336.934937,228.911255 
	C332.857361,227.636337 329.946106,225.217499 327.990112,221.485611 
	C323.503754,212.925934 319.342163,204.203018 314.948395,195.599091 
	C313.115204,192.009354 315.070862,190.037933 317.183350,187.809143 
	C328.189087,176.197601 337.040131,163.211990 342.537842,148.074524 
	C357.678192,106.387024 348.712952,55.911060 313.551666,24.740898 
	C303.159637,15.528454 291.057373,9.347659 277.688293,5.634315 
	C275.631989,5.063168 273.052246,4.918180 274.739410,1.294385 
z"/>
<path fill="#000000" opacity="1.000000" stroke="none" 
	d="
M250.266754,512.713745 
	C168.369141,513.000000 86.738258,512.978821 5.107518,513.079041 
	C1.919216,513.082947 0.890344,512.756104 0.893014,509.110840 
	C1.016142,341.018005 1.017512,172.925049 0.887532,4.832214 
	C0.884623,1.070213 2.094222,0.926786 5.164445,0.930306 
	C82.463783,1.018933 159.763245,1.000000 237.531342,1.000000 
	C240.562775,4.203494 238.071228,4.942732 235.689972,5.673600 
	C224.604874,9.075874 214.184280,13.865273 205.018936,21.029240 
	C182.628799,38.530235 170.021637,61.856472 165.848358,89.615471 
	C161.050552,121.528435 167.834045,150.883484 187.494064,176.853699 
	C190.706253,181.096893 194.117249,185.219803 197.915558,188.969528 
	C199.987473,191.014938 200.331604,193.047104 198.994522,195.658310 
	C194.440186,204.552490 190.337692,213.673294 185.330368,222.342728 
	C183.464279,225.573563 180.888382,227.542145 177.427246,228.777832 
	C146.364410,239.867706 115.257477,250.832993 84.178040,261.875763 
	C69.580269,267.062500 54.978756,272.239563 40.382881,277.431641 
	C35.979607,278.997986 33.619926,281.796570 32.742085,286.351898 
	C25.366682,324.624268 17.799185,362.859161 10.219123,401.091553 
	C8.467432,409.926758 9.282174,411.256134 17.623274,414.627838 
	C83.573868,441.286713 149.473724,468.070953 215.468506,494.620850 
	C226.131149,498.910492 236.826813,503.130951 247.391693,507.659546 
	C249.269302,508.464355 252.454483,508.904083 250.266754,512.713745 
z"/>
<path fill="#A8237F" opacity="1.000000" stroke="none" 
	d="
M250.464645,513.000000 
	C250.817429,510.648315 248.512466,510.730194 247.546432,510.341583 
	C221.260361,499.767853 194.884338,489.417145 168.615585,478.800903 
	C135.801758,465.539551 103.090355,452.024872 70.295090,438.717163 
	C50.417133,430.651093 30.470135,422.754822 10.539195,414.819855 
	C7.130371,413.462738 5.316058,411.687714 6.167388,407.470673 
	C10.603393,385.497070 14.736390,363.462524 19.057873,341.465485 
	C22.402222,324.442261 26.301783,307.513977 29.104340,290.404205 
	C30.577124,281.412811 33.570408,276.436218 43.313091,273.419434 
	C69.566437,265.290253 95.234421,255.274277 121.151337,246.053833 
	C140.118759,239.305801 159.087784,232.560257 178.114304,225.981979 
	C182.148956,224.587006 183.216705,220.944107 184.881256,217.961563 
	C189.125473,210.356812 192.826782,202.449585 196.769089,194.675430 
	C197.585068,193.066299 197.538452,191.948227 196.058075,190.491776 
	C185.850281,180.448776 177.756287,168.933899 171.898911,155.799835 
	C167.250244,145.376083 164.333511,134.598099 162.912125,123.264671 
	C160.489822,103.950638 162.078201,85.132919 168.975739,66.910103 
	C181.206223,34.598072 202.838562,12.150507 236.866226,2.885900 
	C237.429321,2.732585 237.869537,2.127909 238.183548,1.366929 
	C250.020889,1.000000 262.041779,1.000000 274.531342,1.000000 
	C274.304810,2.877048 275.745300,2.733888 276.839722,2.987099 
	C297.560333,7.781128 313.869720,19.236065 327.305725,35.516266 
	C339.875916,50.747364 347.155243,68.250359 350.577301,87.388313 
	C352.975250,100.798988 352.679596,114.371178 350.597107,127.890434 
	C348.911499,138.833221 345.484253,149.262100 340.783661,159.165878 
	C337.069824,166.990601 332.449036,174.416214 326.581787,180.945755 
	C323.604584,184.259048 321.095795,188.010361 317.573853,190.807266 
	C316.218903,191.883316 316.394043,192.932297 317.051239,194.203445 
	C321.882965,203.548660 326.785980,212.858566 331.471100,222.276825 
	C332.483673,224.312332 334.065277,225.249863 335.893707,225.890839 
	C347.635040,230.007034 359.381195,234.114319 371.190613,238.028778 
	C374.865387,239.246857 375.832428,240.908066 373.934387,244.459305 
	C372.637573,246.885727 371.604370,249.582870 371.113220,252.279175 
	C370.403381,256.176483 368.312012,255.776306 365.600708,254.769012 
	C356.866608,251.524109 348.114899,248.326599 338.867523,244.926056 
	C351.374695,329.545410 336.990540,408.388947 291.829285,481.193909 
	C296.159851,480.863373 300.349182,478.316681 304.672241,476.575439 
	C350.885254,457.962036 397.018219,439.149902 443.177521,420.403046 
	C457.452209,414.605621 471.699860,408.737183 486.057648,403.152618 
	C488.769104,402.097961 488.964539,401.180328 488.426331,398.476776 
	C483.474426,373.600159 478.781006,348.672211 473.971405,323.767090 
	C472.017181,313.647766 469.895264,303.560486 467.996704,293.431030 
	C467.471100,290.626587 465.404205,289.858643 463.283569,289.129456 
	C445.479889,283.007690 427.676208,276.884521 409.824036,270.906433 
	C405.865295,269.580750 403.605072,268.285400 406.539001,263.697235 
	C408.583557,260.499817 407.665100,254.653702 411.219513,253.562149 
	C414.105133,252.675980 418.161102,255.667587 421.716644,256.884979 
	C440.756927,263.404327 459.792603,269.937469 478.859985,276.376617 
	C481.302643,277.201508 482.541504,278.483093 483.034088,281.102142 
	C486.420898,299.109528 489.971436,317.086060 493.452118,335.075867 
	C497.650299,356.774078 501.871277,378.468079 505.984894,400.182373 
	C506.767395,404.312897 509.924438,409.134430 507.260071,412.458282 
	C505.019684,415.253174 500.011658,415.842255 496.215851,417.375671 
	C463.276031,430.682526 430.308685,443.921600 397.397949,457.300079 
	C361.137909,472.040100 324.940308,486.933716 288.688446,501.694061 
	C281.416901,504.654755 274.005432,507.270569 266.706055,510.165527 
	C265.548553,510.624603 264.128540,510.987946 263.751709,512.677124 
	C259.643097,513.000000 255.286194,513.000000 250.464645,513.000000 
z"/>
<path fill="#A8237E" opacity="1.000000" stroke="none" 
	d="
M392.259827,245.645111 
	C398.123657,246.893616 398.289154,249.643112 396.386230,254.513565 
	C392.432404,264.633179 392.813995,264.635132 382.812653,260.495422 
	C380.290955,259.451630 379.354889,258.550232 380.507935,255.932968 
	C381.357025,254.005707 381.774200,251.891998 382.563812,249.933945 
	C385.164978,243.483780 385.196381,243.496445 392.259827,245.645111 
z"/>
<path fill="#000000" opacity="1.000000" stroke="none" 
	d="
M198.691162,437.301941 
	C205.252441,452.984009 213.302124,467.409485 223.724045,482.184143 
	C216.245392,479.235779 209.950012,476.794159 203.684906,474.277191 
	C172.698181,461.828247 141.700882,449.405365 110.743423,436.883972 
	C82.962723,425.647522 55.238415,414.271637 27.453678,403.045197 
	C25.538029,402.271149 24.803921,401.358521 25.206831,399.373444 
	C29.730574,377.085815 34.282890,354.803802 38.724533,332.499756 
	C41.248344,319.826263 43.717983,307.138245 45.899567,294.403229 
	C46.401562,291.472839 47.720570,290.216858 50.262295,289.324219 
	C77.580826,279.730438 104.886230,270.099091 132.177750,260.428711 
	C146.357544,255.404297 160.502518,250.281631 175.426743,244.929535 
	C164.117264,311.498016 172.886261,375.282715 198.691162,437.301941 
z"/>
<path fill="#000000" opacity="1.000000" stroke="none" 
	d="
M224.062714,25.990776 
	C248.814026,12.441706 280.076050,15.858344 301.599701,33.969109 
	C320.385345,49.776001 330.740143,69.817902 334.031250,93.868782 
	C337.474243,119.029633 332.630737,142.350403 318.232147,163.376450 
	C306.559082,180.422455 291.013611,192.495682 270.483368,196.621262 
	C247.686905,201.202240 227.585556,194.807770 210.130264,179.642944 
	C193.811661,165.465668 184.161072,147.314453 180.418076,126.398239 
	C176.915894,106.827728 178.519531,87.405434 186.570618,68.813774 
	C191.667877,57.043056 198.519791,46.564945 207.801300,37.688980 
	C212.588287,33.111153 218.166168,29.630743 224.062714,25.990776 
z"/>
<path fill="#000000" opacity="1.000000" stroke="none" 
	d="
M289.069641,273.722717 
	C287.974915,263.789520 287.268585,254.251297 285.724487,244.850647 
	C284.988739,240.371414 287.342194,236.985413 288.250763,233.176788 
	C290.294403,224.610458 293.479370,216.323013 295.877716,207.831085 
	C296.704895,204.902222 298.744904,203.671967 301.079865,203.199539 
	C303.823059,202.644501 303.710144,205.696609 304.564209,207.235458 
	C306.877991,211.404221 308.582733,215.927414 311.059723,219.986191 
	C318.944244,232.905930 321.883759,247.304367 323.945526,261.954712 
	C325.855652,275.527893 327.278748,289.208221 326.885437,302.899780 
	C326.261383,324.622620 323.931641,346.153168 319.357605,367.507385 
	C313.342682,395.588501 304.135040,422.429901 290.971008,447.896851 
	C283.310120,462.717529 274.105804,476.528870 262.160065,488.340057 
	C257.498199,492.949463 256.458679,492.950989 251.717010,488.208771 
	C235.756668,472.246521 224.979706,453.011444 215.752258,432.614807 
	C206.926025,413.105042 200.373550,392.925293 195.601486,372.127045 
	C192.483109,358.536194 189.955093,344.847900 188.917435,330.884888 
	C188.084503,319.676636 186.645279,308.484070 187.069305,297.244324 
	C187.844772,276.688599 189.184540,256.018860 195.369919,236.362320 
	C198.882080,225.201004 205.622574,215.060211 210.829102,204.420624 
	C211.379120,203.296631 212.123383,202.721634 213.093811,203.145950 
	C215.164536,204.051331 217.277328,204.820038 218.050156,207.514481 
	C220.574936,216.317017 222.753677,225.282974 226.133759,233.760147 
	C230.600067,244.961487 226.360687,255.688019 225.557114,266.571655 
	C224.881927,275.716492 223.222153,284.788513 222.000107,293.893005 
	C220.407440,305.758698 218.777359,317.619476 217.237839,329.492065 
	C216.097137,338.289062 215.110626,347.105988 213.990463,355.905762 
	C212.830429,365.018646 211.665131,374.132111 210.350510,383.223389 
	C209.857178,386.635040 210.231949,390.138458 209.059509,393.486847 
	C208.586487,394.837860 209.474609,395.963318 210.447815,396.991943 
	C214.887451,401.684601 219.204514,406.494049 223.678070,411.153564 
	C233.574936,421.461700 243.670166,431.583374 253.397430,442.047943 
	C256.367371,445.243042 257.951324,444.826660 260.722046,441.902954 
	C272.499847,429.475037 284.538025,417.294159 296.432709,404.976379 
	C298.951660,402.367828 301.175446,399.473053 303.710968,396.882141 
	C305.235229,395.324615 305.178589,393.574554 304.863007,391.790833 
	C302.717743,379.664948 301.540833,367.413208 299.963989,355.212677 
	C298.154297,341.210754 296.012329,327.251923 294.177948,313.252960 
	C292.661682,301.681732 291.356873,290.082336 290.031250,278.487091 
	C289.861359,277.001221 289.995544,275.492828 289.069641,273.722717 
z"/>
<path fill="#000000" opacity="1.000000" stroke="none" 
	d="
M277.760132,398.780090 
	C272.055695,405.749908 265.683563,411.593811 259.750183,417.853973 
	C257.599243,420.123413 256.343811,420.073761 254.235931,417.826202 
	C245.825134,408.857727 237.285751,400.007477 228.664612,391.240723 
	C227.012421,389.560608 226.781433,387.816284 227.122635,385.809296 
	C229.212219,373.518616 230.530807,361.129486 232.060471,348.763672 
	C233.791016,334.773956 236.022308,320.846985 237.889755,306.873169 
	C239.065369,298.076324 239.969650,289.243286 241.001373,280.427124 
	C242.013992,271.774323 242.990967,263.116943 244.081497,254.473892 
	C244.345078,252.384827 245.253448,250.876389 247.910675,250.944382 
	C253.905899,251.097748 259.911407,251.113953 265.905212,250.934875 
	C268.496918,250.857437 269.630676,252.151123 269.899017,254.291046 
	C271.329803,265.700317 272.563019,277.134583 274.024384,288.539764 
	C275.525818,300.258057 277.273773,311.944702 278.795898,323.660492 
	C279.959656,332.618103 280.915649,341.602509 282.007446,350.569702 
	C283.377625,361.822968 284.438293,373.132721 286.388672,384.285858 
	C287.028503,387.944794 286.679596,390.216675 284.021454,392.523987 
	C281.887970,394.375916 279.997864,396.508240 277.760132,398.780090 
z"/>
<path fill="#000000" opacity="1.000000" stroke="none" 
	d="
M245.058182,214.003799 
	C254.699844,216.033325 263.867218,215.103394 272.968842,213.445663 
	C275.614410,212.963806 276.374725,213.232544 275.539734,215.952484 
	C273.956055,221.111435 272.422302,226.288208 271.013855,231.497070 
	C270.538910,233.253616 269.604187,233.991486 267.878784,233.988907 
	C260.560394,233.978012 253.242004,233.986603 245.923645,233.972656 
	C244.157883,233.969284 243.406479,233.028122 242.961761,231.301727 
	C241.779572,226.712372 240.613510,222.086472 238.938690,217.665405 
	C237.213058,213.110199 238.363083,212.223434 242.632736,213.935364 
	C243.209747,214.166763 243.950760,213.989197 245.058182,214.003799 
z"/>
</svg>