<svg version="1.1" id="Layer_1" xmlns="http://www.w3.org/2000/svg" xmlns:xlink="http://www.w3.org/1999/xlink" x="0px" y="0px"
	 width="100%" viewBox="0 0 512 512" enable-background="new 0 0 512 512" xml:space="preserve">
<path fill="#000000" opacity="1.000000" stroke="none" 
	d="
M1.000000,385.000000 
	C1.000000,299.645782 1.000000,214.291550 1.468657,128.468643 
	C11.528178,127.999969 21.119043,127.999969 31.145794,127.999969 
	C31.145794,105.314636 31.145794,83.390007 31.145794,60.841316 
	C53.638950,60.841316 75.684929,60.841316 97.689659,60.841316 
	C97.689659,50.283207 97.689659,40.360039 97.689659,30.000000 
	C65.254288,30.000000 33.127144,30.000000 1.000000,30.000000 
	C1.000000,20.340755 1.000000,10.681509 1.000000,1.042143 
	C171.666672,1.042143 342.333344,1.042143 513.000000,1.042143 
	C513.000000,10.410419 513.000000,19.736551 512.531372,29.534107 
	C505.579285,30.001890 499.095825,29.995411 492.612366,29.995121 
	C468.507111,29.994040 444.401855,29.982414 420.296661,30.016447 
	C418.109009,30.019535 415.129639,29.249493 415.081970,32.872494 
	C414.960358,42.117252 415.041443,51.364677 415.041443,61.065079 
	C437.752777,61.065079 459.831329,61.065079 481.945160,61.527115 
	C482.041840,83.648933 482.103241,105.308708 482.342529,127.356552 
	C492.680298,127.829742 502.840149,127.914871 513.000000,128.000000 
	C513.000000,213.354233 513.000000,298.708466 512.531372,384.530884 
	C505.900391,384.999481 499.735687,384.895691 493.576782,385.040405 
	C490.024536,385.123840 486.481750,385.608765 482.591583,386.177429 
	C482.165649,388.420410 482.016052,390.398804 482.010315,392.377594 
	C481.952606,412.238892 481.918518,432.100281 481.416901,451.975159 
	C479.122833,451.991180 477.289612,451.995667 475.456390,451.995758 
	C456.957489,451.996552 438.457886,451.927734 419.960876,452.115601 
	C418.316833,452.132263 415.307343,453.764130 415.269531,454.736694 
	C414.909576,463.998230 415.054749,473.279449 415.054749,483.000000 
	C448.081238,483.000000 480.540619,483.000000 513.000000,483.000000 
	C513.000000,492.992340 513.000000,502.984711 513.000000,512.957520 
	C342.333313,512.957520 171.666656,512.957520 1.000000,512.957520 
	C1.000000,503.255829 1.000000,493.596588 1.468657,483.468658 
	C33.855778,483.000000 65.774239,483.000000 97.703278,483.000000 
	C97.703278,472.313416 97.703278,462.390991 97.703278,451.844055 
	C75.368927,451.844055 53.322754,451.844055 30.836029,451.844055 
	C30.836029,429.293518 30.836029,407.369202 30.836029,385.000000 
	C20.592045,385.000000 10.796022,385.000000 1.000000,385.000000 
M82.470467,201.013260 
	C81.277489,201.879425 79.965057,202.620895 78.910202,203.631271 
	C69.433105,212.708618 59.872112,221.704041 50.594288,230.982056 
	C42.170303,239.406219 34.068966,248.153030 25.744078,256.842468 
	C30.933765,262.516907 35.633537,268.078705 40.777676,273.193542 
	C51.972118,284.324219 63.021866,295.645996 74.825462,306.105682 
	C86.743881,316.667114 99.052864,326.906799 111.982353,336.184235 
	C141.538589,357.391998 173.599960,373.624573 209.364883,381.655518 
	C231.046234,386.524048 252.900604,388.179138 275.171417,386.194244 
	C292.611298,384.639923 309.788269,381.765900 326.023315,375.686493 
	C342.693848,369.444092 358.930084,361.764282 374.704498,353.473236 
	C396.888947,341.813110 416.755188,326.539612 435.397064,309.884247 
	C448.782196,297.925476 461.316162,285.004822 474.061096,272.343414 
	C478.964417,267.472168 483.400482,262.130615 488.019409,257.036530 
	C483.880859,252.377930 480.117249,247.743103 475.944275,243.512054 
	C456.375549,223.670853 436.833649,203.816879 414.509796,186.931717 
	C385.603485,165.067780 354.807953,146.866272 319.839630,136.406204 
	C293.365875,128.487122 266.491455,125.337418 238.825287,127.826408 
	C221.035965,129.426834 203.821976,133.116653 186.962418,138.642151 
	C167.035904,145.172806 148.015747,154.002136 130.575470,165.519211 
	C114.165512,176.355911 98.807640,188.785797 82.470467,201.013260 
z"/>
<path fill="#A8237F" opacity="1.000000" stroke="none" 
	d="
M481.909912,61.065079 
	C459.831329,61.065079 437.752777,61.065079 415.041443,61.065079 
	C415.041443,51.364677 414.960358,42.117252 415.081970,32.872494 
	C415.129639,29.249493 418.109009,30.019535 420.296661,30.016447 
	C444.401855,29.982414 468.507111,29.994040 492.612366,29.995121 
	C499.095825,29.995411 505.579285,30.001890 512.531372,30.002766 
	C513.000000,62.354229 513.000000,94.708458 513.000000,127.531342 
	C502.840149,127.914871 492.680298,127.829742 482.482300,126.972519 
	C482.619171,125.053894 482.944550,123.907616 482.946655,122.760750 
	C482.981537,103.801094 483.001526,84.841286 482.932678,65.881836 
	C482.926849,64.275032 482.266296,62.670609 481.909912,61.065079 
z"/>
<path fill="#A8237F" opacity="1.000000" stroke="none" 
	d="
M482.934692,385.912994 
	C486.481750,385.608765 490.024536,385.123840 493.576782,385.040405 
	C499.735687,384.895691 505.900391,384.999481 512.531372,384.999542 
	C513.000000,417.354218 513.000000,449.708466 513.000000,482.531342 
	C480.540619,483.000000 448.081238,483.000000 415.054749,483.000000 
	C415.054749,473.279449 414.909576,463.998230 415.269531,454.736694 
	C415.307343,453.764130 418.316833,452.132263 419.960876,452.115601 
	C438.457886,451.927734 456.957489,451.996552 475.456390,451.995758 
	C477.289612,451.995667 479.122833,451.991180 481.597198,451.606171 
	C482.490479,449.425690 482.958710,447.628143 482.961639,445.829773 
	C482.994232,425.857574 482.954712,405.885284 482.934692,385.912994 
z"/>
<path fill="#A8237F" opacity="1.000000" stroke="none" 
	d="
M1.000000,30.468658 
	C33.127144,30.000000 65.254288,30.000000 97.689659,30.000000 
	C97.689659,40.360039 97.689659,50.283207 97.689659,60.841316 
	C75.684929,60.841316 53.638950,60.841316 31.145794,60.841316 
	C31.145794,83.390007 31.145794,105.314636 31.145794,127.999969 
	C21.119043,127.999969 11.528178,127.999969 1.468657,127.999985 
	C1.000000,95.645775 1.000000,63.291542 1.000000,30.468658 
z"/>
<path fill="#A8237F" opacity="1.000000" stroke="none" 
	d="
M1.000000,385.468658 
	C10.796022,385.000000 20.592045,385.000000 30.836029,385.000000 
	C30.836029,407.369202 30.836029,429.293518 30.836029,451.844055 
	C53.322754,451.844055 75.368927,451.844055 97.703278,451.844055 
	C97.703278,462.390991 97.703278,472.313416 97.703278,483.000000 
	C65.774239,483.000000 33.855778,483.000000 1.468657,483.000000 
	C1.000000,450.645782 1.000000,418.291534 1.000000,385.468658 
z"/>
<path fill="#A8237F" opacity="1.000000" stroke="none" 
	d="
M82.728676,200.763992 
	C98.807640,188.785797 114.165512,176.355911 130.575470,165.519211 
	C148.015747,154.002136 167.035904,145.172806 186.962418,138.642151 
	C203.821976,133.116653 221.035965,129.426834 238.825287,127.826408 
	C266.491455,125.337418 293.365875,128.487122 319.839630,136.406204 
	C354.807953,146.866272 385.603485,165.067780 414.509796,186.931717 
	C436.833649,203.816879 456.375549,223.670853 475.944275,243.512054 
	C480.117249,247.743103 483.880859,252.377930 488.019409,257.036530 
	C483.400482,262.130615 478.964417,267.472168 474.061096,272.343414 
	C461.316162,285.004822 448.782196,297.925476 435.397064,309.884247 
	C416.755188,326.539612 396.888947,341.813110 374.704498,353.473236 
	C358.930084,361.764282 342.693848,369.444092 326.023315,375.686493 
	C309.788269,381.765900 292.611298,384.639923 275.171417,386.194244 
	C252.900604,388.179138 231.046234,386.524048 209.364883,381.655518 
	C173.599960,373.624573 141.538589,357.391998 111.982353,336.184235 
	C99.052864,326.906799 86.743881,316.667114 74.825462,306.105682 
	C63.021866,295.645996 51.972118,284.324219 40.777676,273.193542 
	C35.633537,268.078705 30.933765,262.516907 25.744078,256.842468 
	C34.068966,248.153030 42.170303,239.406219 50.594288,230.982056 
	C59.872112,221.704041 69.433105,212.708618 78.910202,203.631271 
	C79.965057,202.620895 81.277489,201.879425 82.728676,200.763992 
M341.918060,205.698425 
	C334.604401,194.318634 325.635223,184.251419 314.681671,176.506348 
	C292.359192,160.722549 267.242218,154.559753 240.227188,159.216293 
	C215.827240,163.422089 195.333435,175.576294 179.888016,194.875793 
	C161.500305,217.851761 154.390305,244.532410 159.214310,273.607422 
	C163.270203,298.052795 175.366272,318.727478 194.805679,333.983459 
	C222.464661,355.690094 253.698837,361.810181 287.614258,351.089417 
	C307.055786,344.943878 322.600525,333.234314 335.261017,317.324188 
	C347.614746,301.799591 354.191376,283.982666 355.850067,264.540741 
	C357.615631,243.845459 352.610840,224.391373 341.918060,205.698425 
M100.912277,226.464371 
	C97.836182,229.224442 94.711288,231.932358 91.693512,234.754791 
	C83.974075,241.974518 76.302330,249.245239 68.662781,256.447235 
	C82.354370,273.391388 128.357452,312.494965 141.520874,317.511475 
	C121.768013,277.124634 121.907478,236.729156 141.565216,196.291748 
	C141.153442,195.932434 140.741669,195.573135 140.329895,195.213821 
	C127.376221,205.480179 114.422546,215.746536 100.912277,226.464371 
M382.485657,222.109665 
	C391.141418,255.190186 387.782471,287.068390 372.678253,317.885254 
	C399.566345,300.572510 423.476074,280.117279 445.303192,256.960205 
	C423.198639,233.710800 399.455353,213.250732 372.796539,195.695190 
	C376.089355,204.780914 379.096741,213.078934 382.485657,222.109665 
z"/>
<path fill="#B6246D" opacity="1.000000" stroke="none" 
	d="
M481.945160,61.527115 
	C482.266296,62.670609 482.926849,64.275032 482.932678,65.881836 
	C483.001526,84.841286 482.981537,103.801094 482.946655,122.760750 
	C482.944550,123.907616 482.619171,125.053894 482.304413,126.584465 
	C482.103241,105.308708 482.041840,83.648933 481.945160,61.527115 
z"/>
<path fill="#B6246D" opacity="1.000000" stroke="none" 
	d="
M482.591614,386.177429 
	C482.954712,405.885284 482.994232,425.857574 482.961639,445.829773 
	C482.958710,447.628143 482.490479,449.425690 482.058044,451.592651 
	C481.918518,432.100281 481.952606,412.238892 482.010315,392.377594 
	C482.016052,390.398804 482.165649,388.420410 482.591614,386.177429 
z"/>
<path fill="#000000" opacity="1.000000" stroke="none" 
	d="
M342.007629,206.058914 
	C352.610840,224.391373 357.615631,243.845459 355.850067,264.540741 
	C354.191376,283.982666 347.614746,301.799591 335.261017,317.324188 
	C322.600525,333.234314 307.055786,344.943878 287.614258,351.089417 
	C253.698837,361.810181 222.464661,355.690094 194.805679,333.983459 
	C175.366272,318.727478 163.270203,298.052795 159.214310,273.607422 
	C154.390305,244.532410 161.500305,217.851761 179.888016,194.875793 
	C195.333435,175.576294 215.827240,163.422089 240.227188,159.216293 
	C267.242218,154.559753 292.359192,160.722549 314.681671,176.506348 
	C325.635223,184.251419 334.604401,194.318634 342.007629,206.058914 
M285.467133,216.976883 
	C267.727417,205.420471 249.351303,204.331924 231.294312,215.406250 
	C212.496674,226.934830 205.403519,244.416092 209.015076,266.093842 
	C214.283630,297.717499 248.238785,314.751648 277.487549,301.674591 
	C299.335144,291.906586 309.835968,268.965118 304.819366,246.028503 
	C302.251648,234.288498 296.190247,224.409241 285.467133,216.976883 
z"/>
<path fill="#000000" opacity="1.000000" stroke="none" 
	d="
M101.190575,226.238632 
	C114.422546,215.746536 127.376221,205.480179 140.329895,195.213821 
	C140.741669,195.573135 141.153442,195.932434 141.565216,196.291748 
	C121.907478,236.729156 121.768013,277.124634 141.520874,317.511475 
	C128.357452,312.494965 82.354370,273.391388 68.662781,256.447235 
	C76.302330,249.245239 83.974075,241.974518 91.693512,234.754791 
	C94.711288,231.932358 97.836182,229.224442 101.190575,226.238632 
z"/>
<path fill="#000000" opacity="1.000000" stroke="none" 
	d="
M382.294861,221.743317 
	C379.096741,213.078934 376.089355,204.780914 372.796539,195.695190 
	C399.455353,213.250732 423.198639,233.710800 445.303192,256.960205 
	C423.476074,280.117279 399.566345,300.572510 372.678253,317.885254 
	C387.782471,287.068390 391.141418,255.190186 382.294861,221.743317 
z"/>
<path fill="#A8237F" opacity="1.000000" stroke="none" 
	d="
M285.735901,217.222778 
	C296.190247,224.409241 302.251648,234.288498 304.819366,246.028503 
	C309.835968,268.965118 299.335144,291.906586 277.487549,301.674591 
	C248.238785,314.751648 214.283630,297.717499 209.015076,266.093842 
	C205.403519,244.416092 212.496674,226.934830 231.294312,215.406250 
	C249.351303,204.331924 267.727417,205.420471 285.735901,217.222778 
M245.690811,243.081924 
	C243.463943,247.146790 240.080429,250.991440 239.255646,255.323273 
	C237.634720,263.836548 243.685684,271.513123 252.766388,274.326477 
	C260.127106,276.606964 268.493988,272.928436 272.761719,265.535553 
	C276.687347,258.735260 275.152771,249.029587 269.333649,243.854492 
	C262.431091,237.715881 253.827744,237.354523 245.690811,243.081924 
z"/>
<path fill="#000000" opacity="1.000000" stroke="none" 
	d="
M246.054688,242.986954 
	C253.827744,237.354523 262.431091,237.715881 269.333649,243.854492 
	C275.152771,249.029587 276.687347,258.735260 272.761719,265.535553 
	C268.493988,272.928436 260.127106,276.606964 252.766388,274.326477 
	C243.685684,271.513123 237.634720,263.836548 239.255646,255.323273 
	C240.080429,250.991440 243.463943,247.146790 246.054688,242.986954 
z"/>
</svg>