<svg version="1.1" id="Layer_1" xmlns="http://www.w3.org/2000/svg" xmlns:xlink="http://www.w3.org/1999/xlink" x="0px" y="0px"
	 width="100%" viewBox="0 0 512 512" enable-background="new 0 0 512 512" xml:space="preserve">
<path fill="#000000" opacity="1.000000" stroke="none" 
	d="
M1.000000,183.000000 
	C1.000000,122.000000 1.000000,61.500000 1.000000,1.000000 
	C171.666672,1.000000 342.333344,1.000000 513.000000,1.000000 
	C513.000000,171.666672 513.000000,342.333344 513.000000,513.000000 
	C342.333344,513.000000 171.666672,513.000000 1.000000,513.000000 
	C1.000000,403.166656 1.000000,293.333344 1.000000,183.000000 
M502.999817,23.514956 
	C502.999817,19.429441 502.999817,15.343925 502.999817,11.318666 
	C374.278229,11.318666 246.357925,11.318666 118.000038,11.318666 
	C118.000038,13.763798 118.000023,15.895407 118.000023,18.027016 
	C117.999977,161.358627 118.039505,304.690277 117.939339,448.021820 
	C117.929199,462.524231 112.839806,475.317230 102.637268,485.851776 
	C92.714745,496.097229 80.179939,500.723511 66.363976,502.998383 
	C68.276062,502.998383 70.188141,502.998352 72.100227,502.998352 
	C195.932068,502.998840 319.763916,503.009521 443.595734,502.958618 
	C448.031616,502.956787 452.491974,502.543732 456.898926,501.988831 
	C484.232483,498.547241 502.833588,476.055847 502.880920,449.505829 
	C503.133331,307.841339 502.999817,166.176132 502.999817,23.514956 
M86.999741,216.500000 
	C86.999741,190.763092 86.999741,165.026184 86.999741,139.294769 
	C61.307747,139.294769 36.396637,139.294769 11.000289,139.294769 
	C11.000289,141.706940 11.000290,143.831100 11.000289,145.955261 
	C11.000282,243.397598 10.987761,340.839935 11.042201,438.282227 
	C11.044586,442.552826 11.221272,446.911774 12.063189,451.078766 
	C16.664886,473.854370 36.137676,484.728943 57.563511,480.486084 
	C75.819939,476.870819 86.998238,461.124054 86.998802,442.366943 
	C87.001068,367.411285 86.999741,292.455658 86.999741,216.500000 
z"/>
<path fill="#A8237F" opacity="1.000000" stroke="none" 
	d="
M502.999817,24.013065 
	C502.999817,166.176132 503.133331,307.841339 502.880920,449.505829 
	C502.833588,476.055847 484.232483,498.547241 456.898926,501.988831 
	C452.491974,502.543732 448.031616,502.956787 443.595734,502.958618 
	C319.763916,503.009521 195.932068,502.998840 72.100227,502.998352 
	C70.188141,502.998352 68.276062,502.998383 66.363976,502.998383 
	C80.179939,500.723511 92.714745,496.097229 102.637268,485.851776 
	C112.839806,475.317230 117.929199,462.524231 117.939339,448.021820 
	C118.039505,304.690277 117.999977,161.358627 118.000023,18.027016 
	C118.000023,15.895407 118.000038,13.763798 118.000038,11.318666 
	C246.357925,11.318666 374.278229,11.318666 502.999817,11.318666 
	C502.999817,15.343925 502.999817,19.429441 502.999817,24.013065 
M302.410339,198.039673 
	C301.606903,201.143585 300.111084,204.245667 300.102966,207.351669 
	C299.960541,261.813568 300.129608,316.276520 299.879486,370.737640 
	C299.834900,380.441864 304.683838,384.923950 313.942261,384.950409 
	C353.914246,385.064697 393.887878,385.166626 433.858276,384.890961 
	C444.932617,384.814606 448.843964,380.949982 448.892548,369.851715 
	C449.128845,315.890137 449.144653,261.926239 448.879395,207.964935 
	C448.824829,196.865967 444.996735,193.217697 434.168243,193.130112 
	C394.032013,192.805481 353.891510,192.967850 313.752808,193.051514 
	C309.691071,193.059967 305.566711,193.614548 302.410339,198.039673 
M376.500000,449.000031 
	C310.504303,449.000031 244.508606,449.000000 178.512909,449.000397 
	C177.179672,449.000427 175.840775,448.926575 174.514145,449.021637 
	C167.331970,449.536224 162.564911,452.985718 162.010818,458.015015 
	C161.183075,465.528137 165.612030,469.995941 173.951294,469.996490 
	C260.945709,470.002075 347.940094,469.999969 434.934509,469.999329 
	C435.934418,469.999329 436.942871,470.074707 437.932861,469.973389 
	C443.481110,469.405762 447.773499,465.566071 447.998291,461.022614 
	C448.314514,454.630432 445.843994,451.419189 439.274841,449.993988 
	C436.889130,449.476410 434.426056,449.053253 431.996307,449.042786 
	C413.831146,448.964294 395.665497,449.000061 376.500000,449.000031 
M233.500000,171.000198 
	C301.446533,171.000137 369.393066,171.003082 437.339600,170.995544 
	C444.309784,170.994766 448.017731,167.463364 447.999451,160.931427 
	C447.981354,154.465897 444.243103,151.003799 437.202728,151.003357 
	C349.105438,150.997940 261.008148,150.998199 172.910858,151.002823 
	C165.766861,151.003189 162.045105,154.372864 162.002380,160.818207 
	C161.957642,167.565201 165.662704,170.994583 173.046814,170.997482 
	C192.864548,171.005249 212.682266,171.000168 233.500000,171.000198 
M341.500000,427.000183 
	C373.641357,427.000061 405.782715,427.012848 437.924072,426.988953 
	C444.430817,426.984131 448.038300,423.284882 447.999481,416.846558 
	C447.962860,410.770294 444.276154,407.013977 438.117065,407.012726 
	C349.353607,406.994537 260.590149,406.985779 171.826828,407.087494 
	C169.698364,407.089935 167.268326,407.952240 165.504379,409.172821 
	C161.350159,412.047455 161.068436,416.581543 162.507797,420.789246 
	C163.945496,424.992188 167.323318,427.060059 172.132629,427.052948 
	C228.254990,426.970154 284.377502,427.000061 341.500000,427.000183 
M183.506744,54.035767 
	C182.319519,52.255867 181.175018,50.445633 179.936996,48.701801 
	C176.305817,43.587097 170.324799,42.821140 165.377579,46.805317 
	C161.359909,50.040882 161.095154,54.718864 161.059723,59.223469 
	C160.916946,77.374130 160.943237,95.526947 161.061920,113.677956 
	C161.079834,116.418831 161.188004,119.622696 162.566147,121.770874 
	C164.198792,124.315773 166.960999,126.815468 169.764328,127.760475 
	C173.391693,128.983276 177.534378,128.162003 179.428711,124.028305 
	C180.681610,121.294312 181.766052,118.233849 181.885605,115.277473 
	C182.215820,107.111061 181.999863,98.922554 181.999863,89.515213 
	C183.654465,91.359169 184.395096,92.014603 184.931534,92.808090 
	C191.995148,103.256416 198.929611,113.793800 206.115036,124.157303 
	C209.623795,129.217957 214.327271,130.218903 219.333145,127.410553 
	C224.990265,124.236855 224.729797,118.894287 224.855408,114.098007 
	C225.247650,99.120560 225.085709,84.125595 224.954498,69.139030 
	C224.906952,63.709595 224.602829,58.252453 223.943420,52.865776 
	C223.086838,45.868111 215.895874,42.378696 209.729828,45.621105 
	C205.595673,47.795044 204.049179,51.404537 204.019287,55.793758 
	C203.957611,64.850792 204.000717,73.908524 204.000717,82.965973 
	C203.628754,83.066666 203.256775,83.167366 202.884811,83.268059 
	C196.565826,73.722626 190.246857,64.177193 183.506744,54.035767 
M266.535065,75.999969 
	C263.444336,75.999969 260.353638,75.999969 257.301880,75.999969 
	C257.301880,71.968704 257.301880,68.710846 257.301880,64.999893 
	C266.053497,64.999893 274.511292,65.069649 282.966614,64.955978 
	C285.397491,64.923294 287.860352,64.537552 290.240753,64.008514 
	C296.798340,62.551125 299.653961,58.868385 298.988281,53.021072 
	C298.433746,48.150181 293.453430,44.062817 287.660095,44.026569 
	C274.835541,43.946331 262.010132,43.993675 249.185089,44.002426 
	C240.211334,44.008545 236.004440,48.297863 236.001724,57.438374 
	C235.996094,76.426109 236.328903,95.421867 235.865631,114.398300 
	C235.622452,124.358849 240.651047,128.944382 250.605972,128.988937 
	C261.265564,129.036652 271.926270,129.071655 282.584747,128.953079 
	C285.514130,128.920502 288.495178,128.574692 291.352020,127.928490 
	C299.052002,126.186783 301.922211,117.197632 296.135986,111.931046 
	C293.734924,109.745621 289.833344,108.338318 286.534454,108.173676 
	C276.803772,107.688034 267.033234,108.000259 257.294250,108.000259 
	C257.294250,103.981300 257.294250,100.725136 257.294250,96.999931 
	C259.699219,96.999931 261.833679,97.092804 263.957520,96.981766 
	C269.384705,96.697998 274.860596,96.679932 280.215454,95.877808 
	C284.913361,95.174095 287.574554,91.976753 288.023804,87.042145 
	C288.502167,81.787796 286.033081,78.230476 281.250244,77.128975 
	C276.819763,76.108635 272.103943,76.327049 266.535065,75.999969 
M374.000000,87.500000 
	C373.999268,76.674881 374.083374,65.848824 373.962982,55.025040 
	C373.899933,49.354980 368.795288,43.971710 363.901764,44.024853 
	C358.288818,44.085812 353.916290,48.912437 353.919525,55.124607 
	C353.925110,65.948616 354.002228,76.772720 353.965424,87.596497 
	C353.959808,89.244949 353.503571,90.891876 353.062592,93.823921 
	C345.489594,83.968559 338.525665,85.375099 331.304291,94.198654 
	C331.153870,91.090309 331.013336,89.504181 331.010529,87.917809 
	C330.990448,76.593056 331.070679,65.267578 330.964233,53.943787 
	C330.917328,48.954842 325.895721,44.094006 321.087585,44.023819 
	C316.339264,43.954502 311.065216,48.829662 311.044037,53.768547 
	C310.951935,75.251923 310.959412,96.736092 311.044403,118.219528 
	C311.060303,122.239021 312.626190,125.672890 316.706665,127.219597 
	C320.826294,128.781143 324.792419,128.666946 328.147644,125.350983 
	C332.003174,121.540596 335.905304,117.771332 339.619751,113.826523 
	C341.689056,111.628860 343.270386,111.548027 345.359741,113.806068 
	C348.816925,117.542404 352.591003,120.985153 356.056458,124.714325 
	C359.436920,128.352020 363.749817,129.206818 367.810822,127.374031 
	C372.519623,125.248878 374.086334,120.642784 374.028015,115.479309 
	C373.926453,106.487251 373.999908,97.493210 374.000000,87.500000 
M405.556213,128.999939 
	C412.151398,128.669724 418.764771,128.545807 425.337952,127.965981 
	C438.689972,126.788177 446.900818,115.864670 447.968567,106.142105 
	C449.855194,88.962982 438.624878,79.325821 428.392029,77.168106 
	C422.971191,76.025055 417.245819,76.290031 411.653351,76.009956 
	C407.795044,75.816742 406.021484,73.832825 405.995361,70.038216 
	C405.968414,66.121933 408.075714,64.907997 411.705719,64.963692 
	C419.527863,65.083702 427.382782,65.421822 435.168884,64.877708 
	C443.134857,64.321014 447.207397,61.723545 448.013916,55.325741 
	C448.813660,48.981640 444.850220,44.615158 438.785522,44.308041 
	C427.748016,43.749092 416.501770,43.765663 405.589386,45.298660 
	C395.090332,46.773605 384.108246,57.225304 386.035980,74.164444 
	C387.135193,83.823463 395.133087,94.659935 408.681732,95.988319 
	C413.432526,96.454109 418.203461,96.808052 422.973145,96.955772 
	C426.248840,97.057220 427.736237,98.455505 428.038025,101.711525 
	C428.469513,106.367470 426.057098,107.979805 421.915253,107.991066 
	C413.591919,108.013687 405.266663,107.895477 396.945740,108.039131 
	C391.196167,108.138390 386.350403,112.093826 386.005615,116.583099 
	C385.501129,123.150604 388.015198,126.593758 394.816895,127.992088 
	C398.005402,128.647614 401.321289,128.683334 405.556213,128.999939 
M182.514374,214.000015 
	C203.314133,214.000015 224.113907,214.000198 244.913666,213.999908 
	C252.235184,213.999802 259.557770,214.074738 266.877838,213.971634 
	C271.939392,213.900345 276.428406,210.277374 277.767914,205.479172 
	C278.662781,202.273727 276.078186,196.630508 272.209869,194.930832 
	C269.463898,193.724258 266.242615,193.094147 263.229340,193.079773 
	C235.108719,192.945480 206.987122,192.970993 178.866058,193.043594 
	C175.941849,193.051147 172.978638,193.460419 170.104263,194.036346 
	C164.125168,195.234375 161.408600,199.265656 162.008102,205.622940 
	C162.416046,209.949051 166.988113,213.818863 172.037750,213.979126 
	C175.196152,214.079346 178.360275,213.999222 182.514374,214.000015 
M174.894363,321.003418 
	C172.652252,321.446381 170.331070,321.655396 168.184494,322.380951 
	C163.715820,323.891449 161.239548,328.815552 162.016006,334.105865 
	C162.674637,338.593353 167.317703,341.984589 173.023331,341.989227 
	C201.318390,342.012115 229.613480,342.000061 257.908569,341.999725 
	C261.070953,341.999695 264.238861,342.113983 267.394409,341.966217 
	C272.097565,341.746002 276.518005,338.029205 277.776520,333.458740 
	C278.659241,330.252960 276.050812,324.593506 272.191833,322.913055 
	C269.439362,321.714508 266.217560,321.092346 263.201294,321.078827 
	C234.074600,320.947906 204.947083,321.000610 174.894363,321.003418 
M185.512436,256.999939 
	C202.511246,256.999939 219.510071,257.000122 236.508881,256.999878 
	C245.841553,256.999725 255.175034,257.071655 264.506561,256.968811 
	C269.458771,256.914276 273.884216,255.434479 276.557404,250.852310 
	C278.580078,247.385269 278.589050,243.354782 275.735748,240.886948 
	C272.986816,238.509369 269.013580,236.263870 265.543060,236.209595 
	C240.550934,235.818649 215.549866,235.999603 190.551636,236.000290 
	C184.552078,236.000458 178.547333,235.850815 172.554474,236.052368 
	C167.043137,236.237747 162.373367,240.167023 162.006760,244.492661 
	C161.451691,251.041611 164.010834,254.749649 170.750412,255.947800 
	C175.259689,256.749451 179.923874,256.679749 185.512436,256.999939 
M190.501007,384.999939 
	C203.833115,384.999939 217.165237,385.000153 230.497345,384.999878 
	C241.829636,384.999664 253.162521,385.067474 264.493927,384.966614 
	C269.438019,384.922638 273.880890,383.454834 276.547546,378.861237 
	C278.555420,375.402405 278.622559,371.374725 275.744751,368.896393 
	C272.988464,366.522675 269.025635,364.266998 265.556366,364.210388 
	C241.231735,363.813660 216.897629,363.999603 192.566544,364.000336 
	C185.900497,364.000549 179.229965,363.854340 172.569809,364.053619 
	C167.043640,364.219025 162.379883,368.144714 162.006943,372.476868 
	C161.443146,379.026062 163.994003,382.918701 170.736588,383.911957 
	C176.911102,384.821533 183.240616,384.678925 190.501007,384.999939 
M222.500000,299.000183 
	C237.320984,299.000031 252.142014,299.020233 266.962921,298.989532 
	C272.764740,298.977509 277.790924,294.448547 277.975220,289.191040 
	C278.160187,283.914215 272.859131,279.012238 266.837555,279.008698 
	C235.363770,278.990204 203.889969,278.991852 172.416183,279.006561 
	C165.746567,279.009674 162.045227,282.535919 162.002365,288.812531 
	C161.957062,295.446472 165.589676,298.986633 172.540771,298.994263 
	C188.860504,299.012207 205.180252,299.000122 222.500000,299.000183 
z"/>
<path fill="#A8237F" opacity="1.000000" stroke="none" 
	d="
M86.999741,217.000000 
	C86.999741,292.455658 87.001068,367.411285 86.998802,442.366943 
	C86.998238,461.124054 75.819939,476.870819 57.563511,480.486084 
	C36.137676,484.728943 16.664886,473.854370 12.063189,451.078766 
	C11.221272,446.911774 11.044586,442.552826 11.042201,438.282227 
	C10.987761,340.839935 11.000282,243.397598 11.000289,145.955261 
	C11.000290,143.831100 11.000289,141.706940 11.000289,139.294769 
	C36.396637,139.294769 61.307747,139.294769 86.999741,139.294769 
	C86.999741,165.026184 86.999741,190.763092 86.999741,217.000000 
z"/>
<path fill="#000000" opacity="1.000000" stroke="none" 
	d="
M302.653503,197.729034 
	C305.566711,193.614548 309.691071,193.059967 313.752808,193.051514 
	C353.891510,192.967850 394.032013,192.805481 434.168243,193.130112 
	C444.996735,193.217697 448.824829,196.865967 448.879395,207.964935 
	C449.144653,261.926239 449.128845,315.890137 448.892548,369.851715 
	C448.843964,380.949982 444.932617,384.814606 433.858276,384.890961 
	C393.887878,385.166626 353.914246,385.064697 313.942261,384.950409 
	C304.683838,384.923950 299.834900,380.441864 299.879486,370.737640 
	C300.129608,316.276520 299.960541,261.813568 300.102966,207.351669 
	C300.111084,204.245667 301.606903,201.143585 302.653503,197.729034 
M380.500000,363.999939 
	C396.247101,363.999939 411.994202,363.999939 427.687256,363.999939 
	C427.687256,313.612396 427.687256,264.030396 427.687256,214.402451 
	C392.004578,214.402451 356.636108,214.402451 321.312622,214.402451 
	C321.312622,264.387482 321.312622,313.969513 321.312622,363.999939 
	C340.914703,363.999939 360.207367,363.999939 380.500000,363.999939 
z"/>
<path fill="#000000" opacity="1.000000" stroke="none" 
	d="
M377.000000,449.000031 
	C395.665497,449.000061 413.831146,448.964294 431.996307,449.042786 
	C434.426056,449.053253 436.889130,449.476410 439.274841,449.993988 
	C445.843994,451.419189 448.314514,454.630432 447.998291,461.022614 
	C447.773499,465.566071 443.481110,469.405762 437.932861,469.973389 
	C436.942871,470.074707 435.934418,469.999329 434.934509,469.999329 
	C347.940094,469.999969 260.945709,470.002075 173.951294,469.996490 
	C165.612030,469.995941 161.183075,465.528137 162.010818,458.015015 
	C162.564911,452.985718 167.331970,449.536224 174.514145,449.021637 
	C175.840775,448.926575 177.179672,449.000427 178.512909,449.000397 
	C244.508606,449.000000 310.504303,449.000031 377.000000,449.000031 
z"/>
<path fill="#000000" opacity="1.000000" stroke="none" 
	d="
M233.000000,171.000198 
	C212.682266,171.000168 192.864548,171.005249 173.046814,170.997482 
	C165.662704,170.994583 161.957642,167.565201 162.002380,160.818207 
	C162.045105,154.372864 165.766861,151.003189 172.910858,151.002823 
	C261.008148,150.998199 349.105438,150.997940 437.202728,151.003357 
	C444.243103,151.003799 447.981354,154.465897 447.999451,160.931427 
	C448.017731,167.463364 444.309784,170.994766 437.339600,170.995544 
	C369.393066,171.003082 301.446533,171.000137 233.000000,171.000198 
z"/>
<path fill="#000000" opacity="1.000000" stroke="none" 
	d="
M341.000000,427.000183 
	C284.377502,427.000061 228.254990,426.970154 172.132629,427.052948 
	C167.323318,427.060059 163.945496,424.992188 162.507797,420.789246 
	C161.068436,416.581543 161.350159,412.047455 165.504379,409.172821 
	C167.268326,407.952240 169.698364,407.089935 171.826828,407.087494 
	C260.590149,406.985779 349.353607,406.994537 438.117065,407.012726 
	C444.276154,407.013977 447.962860,410.770294 447.999481,416.846558 
	C448.038300,423.284882 444.430817,426.984131 437.924072,426.988953 
	C405.782715,427.012848 373.641357,427.000061 341.000000,427.000183 
z"/>
<path fill="#000000" opacity="1.000000" stroke="none" 
	d="
M183.717316,54.333763 
	C190.246857,64.177193 196.565826,73.722626 202.884811,83.268059 
	C203.256775,83.167366 203.628754,83.066666 204.000717,82.965973 
	C204.000717,73.908524 203.957611,64.850792 204.019287,55.793758 
	C204.049179,51.404537 205.595673,47.795044 209.729828,45.621105 
	C215.895874,42.378696 223.086838,45.868111 223.943420,52.865776 
	C224.602829,58.252453 224.906952,63.709595 224.954498,69.139030 
	C225.085709,84.125595 225.247650,99.120560 224.855408,114.098007 
	C224.729797,118.894287 224.990265,124.236855 219.333145,127.410553 
	C214.327271,130.218903 209.623795,129.217957 206.115036,124.157303 
	C198.929611,113.793800 191.995148,103.256416 184.931534,92.808090 
	C184.395096,92.014603 183.654465,91.359169 181.999863,89.515213 
	C181.999863,98.922554 182.215820,107.111061 181.885605,115.277473 
	C181.766052,118.233849 180.681610,121.294312 179.428711,124.028305 
	C177.534378,128.162003 173.391693,128.983276 169.764328,127.760475 
	C166.960999,126.815468 164.198792,124.315773 162.566147,121.770874 
	C161.188004,119.622696 161.079834,116.418831 161.061920,113.677956 
	C160.943237,95.526947 160.916946,77.374130 161.059723,59.223469 
	C161.095154,54.718864 161.359909,50.040882 165.377579,46.805317 
	C170.324799,42.821140 176.305817,43.587097 179.936996,48.701801 
	C181.175018,50.445633 182.319519,52.255867 183.717316,54.333763 
z"/>
<path fill="#000000" opacity="1.000000" stroke="none" 
	d="
M267.024414,75.999969 
	C272.103943,76.327049 276.819763,76.108635 281.250244,77.128975 
	C286.033081,78.230476 288.502167,81.787796 288.023804,87.042145 
	C287.574554,91.976753 284.913361,95.174095 280.215454,95.877808 
	C274.860596,96.679932 269.384705,96.697998 263.957520,96.981766 
	C261.833679,97.092804 259.699219,96.999931 257.294250,96.999931 
	C257.294250,100.725136 257.294250,103.981300 257.294250,108.000259 
	C267.033234,108.000259 276.803772,107.688034 286.534454,108.173676 
	C289.833344,108.338318 293.734924,109.745621 296.135986,111.931046 
	C301.922211,117.197632 299.052002,126.186783 291.352020,127.928490 
	C288.495178,128.574692 285.514130,128.920502 282.584747,128.953079 
	C271.926270,129.071655 261.265564,129.036652 250.605972,128.988937 
	C240.651047,128.944382 235.622452,124.358849 235.865631,114.398300 
	C236.328903,95.421867 235.996094,76.426109 236.001724,57.438374 
	C236.004440,48.297863 240.211334,44.008545 249.185089,44.002426 
	C262.010132,43.993675 274.835541,43.946331 287.660095,44.026569 
	C293.453430,44.062817 298.433746,48.150181 298.988281,53.021072 
	C299.653961,58.868385 296.798340,62.551125 290.240753,64.008514 
	C287.860352,64.537552 285.397491,64.923294 282.966614,64.955978 
	C274.511292,65.069649 266.053497,64.999893 257.301880,64.999893 
	C257.301880,68.710846 257.301880,71.968704 257.301880,75.999969 
	C260.353638,75.999969 263.444336,75.999969 267.024414,75.999969 
z"/>
<path fill="#000000" opacity="1.000000" stroke="none" 
	d="
M374.000000,88.000000 
	C373.999908,97.493210 373.926453,106.487251 374.028015,115.479309 
	C374.086334,120.642784 372.519623,125.248878 367.810822,127.374031 
	C363.749817,129.206818 359.436920,128.352020 356.056458,124.714325 
	C352.591003,120.985153 348.816925,117.542404 345.359741,113.806068 
	C343.270386,111.548027 341.689056,111.628860 339.619751,113.826523 
	C335.905304,117.771332 332.003174,121.540596 328.147644,125.350983 
	C324.792419,128.666946 320.826294,128.781143 316.706665,127.219597 
	C312.626190,125.672890 311.060303,122.239021 311.044403,118.219528 
	C310.959412,96.736092 310.951935,75.251923 311.044037,53.768547 
	C311.065216,48.829662 316.339264,43.954502 321.087585,44.023819 
	C325.895721,44.094006 330.917328,48.954842 330.964233,53.943787 
	C331.070679,65.267578 330.990448,76.593056 331.010529,87.917809 
	C331.013336,89.504181 331.153870,91.090309 331.304291,94.198654 
	C338.525665,85.375099 345.489594,83.968559 353.062592,93.823921 
	C353.503571,90.891876 353.959808,89.244949 353.965424,87.596497 
	C354.002228,76.772720 353.925110,65.948616 353.919525,55.124607 
	C353.916290,48.912437 358.288818,44.085812 363.901764,44.024853 
	C368.795288,43.971710 373.899933,49.354980 373.962982,55.025040 
	C374.083374,65.848824 373.999268,76.674881 374.000000,88.000000 
z"/>
<path fill="#000000" opacity="1.000000" stroke="none" 
	d="
M405.067841,128.999939 
	C401.321289,128.683334 398.005402,128.647614 394.816895,127.992088 
	C388.015198,126.593758 385.501129,123.150604 386.005615,116.583099 
	C386.350403,112.093826 391.196167,108.138390 396.945740,108.039131 
	C405.266663,107.895477 413.591919,108.013687 421.915253,107.991066 
	C426.057098,107.979805 428.469513,106.367470 428.038025,101.711525 
	C427.736237,98.455505 426.248840,97.057220 422.973145,96.955772 
	C418.203461,96.808052 413.432526,96.454109 408.681732,95.988319 
	C395.133087,94.659935 387.135193,83.823463 386.035980,74.164444 
	C384.108246,57.225304 395.090332,46.773605 405.589386,45.298660 
	C416.501770,43.765663 427.748016,43.749092 438.785522,44.308041 
	C444.850220,44.615158 448.813660,48.981640 448.013916,55.325741 
	C447.207397,61.723545 443.134857,64.321014 435.168884,64.877708 
	C427.382782,65.421822 419.527863,65.083702 411.705719,64.963692 
	C408.075714,64.907997 405.968414,66.121933 405.995361,70.038216 
	C406.021484,73.832825 407.795044,75.816742 411.653351,76.009956 
	C417.245819,76.290031 422.971191,76.025055 428.392029,77.168106 
	C438.624878,79.325821 449.855194,88.962982 447.968567,106.142105 
	C446.900818,115.864670 438.689972,126.788177 425.337952,127.965981 
	C418.764771,128.545807 412.151398,128.669724 405.067841,128.999939 
z"/>
<path fill="#000000" opacity="1.000000" stroke="none" 
	d="
M182.018097,214.000015 
	C178.360275,213.999222 175.196152,214.079346 172.037750,213.979126 
	C166.988113,213.818863 162.416046,209.949051 162.008102,205.622940 
	C161.408600,199.265656 164.125168,195.234375 170.104263,194.036346 
	C172.978638,193.460419 175.941849,193.051147 178.866058,193.043594 
	C206.987122,192.970993 235.108719,192.945480 263.229340,193.079773 
	C266.242615,193.094147 269.463898,193.724258 272.209869,194.930832 
	C276.078186,196.630508 278.662781,202.273727 277.767914,205.479172 
	C276.428406,210.277374 271.939392,213.900345 266.877838,213.971634 
	C259.557770,214.074738 252.235184,213.999802 244.913666,213.999908 
	C224.113907,214.000198 203.314133,214.000015 182.018097,214.000015 
z"/>
<path fill="#000000" opacity="1.000000" stroke="none" 
	d="
M175.357086,321.002136 
	C204.947083,321.000610 234.074600,320.947906 263.201294,321.078827 
	C266.217560,321.092346 269.439362,321.714508 272.191833,322.913055 
	C276.050812,324.593506 278.659241,330.252960 277.776520,333.458740 
	C276.518005,338.029205 272.097565,341.746002 267.394409,341.966217 
	C264.238861,342.113983 261.070953,341.999695 257.908569,341.999725 
	C229.613480,342.000061 201.318390,342.012115 173.023331,341.989227 
	C167.317703,341.984589 162.674637,338.593353 162.016006,334.105865 
	C161.239548,328.815552 163.715820,323.891449 168.184494,322.380951 
	C170.331070,321.655396 172.652252,321.446381 175.357086,321.002136 
z"/>
<path fill="#000000" opacity="1.000000" stroke="none" 
	d="
M185.015594,256.999939 
	C179.923874,256.679749 175.259689,256.749451 170.750412,255.947800 
	C164.010834,254.749649 161.451691,251.041611 162.006760,244.492661 
	C162.373367,240.167023 167.043137,236.237747 172.554474,236.052368 
	C178.547333,235.850815 184.552078,236.000458 190.551636,236.000290 
	C215.549866,235.999603 240.550934,235.818649 265.543060,236.209595 
	C269.013580,236.263870 272.986816,238.509369 275.735748,240.886948 
	C278.589050,243.354782 278.580078,247.385269 276.557404,250.852310 
	C273.884216,255.434479 269.458771,256.914276 264.506561,256.968811 
	C255.175034,257.071655 245.841553,256.999725 236.508881,256.999878 
	C219.510071,257.000122 202.511246,256.999939 185.015594,256.999939 
z"/>
<path fill="#000000" opacity="1.000000" stroke="none" 
	d="
M190.001419,384.999939 
	C183.240616,384.678925 176.911102,384.821533 170.736588,383.911957 
	C163.994003,382.918701 161.443146,379.026062 162.006943,372.476868 
	C162.379883,368.144714 167.043640,364.219025 172.569809,364.053619 
	C179.229965,363.854340 185.900497,364.000549 192.566544,364.000336 
	C216.897629,363.999603 241.231735,363.813660 265.556366,364.210388 
	C269.025635,364.266998 272.988464,366.522675 275.744751,368.896393 
	C278.622559,371.374725 278.555420,375.402405 276.547546,378.861237 
	C273.880890,383.454834 269.438019,384.922638 264.493927,384.966614 
	C253.162521,385.067474 241.829636,384.999664 230.497345,384.999878 
	C217.165237,385.000153 203.833115,384.999939 190.001419,384.999939 
z"/>
<path fill="#000000" opacity="1.000000" stroke="none" 
	d="
M222.000000,299.000183 
	C205.180252,299.000122 188.860504,299.012207 172.540771,298.994263 
	C165.589676,298.986633 161.957062,295.446472 162.002365,288.812531 
	C162.045227,282.535919 165.746567,279.009674 172.416183,279.006561 
	C203.889969,278.991852 235.363770,278.990204 266.837555,279.008698 
	C272.859131,279.012238 278.160187,283.914215 277.975220,289.191040 
	C277.790924,294.448547 272.764740,298.977509 266.962921,298.989532 
	C252.142014,299.020233 237.320984,299.000031 222.000000,299.000183 
z"/>
<path fill="#A8237F" opacity="1.000000" stroke="none" 
	d="
M380.000000,363.999939 
	C360.207367,363.999939 340.914703,363.999939 321.312622,363.999939 
	C321.312622,313.969513 321.312622,264.387482 321.312622,214.402451 
	C356.636108,214.402451 392.004578,214.402451 427.687256,214.402451 
	C427.687256,264.030396 427.687256,313.612396 427.687256,363.999939 
	C411.994202,363.999939 396.247101,363.999939 380.000000,363.999939 
z"/>
</svg>