<svg version="1.1" id="Layer_1" xmlns="http://www.w3.org/2000/svg" xmlns:xlink="http://www.w3.org/1999/xlink" x="0px" y="0px"
	 width="100%" viewBox="0 0 512 512" enable-background="new 0 0 512 512" xml:space="preserve">
<path fill="#000000" opacity="1.000000" stroke="none" 
	d="
M1.000000,176.000000 
	C1.000000,117.333336 1.000000,59.166668 1.000000,1.000000 
	C171.666672,1.000000 342.333344,1.000000 513.000000,1.000000 
	C513.000000,171.666672 513.000000,342.333344 513.000000,513.000000 
	C342.333344,513.000000 171.666672,513.000000 1.000000,513.000000 
	C1.000000,400.833344 1.000000,288.666656 1.000000,176.000000 
M433.583069,265.000092 
	C439.083984,264.999115 444.585297,265.038300 450.085693,264.984406 
	C454.438507,264.941742 456.934631,262.718353 456.966431,258.318604 
	C457.049591,246.820831 457.032867,235.321869 456.976715,223.823761 
	C456.955322,219.449921 454.614227,217.126007 450.228668,217.018204 
	C447.288910,216.945923 444.345917,217.004471 441.401123,217.004471 
	C441.401123,197.976608 441.401123,179.597641 441.401123,161.320557 
	C444.065857,161.320557 446.325775,161.320557 449.205688,161.320557 
	C449.205688,166.681549 449.205688,171.739578 449.205688,176.664093 
	C454.763275,176.664093 459.685089,176.664093 464.570923,176.664093 
	C464.570923,160.618256 464.570923,144.912460 464.570923,129.347504 
	C459.213013,129.347504 454.290100,129.347504 448.928955,129.347504 
	C448.928955,134.619080 448.928955,139.556137 448.928955,144.649017 
	C446.104584,144.649017 443.734802,144.649017 441.268738,144.649017 
	C441.268738,134.043991 441.268738,123.788857 441.268738,112.904953 
	C446.571564,112.904953 451.625183,112.904953 456.718506,112.904953 
	C456.718506,107.346863 456.718506,102.424683 456.718506,96.883080 
	C451.398224,96.883080 446.342865,96.883080 441.490448,96.883080 
	C439.906219,89.429817 441.676178,84.258636 447.050323,79.122215 
	C464.875092,62.085880 482.077301,44.398094 499.508636,26.950500 
	C500.766083,25.691893 501.945618,24.355402 502.576324,23.680838 
	C498.500427,19.212898 494.733459,15.083562 490.742401,10.708609 
	C486.688293,14.784865 482.863861,18.710423 478.933716,22.527178 
	C477.914825,23.516674 476.575836,24.845654 475.365601,24.864847 
	C464.085602,25.043734 452.801605,24.970760 440.895508,24.970760 
	C440.895508,19.418657 440.895508,14.365594 440.895508,9.286180 
	C435.337158,9.286180 430.415039,9.286180 424.867615,9.286180 
	C424.867615,14.607878 424.867615,19.659519 424.867615,24.992167 
	C413.258148,24.992167 402.276611,25.074005 391.299500,24.890121 
	C389.904022,24.866747 388.294952,23.700432 387.191254,22.640444 
	C383.141388,18.751028 379.263062,14.683030 375.716461,11.084338 
	C371.295746,15.460548 367.326080,19.390291 363.164764,23.509739 
	C364.189514,24.581890 365.410980,25.910467 366.685669,27.185883 
	C384.237885,44.748371 401.566437,62.544750 419.496979,79.712341 
	C424.821350,84.810127 425.904877,89.964226 424.430450,97.095505 
	C419.434387,97.095505 414.378906,97.095505 409.280334,97.095505 
	C409.280334,102.650734 409.280334,107.572891 409.280334,113.120605 
	C414.595642,113.120605 419.647797,113.120605 424.705994,113.120605 
	C424.705994,124.009697 424.705994,134.264526 424.705994,145.145859 
	C419.377869,145.145859 414.324219,145.145859 409.306824,145.145859 
	C409.306824,150.705719 409.306824,155.628540 409.306824,161.173706 
	C414.650513,161.173706 419.705444,161.173706 424.614685,161.173706 
	C424.614685,178.475983 424.614685,195.143631 424.614685,211.935898 
	C411.251587,198.628601 398.259430,185.463379 384.929260,172.649841 
	C382.817993,170.620438 379.219574,169.286087 376.244873,169.162048 
	C366.097260,168.738922 355.921112,168.988876 345.755890,169.003906 
	C338.904114,169.014023 337.014618,170.936829 337.002899,177.884354 
	C336.990112,185.480118 337.000000,193.075912 337.000000,200.724731 
	C283.356567,200.724731 230.440323,200.724731 176.999603,200.724731 
	C176.999603,192.671158 177.028061,184.884811 176.990417,177.098785 
	C176.961182,171.056259 174.980606,169.035828 169.004135,169.011887 
	C158.672409,168.970520 148.337387,169.144028 138.010040,168.927429 
	C134.012741,168.843597 131.144028,170.236725 128.401596,173.021896 
	C116.476273,185.133148 104.403732,197.099503 92.375717,209.109497 
	C91.428482,210.055283 90.412483,210.932205 89.396255,211.870865 
	C89.396255,194.757278 89.396255,178.014328 89.396255,160.825363 
	C94.716583,160.825363 99.646309,160.825363 104.590591,160.825363 
	C104.590591,155.322128 104.590591,150.279282 104.590591,144.798126 
	C99.255997,144.798126 94.326370,144.798126 89.422661,144.798126 
	C89.422661,133.964203 89.422661,123.589676 89.422661,112.772278 
	C94.771194,112.772278 99.700356,112.772278 104.562439,112.772278 
	C104.562439,107.265450 104.562439,102.224815 104.562439,96.753548 
	C99.196022,96.753548 94.267067,96.753548 89.583618,96.753548 
	C87.797363,89.449005 89.693687,84.288864 95.017799,79.180099 
	C112.809647,62.107887 130.032867,44.442966 147.463745,26.994926 
	C148.724960,25.732464 149.904449,24.388372 150.786987,23.441580 
	C146.641541,19.136435 142.768066,15.113734 138.857086,11.052078 
	C138.410461,11.358811 137.875046,11.545232 137.630157,11.920988 
	C129.658401,24.153406 117.996765,26.737448 104.421692,25.097626 
	C99.409729,24.492197 94.263306,24.999874 88.762871,24.999874 
	C88.762871,19.218616 88.762871,14.290845 88.762871,9.263846 
	C83.384613,9.263846 78.462494,9.263846 72.912384,9.263846 
	C72.912384,14.561002 72.912384,19.616541 72.912384,24.992664 
	C61.309784,24.992664 50.334038,25.073322 39.362602,24.892469 
	C37.962009,24.869383 36.340023,23.736933 35.238964,22.681829 
	C31.181042,18.793264 27.299057,14.721097 23.380335,10.747824 
	C18.996672,15.094873 15.030670,19.027750 10.858216,23.165354 
	C12.160581,24.536901 13.370621,25.869217 14.641429,27.140800 
	C32.546780,45.057102 50.252789,63.180939 68.502968,80.739075 
	C73.738098,85.775688 73.264824,90.905594 72.498230,97.223480 
	C67.228600,97.223480 62.300900,97.223480 57.435909,97.223480 
	C57.435909,102.732605 57.435909,107.773727 57.435909,113.250320 
	C62.797810,113.250320 67.723892,113.250320 72.735374,113.250320 
	C72.735374,123.968544 72.735374,134.227692 72.735374,144.643753 
	C70.091286,144.643753 67.722717,144.643753 64.906967,144.643753 
	C64.906967,139.370102 64.906967,134.436417 64.906967,129.369354 
	C59.408436,129.369354 54.368690,129.369354 49.286129,129.369354 
	C49.286129,145.327652 49.286129,160.914886 49.286129,176.619171 
	C54.618046,176.619171 59.658817,176.619171 65.135147,176.619171 
	C65.135147,171.310089 65.135147,166.372498 65.135147,161.386780 
	C67.960861,161.386780 70.331207,161.386780 72.702148,161.386780 
	C72.702148,180.027100 72.702148,198.281891 72.702148,217.000092 
	C70.123245,217.000092 67.826294,216.989212 65.529488,217.002151 
	C59.008163,217.038895 57.016655,219.032272 57.004864,225.610733 
	C56.986637,235.775925 56.990368,245.941223 57.003330,256.106445 
	C57.012341,263.175690 58.777996,264.980774 65.700607,264.996155 
	C73.345535,265.013123 80.990532,265.000000 87.617424,265.000000 
	C89.465958,268.097870 90.462448,270.809753 92.306747,272.690063 
	C104.558273,285.180695 116.893112,297.594879 129.470901,309.754608 
	C131.363342,311.584167 134.638824,312.764160 137.322174,312.856262 
	C147.641891,313.210388 157.981033,313.012390 168.312897,312.995667 
	C175.220840,312.984497 176.994217,311.167480 176.996506,304.092285 
	C177.005173,277.096069 177.000137,250.099838 177.000198,223.103622 
	C177.000198,221.178345 177.000183,219.253082 177.000183,217.280365 
	C230.653687,217.280365 283.569946,217.280365 336.999847,217.280365 
	C336.999847,219.508270 336.999817,221.463196 336.999847,223.418106 
	C337.000000,250.580963 336.986816,277.743805 337.010773,304.906677 
	C337.016083,310.945557 339.022186,312.964783 345.001068,312.988403 
	C355.332794,313.029175 365.667847,312.856110 375.995178,313.072449 
	C379.993256,313.156250 382.861542,311.761597 385.601440,308.973450 
	C397.047363,297.326019 408.717529,285.898590 420.133972,274.222809 
	C422.542114,271.759979 424.227264,268.590271 426.775085,265.000092 
	C427.977264,265.000092 430.296722,265.000092 433.583069,265.000092 
M409.000000,365.500000 
	C409.000000,395.912537 409.000000,426.325043 409.000000,456.685364 
	C307.277802,456.685364 206.361374,456.685364 104.816750,456.685364 
	C104.816750,403.333862 104.816750,350.293427 104.816750,297.325409 
	C99.259453,297.325409 94.337379,297.325409 88.793884,297.325409 
	C88.793884,350.687469 88.793884,403.727448 88.793884,457.000397 
	C80.508598,457.000397 72.850975,456.976227 65.193588,457.008148 
	C59.193333,457.033142 57.035480,459.103821 57.012451,464.948090 
	C56.970425,475.613800 56.973373,486.279938 57.011150,496.945709 
	C57.032440,502.956696 59.039417,504.988586 65.041168,504.989227 
	C193.031967,505.002869 321.022766,505.003174 449.013580,504.988525 
	C454.982269,504.987854 456.969208,502.939087 456.989868,496.890289 
	C457.025146,486.557831 457.009399,476.225128 456.996613,465.892548 
	C456.987854,458.823822 455.222504,457.019775 448.297028,457.004120 
	C440.685577,456.986908 433.074097,457.000214 424.846527,457.000214 
	C424.846527,403.363953 424.846527,350.323578 424.846527,297.310425 
	C419.290070,297.310425 414.367645,297.310425 409.000000,297.310425 
	C409.000000,319.911896 409.000000,342.205933 409.000000,365.500000 
z"/>
<path fill="#A8237F" opacity="1.000000" stroke="none" 
	d="
M433.099609,265.000092 
	C430.296722,265.000092 427.977264,265.000092 426.775085,265.000092 
	C424.227264,268.590271 422.542114,271.759979 420.133972,274.222809 
	C408.717529,285.898590 397.047363,297.326019 385.601440,308.973450 
	C382.861542,311.761597 379.993256,313.156250 375.995178,313.072449 
	C365.667847,312.856110 355.332794,313.029175 345.001068,312.988403 
	C339.022186,312.964783 337.016083,310.945557 337.010773,304.906677 
	C336.986816,277.743805 337.000000,250.580963 336.999847,223.418106 
	C336.999817,221.463196 336.999847,219.508270 336.999847,217.280365 
	C283.569946,217.280365 230.653687,217.280365 177.000183,217.280365 
	C177.000183,219.253082 177.000198,221.178345 177.000198,223.103622 
	C177.000137,250.099838 177.005173,277.096069 176.996506,304.092285 
	C176.994217,311.167480 175.220840,312.984497 168.312897,312.995667 
	C157.981033,313.012390 147.641891,313.210388 137.322174,312.856262 
	C134.638824,312.764160 131.363342,311.584167 129.470901,309.754608 
	C116.893112,297.594879 104.558273,285.180695 92.306747,272.690063 
	C90.462448,270.809753 89.465958,268.097870 87.617424,265.000000 
	C80.990532,265.000000 73.345535,265.013123 65.700607,264.996155 
	C58.777996,264.980774 57.012341,263.175690 57.003330,256.106445 
	C56.990368,245.941223 56.986637,235.775925 57.004864,225.610733 
	C57.016655,219.032272 59.008163,217.038895 65.529488,217.002151 
	C67.826294,216.989212 70.123245,217.000092 72.702148,217.000092 
	C72.702148,198.281891 72.702148,180.027100 72.702148,161.386780 
	C70.331207,161.386780 67.960861,161.386780 65.135147,161.386780 
	C65.135147,166.372498 65.135147,171.310089 65.135147,176.619171 
	C59.658817,176.619171 54.618046,176.619171 49.286129,176.619171 
	C49.286129,160.914886 49.286129,145.327652 49.286129,129.369354 
	C54.368690,129.369354 59.408436,129.369354 64.906967,129.369354 
	C64.906967,134.436417 64.906967,139.370102 64.906967,144.643753 
	C67.722717,144.643753 70.091286,144.643753 72.735374,144.643753 
	C72.735374,134.227692 72.735374,123.968544 72.735374,113.250320 
	C67.723892,113.250320 62.797810,113.250320 57.435909,113.250320 
	C57.435909,107.773727 57.435909,102.732605 57.435909,97.223480 
	C62.300900,97.223480 67.228600,97.223480 72.498230,97.223480 
	C73.264824,90.905594 73.738098,85.775688 68.502968,80.739075 
	C50.252789,63.180939 32.546780,45.057102 14.641429,27.140800 
	C13.370621,25.869217 12.160581,24.536901 10.858216,23.165354 
	C15.030670,19.027750 18.996672,15.094873 23.380335,10.747824 
	C27.299057,14.721097 31.181042,18.793264 35.238964,22.681829 
	C36.340023,23.736933 37.962009,24.869383 39.362602,24.892469 
	C50.334038,25.073322 61.309784,24.992664 72.912384,24.992664 
	C72.912384,19.616541 72.912384,14.561002 72.912384,9.263846 
	C78.462494,9.263846 83.384613,9.263846 88.762871,9.263846 
	C88.762871,14.290845 88.762871,19.218616 88.762871,24.999874 
	C94.263306,24.999874 99.409729,24.492197 104.421692,25.097626 
	C117.996765,26.737448 129.658401,24.153406 137.630157,11.920988 
	C137.875046,11.545232 138.410461,11.358811 138.857086,11.052078 
	C142.768066,15.113734 146.641541,19.136435 150.786987,23.441580 
	C149.904449,24.388372 148.724960,25.732464 147.463745,26.994926 
	C130.032867,44.442966 112.809647,62.107887 95.017799,79.180099 
	C89.693687,84.288864 87.797363,89.449005 89.583618,96.753548 
	C94.267067,96.753548 99.196022,96.753548 104.562439,96.753548 
	C104.562439,102.224815 104.562439,107.265450 104.562439,112.772278 
	C99.700356,112.772278 94.771194,112.772278 89.422661,112.772278 
	C89.422661,123.589676 89.422661,133.964203 89.422661,144.798126 
	C94.326370,144.798126 99.255997,144.798126 104.590591,144.798126 
	C104.590591,150.279282 104.590591,155.322128 104.590591,160.825363 
	C99.646309,160.825363 94.716583,160.825363 89.396255,160.825363 
	C89.396255,178.014328 89.396255,194.757278 89.396255,211.870865 
	C90.412483,210.932205 91.428482,210.055283 92.375717,209.109497 
	C104.403732,197.099503 116.476273,185.133148 128.401596,173.021896 
	C131.144028,170.236725 134.012741,168.843597 138.010040,168.927429 
	C148.337387,169.144028 158.672409,168.970520 169.004135,169.011887 
	C174.980606,169.035828 176.961182,171.056259 176.990417,177.098785 
	C177.028061,184.884811 176.999603,192.671158 176.999603,200.724731 
	C230.440323,200.724731 283.356567,200.724731 337.000000,200.724731 
	C337.000000,193.075912 336.990112,185.480118 337.002899,177.884354 
	C337.014618,170.936829 338.904114,169.014023 345.755890,169.003906 
	C355.921112,168.988876 366.097260,168.738922 376.244873,169.162048 
	C379.219574,169.286087 382.817993,170.620438 384.929260,172.649841 
	C398.259430,185.463379 411.251587,198.628601 424.614685,211.935898 
	C424.614685,195.143631 424.614685,178.475983 424.614685,161.173706 
	C419.705444,161.173706 414.650513,161.173706 409.306824,161.173706 
	C409.306824,155.628540 409.306824,150.705719 409.306824,145.145859 
	C414.324219,145.145859 419.377869,145.145859 424.705994,145.145859 
	C424.705994,134.264526 424.705994,124.009697 424.705994,113.120605 
	C419.647797,113.120605 414.595642,113.120605 409.280334,113.120605 
	C409.280334,107.572891 409.280334,102.650734 409.280334,97.095505 
	C414.378906,97.095505 419.434387,97.095505 424.430450,97.095505 
	C425.904877,89.964226 424.821350,84.810127 419.496979,79.712341 
	C401.566437,62.544750 384.237885,44.748371 366.685669,27.185883 
	C365.410980,25.910467 364.189514,24.581890 363.164764,23.509739 
	C367.326080,19.390291 371.295746,15.460548 375.716461,11.084338 
	C379.263062,14.683030 383.141388,18.751028 387.191254,22.640444 
	C388.294952,23.700432 389.904022,24.866747 391.299500,24.890121 
	C402.276611,25.074005 413.258148,24.992167 424.867615,24.992167 
	C424.867615,19.659519 424.867615,14.607878 424.867615,9.286180 
	C430.415039,9.286180 435.337158,9.286180 440.895508,9.286180 
	C440.895508,14.365594 440.895508,19.418657 440.895508,24.970760 
	C452.801605,24.970760 464.085602,25.043734 475.365601,24.864847 
	C476.575836,24.845654 477.914825,23.516674 478.933716,22.527178 
	C482.863861,18.710423 486.688293,14.784865 490.742401,10.708609 
	C494.733459,15.083562 498.500427,19.212898 502.576324,23.680838 
	C501.945618,24.355402 500.766083,25.691893 499.508636,26.950500 
	C482.077301,44.398094 464.875092,62.085880 447.050323,79.122215 
	C441.676178,84.258636 439.906219,89.429817 441.490448,96.883080 
	C446.342865,96.883080 451.398224,96.883080 456.718506,96.883080 
	C456.718506,102.424683 456.718506,107.346863 456.718506,112.904953 
	C451.625183,112.904953 446.571564,112.904953 441.268738,112.904953 
	C441.268738,123.788857 441.268738,134.043991 441.268738,144.649017 
	C443.734802,144.649017 446.104584,144.649017 448.928955,144.649017 
	C448.928955,139.556137 448.928955,134.619080 448.928955,129.347504 
	C454.290100,129.347504 459.213013,129.347504 464.570923,129.347504 
	C464.570923,144.912460 464.570923,160.618256 464.570923,176.664093 
	C459.685089,176.664093 454.763275,176.664093 449.205688,176.664093 
	C449.205688,171.739578 449.205688,166.681549 449.205688,161.320557 
	C446.325775,161.320557 444.065857,161.320557 441.401123,161.320557 
	C441.401123,179.597641 441.401123,197.976608 441.401123,217.004471 
	C444.345917,217.004471 447.288910,216.945923 450.228668,217.018204 
	C454.614227,217.126007 456.955322,219.449921 456.976715,223.823761 
	C457.032867,235.321869 457.049591,246.820831 456.966431,258.318604 
	C456.934631,262.718353 454.438507,264.941742 450.085693,264.984406 
	C444.585297,265.038300 439.083984,264.999115 433.099609,265.000092 
M145.000107,228.500000 
	C145.000107,251.243134 145.000107,273.986267 145.000107,296.685913 
	C150.719055,296.685913 155.640335,296.685913 160.603851,296.685913 
	C160.603851,259.339478 160.603851,222.308456 160.603851,185.314041 
	C155.281067,185.314041 150.359787,185.314041 145.000107,185.314041 
	C145.000107,199.582260 145.000107,213.541138 145.000107,228.500000 
M353.000092,219.500000 
	C353.000092,245.242004 353.000092,270.984009 353.000092,296.687012 
	C358.716797,296.687012 363.638092,296.687012 368.604980,296.687012 
	C368.604980,259.341736 368.604980,222.310715 368.604980,185.312927 
	C363.283356,185.312927 358.362030,185.312927 353.000092,185.312927 
	C353.000092,196.580032 353.000092,207.540009 353.000092,219.500000 
M105.000122,240.500397 
	C105.000519,246.161118 104.954109,251.822510 105.037567,257.481995 
	C105.056076,258.736847 105.109474,260.397919 105.864449,261.172058 
	C113.215759,268.710419 120.719711,276.099854 128.582260,283.932251 
	C128.582260,254.951401 128.582260,226.832397 128.582260,197.118652 
	C124.325134,201.677994 121.473068,205.778885 117.672340,208.603088 
	C107.091866,216.465179 102.610649,226.487396 105.000122,240.500397 
M396.996368,209.503693 
	C393.349701,205.765106 389.703003,202.026505 385.335754,197.549210 
	C385.335754,227.003357 385.335754,255.092300 385.335754,284.453125 
	C388.382812,281.287018 390.629791,278.904816 392.928406,276.573486 
	C398.178040,271.249176 405.526428,266.798096 408.142212,260.404785 
	C410.829834,253.835983 408.214783,245.293640 409.159180,237.770462 
	C410.637482,225.994431 407.273132,216.789017 396.996368,209.503693 
M88.999878,241.473633 
	C88.999878,238.725372 88.999878,235.977112 88.999878,233.326569 
	C83.250252,233.326569 78.330055,233.326569 73.418259,233.326569 
	C73.418259,238.703186 73.418259,243.742294 73.418259,248.666443 
	C78.762650,248.666443 83.682304,248.666443 88.999863,248.666443 
	C88.999863,246.369507 88.999863,244.402176 88.999878,241.473633 
M425.043610,247.183990 
	C425.515900,247.754715 425.975555,248.808548 426.462494,248.821289 
	C431.212524,248.945709 435.967163,248.896179 440.697662,248.896179 
	C440.697662,243.302628 440.697662,238.381241 440.697662,233.395340 
	C435.349274,233.395340 430.308655,233.395340 425.009613,233.395340 
	C425.009613,237.938660 425.009613,242.088821 425.043610,247.183990 
M55.065338,41.195450 
	C60.619793,47.408642 66.174248,53.621830 72.586670,60.794739 
	C72.586670,53.167461 72.586670,47.202507 72.586670,41.040089 
	C66.716896,41.040089 61.258945,41.040089 55.065338,41.195450 
M89.040375,58.197784 
	C89.458755,58.477196 90.183502,59.061405 90.251915,58.992641 
	C95.985207,53.229935 101.667587,47.416576 107.629570,41.324905 
	C101.141853,41.324905 95.279320,41.324905 89.008194,41.324905 
	C89.008194,46.903252 89.008194,52.163536 89.040375,58.197784 
M420.329803,41.000565 
	C415.788849,41.000565 411.247864,41.000565 407.984406,41.000565 
	C413.634521,46.660591 419.505249,52.541611 424.996552,58.042549 
	C424.996552,54.187851 424.843353,49.362801 425.053253,44.553596 
	C425.181946,41.605602 423.998688,40.637623 420.329803,41.000565 
M441.883148,41.201820 
	C441.474365,47.164616 441.065582,53.127415 440.649872,59.191448 
	C447.039062,52.881805 452.940765,47.053574 459.026398,41.043716 
	C453.675385,41.043716 448.247528,41.043716 441.883148,41.201820 
z"/>
<path fill="#A8237F" opacity="1.000000" stroke="none" 
	d="
M409.000000,365.000000 
	C409.000000,342.205933 409.000000,319.911896 409.000000,297.310425 
	C414.367645,297.310425 419.290070,297.310425 424.846527,297.310425 
	C424.846527,350.323578 424.846527,403.363953 424.846527,457.000214 
	C433.074097,457.000214 440.685577,456.986908 448.297028,457.004120 
	C455.222504,457.019775 456.987854,458.823822 456.996613,465.892548 
	C457.009399,476.225128 457.025146,486.557831 456.989868,496.890289 
	C456.969208,502.939087 454.982269,504.987854 449.013580,504.988525 
	C321.022766,505.003174 193.031967,505.002869 65.041168,504.989227 
	C59.039417,504.988586 57.032440,502.956696 57.011150,496.945709 
	C56.973373,486.279938 56.970425,475.613800 57.012451,464.948090 
	C57.035480,459.103821 59.193333,457.033142 65.193588,457.008148 
	C72.850975,456.976227 80.508598,457.000397 88.793884,457.000397 
	C88.793884,403.727448 88.793884,350.687469 88.793884,297.325409 
	C94.337379,297.325409 99.259453,297.325409 104.816750,297.325409 
	C104.816750,350.293427 104.816750,403.333862 104.816750,456.685364 
	C206.361374,456.685364 307.277802,456.685364 409.000000,456.685364 
	C409.000000,426.325043 409.000000,395.912537 409.000000,365.000000 
M164.500000,473.000000 
	C134.087784,473.000000 103.675560,473.000000 73.319786,473.000000 
	C73.319786,478.729340 73.319786,483.651337 73.319786,488.599243 
	C196.003540,488.599243 318.367065,488.599243 440.680176,488.599243 
	C440.680176,483.270569 440.680176,478.348602 440.680176,473.000000 
	C348.740723,473.000000 257.120361,473.000000 164.500000,473.000000 
z"/>
<path fill="#000000" opacity="1.000000" stroke="none" 
	d="
M145.000107,228.000000 
	C145.000107,213.541138 145.000107,199.582260 145.000107,185.314041 
	C150.359787,185.314041 155.281067,185.314041 160.603851,185.314041 
	C160.603851,222.308456 160.603851,259.339478 160.603851,296.685913 
	C155.640335,296.685913 150.719055,296.685913 145.000107,296.685913 
	C145.000107,273.986267 145.000107,251.243134 145.000107,228.000000 
z"/>
<path fill="#000000" opacity="1.000000" stroke="none" 
	d="
M353.000092,219.000000 
	C353.000092,207.540009 353.000092,196.580032 353.000092,185.312927 
	C358.362030,185.312927 363.283356,185.312927 368.604980,185.312927 
	C368.604980,222.310715 368.604980,259.341736 368.604980,296.687012 
	C363.638092,296.687012 358.716797,296.687012 353.000092,296.687012 
	C353.000092,270.984009 353.000092,245.242004 353.000092,219.000000 
z"/>
<path fill="#000000" opacity="1.000000" stroke="none" 
	d="
M105.000122,240.000717 
	C102.610649,226.487396 107.091866,216.465179 117.672340,208.603088 
	C121.473068,205.778885 124.325134,201.677994 128.582260,197.118652 
	C128.582260,226.832397 128.582260,254.951401 128.582260,283.932251 
	C120.719711,276.099854 113.215759,268.710419 105.864449,261.172058 
	C105.109474,260.397919 105.056076,258.736847 105.037567,257.481995 
	C104.954109,251.822510 105.000519,246.161118 105.000122,240.000717 
z"/>
<path fill="#000000" opacity="1.000000" stroke="none" 
	d="
M397.246338,209.753708 
	C407.273132,216.789017 410.637482,225.994431 409.159180,237.770462 
	C408.214783,245.293640 410.829834,253.835983 408.142212,260.404785 
	C405.526428,266.798096 398.178040,271.249176 392.928406,276.573486 
	C390.629791,278.904816 388.382812,281.287018 385.335754,284.453125 
	C385.335754,255.092300 385.335754,227.003357 385.335754,197.549210 
	C389.703003,202.026505 393.349701,205.765106 397.246338,209.753708 
z"/>
<path fill="#000000" opacity="1.000000" stroke="none" 
	d="
M88.999870,241.954239 
	C88.999863,244.402176 88.999863,246.369507 88.999863,248.666443 
	C83.682304,248.666443 78.762650,248.666443 73.418259,248.666443 
	C73.418259,243.742294 73.418259,238.703186 73.418259,233.326569 
	C78.330055,233.326569 83.250252,233.326569 88.999878,233.326569 
	C88.999878,235.977112 88.999878,238.725372 88.999870,241.954239 
z"/>
<path fill="#000000" opacity="1.000000" stroke="none" 
	d="
M425.026611,246.711487 
	C425.009613,242.088821 425.009613,237.938660 425.009613,233.395340 
	C430.308655,233.395340 435.349274,233.395340 440.697662,233.395340 
	C440.697662,238.381241 440.697662,243.302628 440.697662,248.896179 
	C435.967163,248.896179 431.212524,248.945709 426.462494,248.821289 
	C425.975555,248.808548 425.515900,247.754715 425.026611,246.711487 
z"/>
<path fill="#000000" opacity="1.000000" stroke="none" 
	d="
M55.433167,41.117767 
	C61.258945,41.040089 66.716896,41.040089 72.586670,41.040089 
	C72.586670,47.202507 72.586670,53.167461 72.586670,60.794739 
	C66.174248,53.621830 60.619793,47.408642 55.433167,41.117767 
z"/>
<path fill="#000000" opacity="1.000000" stroke="none" 
	d="
M89.024284,57.810802 
	C89.008194,52.163536 89.008194,46.903252 89.008194,41.324905 
	C95.279320,41.324905 101.141853,41.324905 107.629570,41.324905 
	C101.667587,47.416576 95.985207,53.229935 90.251915,58.992641 
	C90.183502,59.061405 89.458755,58.477196 89.024284,57.810802 
z"/>
<path fill="#000000" opacity="1.000000" stroke="none" 
	d="
M420.805908,41.001358 
	C423.998688,40.637623 425.181946,41.605602 425.053253,44.553596 
	C424.843353,49.362801 424.996552,54.187851 424.996552,58.042549 
	C419.505249,52.541611 413.634521,46.660591 407.984406,41.000565 
	C411.247864,41.000565 415.788849,41.000565 420.805908,41.001358 
z"/>
<path fill="#000000" opacity="1.000000" stroke="none" 
	d="
M442.351410,41.122768 
	C448.247528,41.043716 453.675385,41.043716 459.026398,41.043716 
	C452.940765,47.053574 447.039062,52.881805 440.649872,59.191448 
	C441.065582,53.127415 441.474365,47.164616 442.351410,41.122768 
z"/>
<path fill="#000000" opacity="1.000000" stroke="none" 
	d="
M165.000000,473.000000 
	C257.120361,473.000000 348.740723,473.000000 440.680176,473.000000 
	C440.680176,478.348602 440.680176,483.270569 440.680176,488.599243 
	C318.367065,488.599243 196.003540,488.599243 73.319786,488.599243 
	C73.319786,483.651337 73.319786,478.729340 73.319786,473.000000 
	C103.675560,473.000000 134.087784,473.000000 165.000000,473.000000 
z"/>
</svg>