<svg version="1.1" id="Layer_1" xmlns="http://www.w3.org/2000/svg" xmlns:xlink="http://www.w3.org/1999/xlink" x="0px" y="0px"
	 width="100%" viewBox="0 0 512 512" enable-background="new 0 0 512 512" xml:space="preserve">
<path fill="#000000" opacity="1.000000" stroke="none" 
	d="
M1.000000,268.458069 
	C4.904741,263.924500 9.751925,262.327942 15.288332,262.659332 
	C21.564480,263.035034 27.930653,261.680939 34.123672,263.542877 
	C39.388958,265.125916 43.120022,270.288605 42.147461,275.047852 
	C40.934586,280.983063 36.764107,284.919342 31.245729,284.480133 
	C24.961357,283.979980 18.600176,284.188324 12.284687,284.421722 
	C7.725107,284.590210 4.165272,283.154999 1.259675,279.226868 
	C1.000000,275.638702 1.000000,272.277435 1.000000,268.458069 
z"/>
<path fill="#000000" opacity="1.000000" stroke="none" 
	d="
M513.000000,278.541931 
	C509.994232,283.076538 506.035522,284.689972 500.927521,284.438538 
	C494.632874,284.128723 488.311127,284.409363 482.002136,284.339783 
	C476.999512,284.284637 473.697052,281.491150 472.151245,276.214569 
	C471.073669,272.536194 472.957794,266.249664 476.530670,265.000183 
	C487.411987,261.194824 498.492920,261.189209 509.411224,265.168793 
	C510.557037,265.586456 511.397186,266.842743 512.689575,267.854980 
	C513.000000,271.361298 513.000000,274.722565 513.000000,278.541931 
z"/>
<path fill="#000000" opacity="1.000000" stroke="none" 
	d="
M385.553467,365.492249 
	C374.609711,377.529846 363.952332,389.336426 353.617432,401.442505 
	C344.791962,411.780487 335.390289,421.624573 326.333099,431.767151 
	C313.743164,445.865875 301.271362,460.070099 288.678223,474.165955 
	C283.476410,479.988464 278.436768,486.022919 272.707672,491.291504 
	C264.266571,499.054077 248.854111,499.166718 240.524048,490.538818 
	C229.108597,478.715240 218.495239,466.162598 207.637238,453.830872 
	C197.992813,442.877502 187.897064,432.322601 178.183380,421.428802 
	C165.936356,407.693817 153.906708,393.765228 141.722824,379.973602 
	C132.931732,370.022491 124.021584,360.176666 115.201035,350.251465 
	C102.421059,335.870972 89.679329,321.456421 76.910553,307.065948 
	C71.182686,300.610596 65.416626,294.189178 59.690304,287.732483 
	C54.208813,281.551849 52.485817,269.854156 56.272373,262.402893 
	C61.399727,252.313187 68.089355,243.163773 74.201851,233.675583 
	C86.881004,213.994247 99.982597,194.582443 112.484451,174.790680 
	C118.256134,165.653503 126.487549,161.738861 136.622604,161.722809 
	C216.754257,161.595871 296.886230,161.620010 377.018036,161.693909 
	C388.705597,161.704681 397.122345,166.887100 403.357239,177.241379 
	C413.707916,194.430664 425.167664,210.950134 436.075012,227.806900 
	C443.106567,238.673828 450.118927,249.557648 456.887512,260.588745 
	C461.555359,268.196106 460.443878,280.763428 454.656281,287.314392 
	C441.036163,302.730988 427.247223,317.998352 413.609436,333.399445 
	C404.268890,343.947693 395.067627,354.619293 385.553467,365.492249 
M215.887131,429.656982 
	C221.704330,436.469849 227.188309,443.594177 234.812531,450.409760 
	C233.929535,447.312103 233.425934,445.408630 232.845169,443.529022 
	C226.925964,424.370758 220.951965,405.229370 215.075409,386.058075 
	C205.268524,354.064636 195.466904,322.069275 185.817551,290.028229 
	C184.582962,285.928680 182.791443,284.203400 178.207703,284.239807 
	C149.558273,284.467224 120.906212,284.354034 92.255089,284.396545 
	C90.665077,284.398895 88.957352,283.917755 86.812286,285.389954 
	C91.368835,289.467438 94.909874,294.198914 98.845535,298.594543 
	C105.371544,305.883240 112.029327,313.054535 118.514854,320.378662 
	C130.479462,333.890289 142.303864,347.526245 154.292343,361.016541 
	C163.871658,371.795807 173.636368,382.410156 183.266617,393.144501 
	C194.007416,405.116730 204.689255,417.141907 215.887131,429.656982 
M353.419037,367.898865 
	C365.291656,354.497986 377.114258,341.052307 389.052856,327.710480 
	C398.454193,317.204132 408.264648,307.049377 417.328247,296.263550 
	C420.309631,292.715698 424.279816,289.772247 426.533936,285.077942 
	C425.449738,284.759857 424.849670,284.430267 424.249237,284.429657 
	C393.935944,284.398407 363.622650,284.403961 333.309357,284.372192 
	C330.960510,284.369751 329.734741,285.319885 329.063141,287.641785 
	C327.313660,293.690430 325.286133,299.657990 323.434601,305.677917 
	C313.198883,338.957428 302.978729,372.241699 292.761536,405.526886 
	C288.148315,420.555695 283.554382,435.590424 278.625092,451.689240 
	C303.957428,423.354767 328.482117,395.923645 353.419037,367.898865 
M273.371704,393.980530 
	C284.473602,357.754608 295.575500,321.528687 306.965363,284.363098 
	C297.865784,284.363098 289.757935,284.363312 281.650085,284.363068 
	C258.668091,284.362305 235.686111,284.365295 212.704132,284.355927 
	C209.482407,284.354614 206.602051,284.054657 208.241516,289.147034 
	C214.031403,307.131012 219.516968,325.213409 225.066788,343.274170 
	C232.613434,367.833221 240.089508,392.413910 247.644669,416.970337 
	C250.584854,426.526764 253.657852,436.042328 257.041168,446.750092 
	C262.634308,428.579803 267.845184,411.651276 273.371704,393.980530 
M337.440643,229.026001 
	C347.104797,214.117996 356.768982,199.209991 366.744080,183.822296 
	C336.405762,183.822296 307.213776,183.822296 276.925323,183.822296 
	C292.077423,207.238174 306.687683,229.816666 321.819702,253.201477 
	C327.390137,244.625305 332.246643,237.148254 337.440643,229.026001 
M95.348061,241.737869 
	C91.123192,248.371475 86.898323,255.005081 82.309387,262.210327 
	C112.451149,262.210327 141.593399,262.210327 171.785385,262.210327 
	C156.647308,238.864883 142.026245,216.316757 127.030899,193.191406 
	C116.249603,209.766373 106.032028,225.474686 95.348061,241.737869 
M401.499908,262.650116 
	C411.334625,262.650116 421.169312,262.650116 432.140350,262.650116 
	C416.719757,238.835281 402.117920,216.284943 387.100464,193.092682 
	C372.088409,216.398270 357.623413,238.854568 342.296051,262.649719 
	C362.690247,262.649719 381.595062,262.649719 401.499908,262.650116 
M162.530426,183.369705 
	C157.951828,183.649124 153.302261,182.756622 147.768814,184.165955 
	C162.660095,207.213364 177.232880,229.767868 192.282745,253.060715 
	C207.487686,229.522308 222.053833,206.972809 237.300095,183.370453 
	C211.716492,183.370453 187.618790,183.370453 162.530426,183.369705 
M290.430573,262.654602 
	C293.649567,262.383972 296.979187,263.225800 300.879974,261.774719 
	C286.193054,239.080032 271.780731,216.809692 256.976318,193.933472 
	C242.104370,216.922668 227.742325,239.123627 212.519928,262.654541 
	C239.035324,262.654541 264.242828,262.654541 290.430573,262.654602 
z"/>
<path fill="#000000" opacity="1.000000" stroke="none" 
	d="
M268.347961,46.000572 
	C268.342896,61.471260 268.422333,76.442757 268.298950,91.412590 
	C268.231140,99.637383 263.721863,103.817123 255.904175,103.344002 
	C250.656693,103.026428 246.753723,99.401695 246.726807,94.089264 
	C246.612976,71.633751 246.619278,49.176949 246.738815,26.721457 
	C246.766251,21.569111 250.816223,17.719631 256.269806,16.916967 
	C260.877594,16.238787 265.806366,19.417959 267.290070,24.200954 
	C269.459961,31.196005 267.882721,38.404762 268.347961,46.000572 
z"/>
<path fill="#000000" opacity="1.000000" stroke="none" 
	d="
M398.772552,144.046021 
	C393.481720,143.571884 389.459137,141.719269 387.713013,136.661148 
	C385.768524,131.028427 388.187195,126.641945 391.966644,122.823509 
	C401.566956,113.124184 411.200256,103.455643 420.947754,93.904839 
	C424.306244,90.614082 428.098175,88.118347 433.331390,89.452385 
	C440.950653,91.394646 444.330566,98.876030 440.353699,105.604507 
	C439.351562,107.300041 438.076172,108.890518 436.686584,110.291466 
	C427.309174,119.745949 417.853607,129.122818 408.454865,138.556274 
	C405.823242,141.197632 402.913635,143.284393 398.772552,144.046021 
z"/>
<path fill="#000000" opacity="1.000000" stroke="none" 
	d="
M113.700630,114.299606 
	C117.219246,117.874542 120.619164,121.082130 123.724159,124.553505 
	C128.571335,129.972656 128.505295,136.596268 123.801849,141.096832 
	C120.019531,144.716003 112.499657,144.365723 107.963692,139.924301 
	C97.374306,129.555603 86.918251,119.048973 76.514740,108.493210 
	C73.169479,105.098984 71.638092,100.836037 73.118324,96.146019 
	C74.418716,92.025772 77.548828,89.602463 81.886902,89.022690 
	C85.985489,88.474937 89.323997,90.173523 92.153458,92.957161 
	C99.275902,99.964195 106.353905,107.016411 113.700630,114.299606 
z"/>
<path fill="#000000" opacity="1.000000" stroke="none" 
	d="
M261.899170,136.437347 
	C254.576248,138.267395 251.482162,137.351257 248.482941,132.862991 
	C245.673843,128.659180 245.764099,124.366875 248.614029,120.413345 
	C251.182892,116.849762 254.798950,115.336945 259.412750,116.171387 
	C264.884949,117.161072 267.551941,120.861954 267.981384,125.708519 
	C268.363647,130.023041 266.845734,134.197540 261.899170,136.437347 
z"/>
</svg>