<svg version="1.1" id="Layer_1" xmlns="http://www.w3.org/2000/svg" xmlns:xlink="http://www.w3.org/1999/xlink" x="0px" y="0px"
	 width="100%" viewBox="0 0 512 512" enable-background="new 0 0 512 512" xml:space="preserve">
<path fill="#000000" opacity="1.000000" stroke="none" 
	d="
M1.000000,317.458069 
	C9.890253,309.926422 17.183147,301.202911 25.367409,293.398407 
	C50.829662,269.117676 80.577217,253.680176 115.619240,248.499863 
	C142.889954,244.468414 169.521866,246.347824 195.576172,255.369476 
	C199.354309,256.677704 201.486588,256.126526 203.551727,252.459747 
	C212.755142,236.118637 222.261032,219.948074 231.630539,203.700272 
	C235.857162,196.370880 239.826462,188.883713 244.307709,181.715179 
	C246.112305,178.828369 246.679413,176.012451 246.677689,172.782898 
	C246.649307,119.624252 246.714355,66.465439 246.575470,13.307137 
	C246.562714,8.422818 247.605728,4.486629 251.759155,1.245174 
	C255.361282,1.000000 258.722565,1.000000 262.541931,1.000000 
	C266.262909,4.489111 268.481506,8.435585 268.378357,13.382637 
	C268.324921,15.944536 270.317657,16.642202 272.108673,17.511942 
	C282.722656,22.666218 293.318909,27.857723 303.964264,32.946457 
	C316.556671,38.965923 329.200195,44.878365 341.808014,50.865658 
	C355.918121,57.566307 369.995972,64.335091 384.124054,70.997406 
	C388.938080,73.267540 392.348633,76.115685 392.451263,82.165512 
	C392.555756,88.326721 388.903442,91.093506 384.211151,93.320351 
	C346.697083,111.123543 309.176697,128.913528 271.631470,146.650848 
	C269.393433,147.708160 268.298279,149.087509 268.323517,151.609894 
	C268.406830,159.941879 268.386078,168.275238 268.354279,176.607849 
	C268.344849,179.076584 269.460480,181.154037 270.625153,183.134995 
	C285.768951,208.892395 301.012665,234.591095 316.144836,260.355286 
	C322.699493,271.515381 329.232361,282.695526 335.435974,294.051819 
	C339.143982,300.839691 337.438477,306.875854 331.660919,310.018494 
	C326.123810,313.030334 320.013245,310.809509 316.207306,304.326080 
	C297.064148,271.715790 277.938507,239.095215 258.798798,206.482864 
	C258.472534,205.926926 258.047729,205.428818 257.008636,203.988571 
	C244.938217,224.950760 233.177216,245.375595 221.218231,266.144226 
	C225.175400,268.559296 228.602203,270.533600 231.910385,272.689850 
	C246.492432,282.194214 258.885712,294.213745 270.868225,306.704285 
	C273.405396,309.349030 276.104584,311.838043 278.651489,314.473846 
	C283.622345,319.618225 284.266632,326.312073 279.368347,331.436432 
	C259.465698,352.257690 239.158356,372.687805 212.311859,384.757263 
	C194.513916,392.758698 176.071915,398.477234 156.378540,399.420074 
	C152.921112,399.585602 149.518982,400.549316 145.999435,400.425751 
	C143.630936,400.342621 142.501343,402.246429 141.522247,403.946472 
	C128.764038,426.098846 116.067505,448.286804 103.337799,470.455627 
	C100.359955,475.641571 97.308823,480.785339 94.306648,485.957367 
	C93.237679,487.798889 91.883583,489.529663 91.784187,491.849548 
	C93.666077,493.019196 95.713661,492.633331 97.656754,492.634186 
	C158.486649,492.661530 219.316635,492.619080 280.146271,492.745300 
	C283.981995,492.753265 286.301666,491.570282 288.164185,488.311707 
	C302.500214,463.230408 316.893890,438.181793 331.352173,413.170685 
	C345.482941,388.726135 359.726715,364.346954 373.887177,339.919556 
	C378.302826,332.302429 382.688385,324.665527 386.934235,316.953186 
	C389.369049,312.530457 392.668243,309.606873 397.923218,309.703247 
	C403.187683,309.799866 406.284119,313.084534 408.727295,317.339020 
	C418.313507,334.032196 427.961548,350.689850 437.569458,367.370575 
	C449.247955,387.646149 460.850555,407.965637 472.593292,428.203827 
	C485.832794,451.021667 499.191711,473.770233 512.749329,496.774475 
	C513.000000,502.328308 513.000000,507.656616 513.000000,513.000000 
	C363.979095,513.000000 214.958206,513.000000 65.346001,512.668457 
	C59.042976,506.090454 60.374516,499.820190 64.262672,493.180542 
	C78.526558,468.822754 92.739052,444.432983 106.704620,419.903625 
	C110.586487,413.085449 115.449326,406.732513 118.227272,398.610657 
	C68.331360,392.508087 32.130760,364.417999 1.000000,328.000000 
	C1.000000,324.638702 1.000000,321.277435 1.000000,317.458069 
M320.324097,476.705261 
	C317.546814,481.716766 314.769531,486.728241 311.713470,492.242767 
	C369.281616,492.242767 426.088898,492.242767 484.037689,492.242767 
	C455.135681,442.197449 426.701935,392.962921 397.709625,342.761230 
	C371.657501,387.923157 346.217499,432.023926 320.324097,476.705261 
M134.030472,268.428192 
	C123.732414,270.292664 114.143639,273.972687 106.221062,280.894501 
	C84.407860,299.952301 79.936607,328.243042 95.018532,352.789886 
	C104.821198,368.744385 119.803802,377.079712 138.150116,378.509521 
	C160.813675,380.275818 184.033737,365.439026 192.578049,344.069702 
	C200.448624,324.385345 196.433853,300.969727 181.779678,285.814148 
	C168.899261,272.493011 153.232346,266.987610 134.030472,268.428192 
M299.433716,55.252544 
	C289.338348,50.389809 279.242981,45.527077 268.616760,40.408653 
	C268.616760,68.397377 268.616760,95.467789 268.616760,123.851585 
	C297.860168,109.886322 326.368500,96.272102 356.214813,82.018929 
	C336.623779,72.775848 318.376221,64.166634 299.433716,55.252544 
M71.052544,354.995483 
	C70.799759,354.205566 70.612396,353.387360 70.284485,352.629974 
	C64.373169,338.977020 63.391514,324.801941 65.606781,310.238037 
	C66.877449,301.884186 69.942589,294.106750 73.665688,285.883972 
	C72.219131,286.288116 71.540787,286.350372 70.991585,286.649628 
	C54.887497,295.424591 41.662815,307.693207 29.246502,320.968201 
	C26.978144,323.393463 28.078550,324.832550 29.922213,326.754364 
	C37.752842,334.916962 45.971432,342.673767 54.942036,349.537292 
	C60.441692,353.745148 66.155350,357.841949 73.731964,360.998199 
	C72.595383,358.344299 72.011543,356.981049 71.052544,354.995483 
M216.627029,339.761658 
	C215.405243,346.790894 212.739914,353.359497 209.644104,360.451294 
	C212.673660,359.706848 214.740936,358.495422 216.812454,357.183594 
	C230.363953,348.602203 242.130951,337.914856 253.416977,326.611084 
	C255.892639,324.131531 255.260010,322.654785 253.209000,320.479767 
	C244.763992,311.524231 235.986359,302.921753 226.032272,295.661133 
	C220.883804,291.905792 215.642441,288.165955 208.738297,285.184204 
	C217.838852,302.775604 220.429993,320.454102 216.627029,339.761658 
z"/>
<path fill="#000000" opacity="1.000000" stroke="none" 
	d="
M337.659088,338.786865 
	C337.712036,331.250580 340.705414,327.231323 346.346619,326.686005 
	C353.315338,326.012329 357.022552,328.413116 358.525543,334.572815 
	C359.963837,340.467438 356.583832,346.046814 350.876709,347.393036 
	C344.909668,348.800537 337.885681,345.460785 337.659088,338.786865 
z"/>
<path fill="#000000" opacity="1.000000" stroke="none" 
	d="
M113.762283,226.498611 
	C114.196342,231.294907 112.950249,235.050888 108.973564,237.440125 
	C104.674904,240.022827 100.292358,239.756409 96.496017,236.662338 
	C87.856590,229.621078 79.866249,221.844635 73.003616,213.061188 
	C69.520821,208.603546 69.971649,203.361389 73.131516,199.766769 
	C76.929924,195.445724 82.313438,193.941208 87.006432,197.283676 
	C96.921135,204.345169 105.162994,213.280746 112.719025,222.803925 
	C113.372513,223.627548 113.326218,225.006439 113.762283,226.498611 
z"/>
<path fill="#000000" opacity="1.000000" stroke="none" 
	d="
M187.975922,203.960785 
	C190.536652,201.321014 192.892105,198.987350 195.814545,197.325958 
	C200.851379,194.462555 206.606461,195.525299 210.092957,199.967438 
	C213.361359,204.131699 213.012314,209.916489 209.023041,213.964020 
	C201.789627,221.303024 194.482986,228.570786 187.143906,235.804382 
	C183.054016,239.835495 177.087555,240.123993 172.763016,236.661209 
	C168.932098,233.593750 167.730576,226.659348 170.646240,222.260406 
	C175.276154,215.275101 182.157364,210.351334 187.975922,203.960785 
z"/>
<path fill="#000000" opacity="1.000000" stroke="none" 
	d="
M152.335602,209.769119 
	C152.086563,218.514038 147.948303,223.420380 141.287567,223.338425 
	C135.973267,223.273056 130.825546,218.707581 130.733307,213.410889 
	C130.547989,202.770767 130.528488,192.122101 130.739822,181.482895 
	C130.860703,175.397079 136.069290,170.599670 141.683411,170.793045 
	C147.498795,170.993362 152.152451,175.628815 152.276367,181.859695 
	C152.458221,191.002884 152.330765,200.152252 152.335602,209.769119 
z"/>
<path fill="#000000" opacity="1.000000" stroke="none" 
	d="
M110.666565,325.741455 
	C109.649414,305.812286 124.609001,291.333954 144.701233,292.605896 
	C161.174942,293.648834 175.228302,311.497772 172.082031,327.683563 
	C168.735733,344.898346 157.703308,352.819092 143.408951,354.062805 
	C130.145172,355.216888 118.467033,348.203491 112.759575,334.863159 
	C111.607117,332.169434 111.345665,329.094513 110.666565,325.741455 
M148.197510,328.649658 
	C151.166763,325.031342 151.051788,321.186646 148.168900,317.821503 
	C145.982925,315.269867 142.967972,313.671143 139.279236,314.886536 
	C135.431290,316.154449 133.034698,318.915985 132.539841,322.773590 
	C132.031509,326.736267 134.884613,329.335876 137.863831,331.153015 
	C141.469986,333.352570 144.854752,332.052765 148.197510,328.649658 
z"/>
</svg>