<?xml version="1.0" encoding="utf-8"?><svg version="1.1" id="Layer_1" xmlns="http://www.w3.org/2000/svg" xmlns:xlink="http://www.w3.org/1999/xlink" x="0px" y="0px" width="122.88px" height="122.881px" viewBox="0 0 122.88 122.881" enable-background="new 0 0 122.88 122.881" xml:space="preserve"><g><path d="M19.647,63.781c0-1.82,0.651-3.391,1.955-4.694c1.302-1.303,2.873-1.971,4.693-1.971c1.838,0,3.408,0.668,4.71,1.971 c1.303,1.303,1.955,2.874,1.955,4.694s-0.652,3.391-1.955,4.693c-1.302,1.303-2.872,1.955-4.71,1.955 c-1.821,0-3.391-0.652-4.693-1.955C20.299,67.172,19.647,65.602,19.647,63.781L19.647,63.781z M61.44,5.619 c-3.863,0-7.61,0.363-11.235,1.089c-3.632,0.727-7.134,1.811-10.504,3.25l0.001,0.004c-3.43,1.476-6.623,3.199-9.571,5.178 c-2.956,1.983-5.696,4.236-8.215,6.765l-0.011,0.011l0,0c-2.529,2.52-4.782,5.26-6.765,8.216c-1.979,2.948-3.703,6.141-5.178,9.571 c-0.02,0.045-0.04,0.089-0.062,0.133c-1.411,3.329-2.476,6.787-3.192,10.37c-0.726,3.626-1.089,7.372-1.089,11.235 c0,3.863,0.363,7.609,1.089,11.236c0.727,3.631,1.811,7.133,3.25,10.504l0.004-0.002c1.475,3.43,3.199,6.623,5.178,9.57 c1.983,2.957,4.236,5.697,6.765,8.217l0.011,0.01l0,0c2.52,2.529,5.26,4.781,8.215,6.766c2.948,1.979,6.141,3.703,9.571,5.178 c0.045,0.02,0.089,0.041,0.133,0.063c3.329,1.41,6.787,2.475,10.37,3.191c3.625,0.727,7.372,1.09,11.235,1.09 s7.609-0.363,11.235-1.09c3.632-0.727,7.134-1.811,10.504-3.25l-0.001-0.004c3.43-1.475,6.622-3.199,9.57-5.178 c2.956-1.984,5.696-4.236,8.216-6.766l0.011-0.01l0,0c2.528-2.52,4.781-5.26,6.765-8.217c1.979-2.947,3.703-6.141,5.179-9.57 c0.02-0.045,0.04-0.09,0.062-0.133c1.411-3.328,2.476-6.787,3.192-10.369c0.726-3.627,1.089-7.373,1.089-11.236 c0-3.863-0.363-7.609-1.089-11.235c-0.727-3.631-1.811-7.134-3.25-10.504l-0.004,0.002c-1.476-3.43-3.199-6.623-5.179-9.571 c-1.983-2.956-4.236-5.696-6.765-8.216l-0.011-0.011l0,0c-2.52-2.529-5.26-4.782-8.216-6.765c-2.948-1.979-6.141-3.703-9.57-5.178 c-0.045-0.02-0.09-0.04-0.133-0.062c-3.329-1.411-6.787-2.475-10.37-3.192C69.05,5.982,65.304,5.619,61.44,5.619L61.44,5.619z M49.107,1.199C53.1,0.4,57.211,0,61.44,0c4.229,0,8.341,0.4,12.333,1.199c3.931,0.787,7.755,1.969,11.47,3.545 c0.051,0.019,0.102,0.038,0.152,0.06c3.702,1.593,7.194,3.485,10.471,5.684c3.267,2.192,6.29,4.677,9.065,7.462 c2.785,2.775,5.27,5.799,7.462,9.065c2.198,3.276,4.091,6.768,5.684,10.471l-0.005,0.002l0.005,0.009 c1.605,3.759,2.808,7.63,3.604,11.611c0.799,3.992,1.198,8.104,1.198,12.333c0,4.229-0.399,8.342-1.198,12.334 c-0.787,3.93-1.969,7.754-3.545,11.469c-0.019,0.051-0.038,0.102-0.06,0.152c-1.593,3.703-3.485,7.195-5.684,10.471 c-2.192,3.268-4.677,6.291-7.462,9.066c-2.775,2.785-5.799,5.27-9.065,7.461c-3.276,2.199-6.769,4.092-10.471,5.684l-0.002-0.004 l-0.01,0.004c-3.758,1.605-7.63,2.809-11.61,3.605c-3.992,0.799-8.104,1.199-12.333,1.199c-4.229,0-8.341-0.4-12.333-1.199 c-3.931-0.787-7.755-1.969-11.47-3.545c-0.051-0.02-0.102-0.039-0.152-0.061c-3.703-1.592-7.195-3.484-10.471-5.684 c-3.267-2.191-6.291-4.676-9.065-7.461c-2.785-2.775-5.27-5.799-7.462-9.066c-2.199-3.275-4.091-6.768-5.684-10.471l0.004-0.002 l-0.004-0.008c-1.606-3.76-2.808-7.631-3.604-11.611C0.4,69.781,0,65.668,0,61.439c0-4.228,0.4-8.34,1.199-12.333 c0.787-3.931,1.969-7.755,3.544-11.47c0.019-0.051,0.039-0.102,0.06-0.152c1.593-3.703,3.485-7.195,5.684-10.471 c2.192-3.267,4.677-6.291,7.462-9.065c2.775-2.785,5.799-5.27,9.065-7.462c3.276-2.199,6.768-4.091,10.471-5.684l0.002,0.004 l0.009-0.004C41.255,3.197,45.126,1.996,49.107,1.199L49.107,1.199z M52.526,43.721l16.252,29.648 c0.585,0.518,1.069,1.135,1.471,1.822c0.384,0.684,0.685,1.385,0.868,2.104c0.602,2.271,0.317,4.41-0.818,6.396 c-1.152,1.988-2.856,3.324-5.145,3.977c-2.222,0.584-4.343,0.283-6.364-0.885c-2.021-1.17-3.325-2.873-3.909-5.096 c-0.134-0.584-0.217-1.17-0.25-1.754c-0.034-0.584-0.017-1.186,0.049-1.771L52.526,43.721L52.526,43.721z M103.233,63.781 c0,1.82-0.651,3.391-1.955,4.693c-1.302,1.303-2.872,1.955-4.693,1.955c-1.837,0-3.407-0.652-4.71-1.955s-1.954-2.873-1.954-4.693 s0.651-3.391,1.954-4.694c1.303-1.303,2.873-1.971,4.71-1.971c1.821,0,3.392,0.668,4.693,1.971 C102.582,60.391,103.233,61.961,103.233,63.781L103.233,63.781z M91.09,34.032c1.319,1.303,1.971,2.891,1.971,4.744 c0,1.854-0.651,3.441-1.971,4.744c-1.303,1.236-2.872,1.854-4.743,1.854c-1.854,0-3.408-0.618-4.645-1.854 c-1.303-1.303-1.954-2.89-1.954-4.744c0-1.854,0.651-3.441,1.954-4.744c1.236-1.253,2.79-1.871,4.645-1.871 C88.218,32.161,89.787,32.779,91.09,34.032L91.09,34.032z M61.44,21.688c1.888,0,3.475,0.651,4.744,1.971 c1.27,1.304,1.904,2.856,1.904,4.694c0,1.821-0.635,3.391-1.904,4.694c-1.27,1.303-2.856,1.954-4.744,1.954 c-1.82,0-3.391-0.651-4.693-1.954c-1.303-1.304-1.955-2.874-1.955-4.694c0-1.837,0.651-3.39,1.955-4.694 C58.05,22.339,59.62,21.688,61.44,21.688L61.44,21.688z M31.792,34.032c1.303-1.253,2.873-1.871,4.744-1.871 c1.854,0,3.408,0.618,4.644,1.871c1.304,1.303,1.954,2.891,1.954,4.744c0,1.854-0.65,3.441-1.954,4.744 c-1.236,1.236-2.79,1.854-4.644,1.854c-1.871,0-3.44-0.618-4.744-1.854c-1.32-1.303-1.971-2.89-1.971-4.744 C29.821,36.922,30.472,35.335,31.792,34.032L31.792,34.032z"/></g></svg>