<svg version="1.1" id="Layer_1" xmlns="http://www.w3.org/2000/svg" xmlns:xlink="http://www.w3.org/1999/xlink" x="0px" y="0px"
     width="100%" viewBox="0 0 512 512" enable-background="new 0 0 512 512" xml:space="preserve">
<path fill="#FFFFFF" opacity="1.000000" stroke="none"
      d="
M183.000000,513.000000
	C122.362030,513.000000 61.724052,513.000000 1.043040,513.000000
	C1.043040,342.442749 1.043040,171.885498 1.043040,1.000000
	C75.355026,1.000000 149.710526,1.000000 224.414337,1.370945
	C221.658768,2.560587 218.305984,2.880128 215.493378,4.282826
	C202.024780,10.999847 191.796814,20.834080 187.139343,35.572990
	C181.003540,54.990242 186.856598,77.032219 202.562073,90.205635
	C225.320862,109.295204 259.340637,105.296494 276.560822,81.679581
	C294.532440,57.032116 287.326294,20.666111 258.928375,6.488449
	C254.747604,4.401199 250.315704,2.816963 246.000000,0.999998
	C334.963715,1.000000 423.927399,1.000000 512.945557,1.000000
	C512.945557,171.560776 512.945557,342.121582 512.945557,513.000000
	C417.978210,513.000000 322.956085,513.000000 227.602829,512.614807
	C233.548035,510.827087 239.829956,509.448975 246.099731,508.017731
	C270.905243,502.355225 292.237488,489.956085 311.036224,473.284607
	C326.025208,459.991699 338.017242,444.135590 346.460938,425.851471
	C347.439819,423.731812 347.530945,420.365234 346.529907,418.308777
	C341.406372,407.783539 335.789795,397.498322 330.277771,387.000000
	C325.850037,387.000000 321.345215,387.187622 316.865265,386.934448
	C313.846771,386.763855 312.958618,388.018311 311.847229,390.719360
	C308.497864,398.859650 305.068451,407.060822 300.662140,414.653168
	C291.038574,431.235168 277.288940,443.964172 260.812744,453.543915
	C245.522278,462.434357 228.825928,467.396057 211.118393,467.852478
	C203.147766,468.057892 195.121384,466.807617 187.146225,465.970825
	C173.959686,464.587219 161.994476,459.381958 150.725616,452.871979
	C133.205841,442.750946 119.184082,428.846802 109.511108,410.956268
	C97.367729,388.496582 92.579666,364.768860 96.890999,339.227417
	C100.695877,316.686340 110.528755,297.328918 125.883179,280.740875
	C136.009048,269.801453 148.100433,261.363922 161.752304,255.779449
	C161.752304,239.645462 161.752304,223.865692 161.752304,207.663773
	C159.863251,208.064835 158.242813,208.243576 156.734528,208.753799
	C133.160309,216.728516 112.684181,229.468323 95.077217,247.229263
	C77.368507,265.092804 64.639297,285.865692 57.271454,309.688385
	C53.717026,321.181061 51.171036,333.263275 50.276474,345.236053
	C48.921566,363.370026 50.819000,381.341705 55.777859,399.148163
	C63.217743,425.863495 76.756630,448.869385 96.075752,468.239624
	C109.571808,481.771393 125.131775,493.085358 143.283844,499.932129
	C153.445694,503.765106 163.959671,506.662598 174.305573,510.010773
	C177.220871,510.954163 180.102783,512.000732 183.000000,513.000000
M302.500031,234.000000
	C295.067505,234.000000 287.634979,234.000000 280.000000,234.000000
	C280.000000,211.113174 280.040131,188.802032 279.955414,166.491348
	C279.943146,163.256226 279.755005,159.910568 278.926453,156.808899
	C275.225464,142.954742 267.495819,131.603455 254.085526,126.255325
	C237.966492,119.826942 221.766449,121.192665 207.651291,132.190094
	C197.495850,140.102417 191.141327,150.777908 191.086121,163.946869
	C190.873688,214.611389 190.934647,265.277588 191.114731,315.942352
	C191.130402,320.353271 192.207153,324.962463 193.739594,329.130829
	C200.169876,346.621857 217.931473,358.476624 236.643036,358.119141
	C261.799927,357.638550 286.972870,358.000000 312.138916,358.000000
	C323.964966,358.000000 335.791016,358.000000 347.286316,358.000000
	C349.515930,361.922729 351.723633,365.482086 353.621185,369.199707
	C363.791168,389.124298 373.907440,409.076416 383.995483,429.042633
	C391.256409,443.413513 398.423523,457.831787 405.670868,472.209564
	C411.915680,484.598358 421.374207,491.481110 435.889404,491.110260
	C449.577271,490.760529 463.261108,478.262054 464.070740,463.436829
	C464.507568,455.437988 461.599762,448.681030 458.042969,441.847137
	C448.011505,422.573090 438.197052,403.185638 428.364838,383.808472
	C417.151642,361.709686 405.904877,339.626801 394.880127,317.433929
	C388.350677,304.290070 378.118164,297.835907 363.362518,297.945831
	C337.364594,298.139496 311.364197,298.000000 285.364838,298.000000
	C283.613068,298.000000 281.861298,298.000000 280.340942,298.000000
	C280.340942,291.245972 280.340942,285.168579 280.340942,279.000000
	C305.007019,279.000000 329.334717,278.808411 353.656067,279.118011
	C360.853973,279.209625 366.304352,276.671356 370.912445,271.566254
	C377.111633,264.698547 378.973267,256.784027 375.585693,248.156113
	C372.180878,239.484344 362.852203,233.788254 354.997345,233.914627
	C337.835571,234.190674 320.666229,234.000000 302.500031,234.000000
z"/>
    <path fill="#000000" opacity="1.000000" stroke="none"
          d="
M183.468658,513.000000
	C180.102783,512.000732 177.220871,510.954163 174.305573,510.010773
	C163.959671,506.662598 153.445694,503.765106 143.283844,499.932129
	C125.131775,493.085358 109.571808,481.771393 96.075752,468.239624
	C76.756630,448.869385 63.217743,425.863495 55.777859,399.148163
	C50.819000,381.341705 48.921566,363.370026 50.276474,345.236053
	C51.171036,333.263275 53.717026,321.181061 57.271454,309.688385
	C64.639297,285.865692 77.368507,265.092804 95.077217,247.229263
	C112.684181,229.468323 133.160309,216.728516 156.734528,208.753799
	C158.242813,208.243576 159.863251,208.064835 161.752304,207.663773
	C161.752304,223.865692 161.752304,239.645462 161.752304,255.779449
	C148.100433,261.363922 136.009048,269.801453 125.883179,280.740875
	C110.528755,297.328918 100.695877,316.686340 96.890999,339.227417
	C92.579666,364.768860 97.367729,388.496582 109.511108,410.956268
	C119.184082,428.846802 133.205841,442.750946 150.725616,452.871979
	C161.994476,459.381958 173.959686,464.587219 187.146225,465.970825
	C195.121384,466.807617 203.147766,468.057892 211.118393,467.852478
	C228.825928,467.396057 245.522278,462.434357 260.812744,453.543915
	C277.288940,443.964172 291.038574,431.235168 300.662140,414.653168
	C305.068451,407.060822 308.497864,398.859650 311.847229,390.719360
	C312.958618,388.018311 313.846771,386.763855 316.865265,386.934448
	C321.345215,387.187622 325.850037,387.000000 330.277771,387.000000
	C335.789795,397.498322 341.406372,407.783539 346.529907,418.308777
	C347.530945,420.365234 347.439819,423.731812 346.460938,425.851471
	C338.017242,444.135590 326.025208,459.991699 311.036224,473.284607
	C292.237488,489.956085 270.905243,502.355225 246.099731,508.017731
	C239.829956,509.448975 233.548035,510.827087 227.135849,512.614807
	C212.645767,513.000000 198.291550,513.000000 183.468658,513.000000
z"/>
    <path fill="#000000" opacity="1.000000" stroke="none"
          d="
M245.531464,0.999998
	C250.315704,2.816963 254.747604,4.401199 258.928375,6.488449
	C287.326294,20.666111 294.532440,57.032116 276.560822,81.679581
	C259.340637,105.296494 225.320862,109.295204 202.562073,90.205635
	C186.856598,77.032219 181.003540,54.990242 187.139343,35.572990
	C191.796814,20.834080 202.024780,10.999847 215.493378,4.282826
	C218.305984,2.880128 221.658768,2.560587 224.881317,1.370945
	C231.687637,1.000000 238.375290,1.000000 245.531464,0.999998
z"/>
    <path fill="#000000" opacity="1.000000" stroke="none"
          d="
M303.000000,234.000000
	C320.666229,234.000000 337.835571,234.190674 354.997345,233.914627
	C362.852203,233.788254 372.180878,239.484344 375.585693,248.156113
	C378.973267,256.784027 377.111633,264.698547 370.912445,271.566254
	C366.304352,276.671356 360.853973,279.209625 353.656067,279.118011
	C329.334717,278.808411 305.007019,279.000000 280.340942,279.000000
	C280.340942,285.168579 280.340942,291.245972 280.340942,298.000000
	C281.861298,298.000000 283.613068,298.000000 285.364838,298.000000
	C311.364197,298.000000 337.364594,298.139496 363.362518,297.945831
	C378.118164,297.835907 388.350677,304.290070 394.880127,317.433929
	C405.904877,339.626801 417.151642,361.709686 428.364838,383.808472
	C438.197052,403.185638 448.011505,422.573090 458.042969,441.847137
	C461.599762,448.681030 464.507568,455.437988 464.070740,463.436829
	C463.261108,478.262054 449.577271,490.760529 435.889404,491.110260
	C421.374207,491.481110 411.915680,484.598358 405.670868,472.209564
	C398.423523,457.831787 391.256409,443.413513 383.995483,429.042633
	C373.907440,409.076416 363.791168,389.124298 353.621185,369.199707
	C351.723633,365.482086 349.515930,361.922729 347.286316,358.000000
	C335.791016,358.000000 323.964966,358.000000 312.138916,358.000000
	C286.972870,358.000000 261.799927,357.638550 236.643036,358.119141
	C217.931473,358.476624 200.169876,346.621857 193.739594,329.130829
	C192.207153,324.962463 191.130402,320.353271 191.114731,315.942352
	C190.934647,265.277588 190.873688,214.611389 191.086121,163.946869
	C191.141327,150.777908 197.495850,140.102417 207.651291,132.190094
	C221.766449,121.192665 237.966492,119.826942 254.085526,126.255325
	C267.495819,131.603455 275.225464,142.954742 278.926453,156.808899
	C279.755005,159.910568 279.943146,163.256226 279.955414,166.491348
	C280.040131,188.802032 280.000000,211.113174 280.000000,234.000000
	C287.634979,234.000000 295.067505,234.000000 303.000000,234.000000
z"/>
</svg>