<svg version="1.1" id="Layer_1" xmlns="http://www.w3.org/2000/svg" xmlns:xlink="http://www.w3.org/1999/xlink" x="0px" y="0px"
     width="100%" viewBox="0 0 512 512" enable-background="new 0 0 512 512" xml:space="preserve">
<path fill="#000000" opacity="1.000000" stroke="none"
      d="
M1.000000,119.000000
	C1.000000,79.333336 1.000000,40.166668 1.000000,1.000000
	C171.666672,1.000000 342.333344,1.000000 513.000000,1.000000
	C513.000000,171.666672 513.000000,342.333344 513.000000,513.000000
	C342.333344,513.000000 171.666672,513.000000 1.000000,513.000000
	C1.000000,381.833344 1.000000,250.666672 1.000000,119.000000
M252.500000,508.000000
	C318.487213,508.000000 384.474457,508.001312 450.461670,507.992493
	C452.118378,507.992279 453.831726,508.135254 455.423065,507.781494
	C471.738739,504.154297 485.684906,496.582397 495.655640,482.797272
	C503.068115,472.549042 508.007965,461.341309 508.006805,448.373138
	C507.995483,320.064819 508.000122,191.756500 507.998657,63.448193
	C507.998627,61.949223 508.243744,60.391052 507.925568,58.960335
	C504.220825,42.301380 496.472565,28.064331 482.365479,17.945290
	C472.074554,10.563572 460.757751,5.966973 447.780701,5.971719
	C319.805664,6.018516 191.830612,5.999748 63.855564,6.002763
	C62.191967,6.002802 60.453640,5.734309 58.876308,6.114448
	C42.718975,10.008393 28.446058,17.102222 18.519503,31.023104
	C11.085584,41.448341 5.968053,52.735725 5.972733,65.946144
	C6.018126,194.087814 5.999444,322.229492 6.006099,450.371185
	C6.006186,452.029877 5.833696,453.747375 6.187806,455.338135
	C9.818000,471.646057 17.340061,485.618744 31.134995,495.596130
	C41.527290,503.112549 52.874519,508.033508 66.036179,508.022644
	C127.857422,507.971680 189.678726,508.000000 252.500000,508.000000
z"/>
    <path fill="#FFFFFF" opacity="1.000000" stroke="none"
          d="
M252.000000,508.000000
	C189.678726,508.000000 127.857422,507.971680 66.036179,508.022644
	C52.874519,508.033508 41.527290,503.112549 31.134995,495.596130
	C17.340061,485.618744 9.818000,471.646057 6.187806,455.338135
	C5.833696,453.747375 6.006186,452.029877 6.006099,450.371185
	C5.999444,322.229492 6.018126,194.087814 5.972733,65.946144
	C5.968053,52.735725 11.085584,41.448341 18.519503,31.023104
	C28.446058,17.102222 42.718975,10.008393 58.876308,6.114448
	C60.453640,5.734309 62.191967,6.002802 63.855564,6.002763
	C191.830612,5.999748 319.805664,6.018516 447.780701,5.971719
	C460.757751,5.966973 472.074554,10.563572 482.365479,17.945290
	C496.472565,28.064331 504.220825,42.301380 507.925568,58.960335
	C508.243744,60.391052 507.998627,61.949223 507.998657,63.448193
	C508.000122,191.756500 507.995483,320.064819 508.006805,448.373138
	C508.007965,461.341309 503.068115,472.549042 495.655640,482.797272
	C485.684906,496.582397 471.738739,504.154297 455.423065,507.781494
	C453.831726,508.135254 452.118378,507.992279 450.461670,507.992493
	C384.474457,508.001312 318.487213,508.000000 252.000000,508.000000
M292.500000,18.000000
	C216.930222,18.333332 141.360245,18.629725 65.790878,19.039303
	C54.283600,19.101671 44.606411,24.112038 36.055305,31.453154
	C22.703169,42.915943 18.035109,58.191639 18.064177,75.029488
	C18.278923,199.422867 18.642059,323.816040 19.040861,448.208984
	C19.077751,459.715912 24.112198,469.393372 31.453062,477.944519
	C42.915634,491.296875 58.191387,495.964905 75.029274,495.935822
	C199.422653,495.721069 323.815826,495.357910 448.208771,494.959198
	C459.715851,494.922302 469.393127,489.887695 477.944305,482.547058
	C491.296967,471.084717 495.910278,455.810150 495.940369,438.970734
	C496.076630,362.652802 496.118439,286.334290 495.956787,210.016495
	C495.855316,162.107620 495.606354,114.195404 494.866028,66.293297
	C494.568695,47.054214 483.806213,33.627327 467.624084,24.274204
	C458.788239,19.167162 448.798431,18.168156 438.970428,18.116322
	C390.481415,17.860594 341.990356,18.000000 292.500000,18.000000
z"/>
    <path fill="#000000" opacity="1.000000" stroke="none"
          d="
M293.000000,18.000000
	C341.990356,18.000000 390.481415,17.860594 438.970428,18.116322
	C448.798431,18.168156 458.788239,19.167162 467.624084,24.274204
	C483.806213,33.627327 494.568695,47.054214 494.866028,66.293297
	C495.606354,114.195404 495.855316,162.107620 495.956787,210.016495
	C496.118439,286.334290 496.076630,362.652802 495.940369,438.970734
	C495.910278,455.810150 491.296967,471.084717 477.944305,482.547058
	C469.393127,489.887695 459.715851,494.922302 448.208771,494.959198
	C323.815826,495.357910 199.422653,495.721069 75.029274,495.935822
	C58.191387,495.964905 42.915634,491.296875 31.453062,477.944519
	C24.112198,469.393372 19.077751,459.715912 19.040861,448.208984
	C18.642059,323.816040 18.278923,199.422867 18.064177,75.029488
	C18.035109,58.191639 22.703169,42.915943 36.055305,31.453154
	C44.606411,24.112038 54.283600,19.101671 65.790878,19.039303
	C141.360245,18.629725 216.930222,18.333332 293.000000,18.000000
M215.846680,322.000000
	C209.613571,322.340790 208.003464,323.962830 208.000931,329.924438
	C207.997238,338.589630 207.998154,347.254852 208.000580,355.920044
	C208.002350,362.171722 209.819748,363.977020 216.193329,363.995697
	C222.776642,364.015015 229.360062,364.000000 236.000000,364.000000
	C236.000000,380.872833 235.982162,397.033539 236.009659,413.194153
	C236.019302,418.862640 238.053726,420.959015 243.585373,420.987427
	C252.583618,421.033722 261.582550,421.041718 270.580658,420.984161
	C275.899017,420.950165 277.963379,418.876404 277.984680,413.528015
	C278.033173,401.363586 278.000000,389.198883 278.000031,377.034271
	C278.000031,372.762695 278.000000,368.491150 278.000000,364.277893
	C292.958008,364.277893 307.362152,364.277893 322.000031,364.277893
	C322.000031,371.361328 321.929382,378.170471 322.023407,384.977325
	C322.092773,389.999847 324.227264,391.993744 329.251221,391.996277
	C347.914734,392.005585 366.578247,392.016174 385.241730,391.989746
	C390.542053,391.982239 391.978394,390.597961 391.987183,385.427643
	C392.019409,366.430908 391.918793,347.433502 392.061584,328.437775
	C392.094055,324.116028 389.584015,322.758057 386.155731,322.040039
	C385.038025,321.805969 383.830475,322.000153 382.664001,322.000153
	C366.886932,321.999908 351.109894,322.000000 335.229950,322.000000
	C335.229950,307.139313 335.229950,292.735809 335.229950,278.000000
	C342.083618,278.000000 348.713104,278.033356 355.342102,277.989929
	C361.114258,277.952087 363.961487,275.048706 363.992035,269.195282
	C364.026581,262.578918 364.000000,255.962234 364.000000,249.221527
	C369.176880,249.221527 373.914673,249.221527 378.999908,249.221527
	C378.999908,250.400543 378.999939,251.361191 378.999939,252.321854
	C378.999969,267.652588 378.979004,282.983337 379.011108,298.314026
	C379.022675,303.845795 381.032196,305.985107 386.087555,305.994965
	C395.252625,306.012817 404.417786,306.007904 413.582886,305.997040
	C419.185944,305.990417 420.984070,304.236694 420.996338,298.761719
	C421.011536,291.973053 421.000000,285.184326 421.000000,278.000000
	C428.003052,278.000000 434.623627,278.028442 441.243866,277.991394
	C447.059052,277.958893 449.961334,275.081543 449.990051,269.293457
	C450.029724,261.295013 450.011749,253.296219 449.996368,245.297592
	C449.983856,238.798904 447.249329,236.023605 440.835236,236.004379
	C434.249542,235.984634 427.663727,236.000000 421.000000,236.000000
	C421.000000,228.648666 421.009888,221.989090 420.996887,215.329544
	C420.986084,209.810562 419.190460,208.005051 413.674133,208.003525
	C385.845520,207.995850 358.016937,207.999359 330.188324,208.000519
	C323.837311,208.000778 322.028290,209.770615 322.005371,216.084976
	C321.981445,222.677261 322.000000,229.269669 322.000000,235.755219
	C321.045502,235.895264 320.725800,235.982483 320.405914,235.983139
	C314.740265,235.995041 309.074646,235.997345 303.408997,235.999756
	C295.330750,236.003220 293.016785,238.344818 293.002136,246.566010
	C292.991272,252.660797 293.000000,258.755615 293.000000,264.685547
	C287.634979,264.685547 282.895477,264.685547 278.000000,264.685547
	C278.000000,248.055847 278.029572,231.740036 277.983276,215.424423
	C277.967957,210.017700 275.904846,208.009933 270.650879,208.003128
	C261.819031,207.991699 252.987213,207.998581 244.155380,208.000488
	C237.834976,208.001846 236.026276,209.786316 236.004959,216.117889
	C235.982773,222.707458 236.000000,229.297165 236.000000,236.000000
	C210.189499,236.000000 185.037689,235.997879 159.885864,236.001312
	C152.468979,236.002319 150.003906,238.520187 150.000565,246.076248
	C149.997787,252.336853 150.000000,258.597443 150.000000,264.681946
	C144.625397,264.681946 139.887115,264.681946 134.999969,264.681946
	C134.999969,248.047684 135.029709,231.730881 134.983093,215.414291
	C134.967728,210.035461 132.880127,208.009583 127.640717,208.003098
	C118.642258,207.991959 109.643784,207.995056 100.645309,208.001724
	C94.671707,208.006149 93.003899,209.636688 93.002640,215.510010
	C92.996712,243.171982 92.996674,270.833954 93.002678,298.495941
	C93.003952,304.363556 94.674477,305.997620 100.651253,305.998199
	C137.811615,306.001770 174.971970,306.000092 212.132339,305.999939
	C219.336685,305.999908 220.947678,304.404755 220.992126,297.078094
	C221.030182,290.805389 221.000000,284.532227 221.000000,278.263184
	C226.263458,278.263184 231.002441,278.263184 236.000046,278.263184
	C236.000046,285.327423 235.932983,292.132660 236.022171,298.935852
	C236.088272,303.978424 238.213287,305.986298 243.209747,305.996307
	C250.457794,306.010803 257.705872,306.000000 264.634705,306.000000
	C264.634705,311.805420 264.634705,316.885345 264.634705,322.000000
	C248.439774,322.000000 232.610046,322.000000 215.846680,322.000000
M64.000000,95.500000
	C64.000000,124.664017 63.990894,153.828033 64.007286,182.992050
	C64.010788,189.213303 66.778625,191.998581 72.834106,191.998932
	C109.664116,192.001068 146.494125,192.002258 183.324142,191.997986
	C190.205643,191.997192 191.997406,190.196136 191.998154,183.283859
	C192.002075,146.453842 192.001129,109.623833 191.998840,72.793823
	C191.998474,66.945175 189.230469,64.018394 183.451721,64.014076
	C146.455093,63.986500 109.458397,63.985920 72.461754,64.015305
	C66.953888,64.019684 64.054138,66.973244 64.013344,72.502083
	C63.959244,79.834358 64.000008,87.167328 64.000000,95.500000
M394.500000,64.000000
	C373.335236,64.000000 352.170471,63.988068 331.005707,64.007378
	C324.786530,64.013062 322.001404,66.780083 322.001068,72.836342
	C321.998932,109.666344 321.997742,146.496353 322.002014,183.326355
	C322.002838,190.206192 323.804321,191.997421 330.718353,191.998154
	C367.548370,192.002060 404.378357,192.001205 441.208374,191.998795
	C447.248077,191.998398 449.990997,189.209183 449.993317,182.949585
	C450.006927,146.286224 450.007904,109.622879 449.992218,72.959526
	C449.989594,66.815651 447.166565,64.016479 440.995880,64.007347
	C425.830627,63.984890 410.665283,64.000000 394.500000,64.000000
M135.500000,322.000000
	C115.001839,322.000000 94.503685,321.999908 74.005524,322.000061
	C66.427437,322.000092 64.002083,324.376373 64.001427,331.836334
	C63.998264,367.999725 63.997730,404.163147 64.001953,440.326538
	C64.002777,447.410370 66.623970,449.997406 73.790039,449.998413
	C100.787598,450.002228 127.785156,450.000000 154.782715,450.000000
	C164.448517,450.000000 174.114655,450.048798 183.779968,449.980438
	C189.020828,449.943390 191.994324,446.942627 191.995468,441.877716
	C192.003860,404.547760 192.008514,367.217804 191.991287,329.887848
	C191.988541,323.971954 189.988358,322.015656 183.995697,322.007385
	C168.163818,321.985596 152.331909,322.000000 135.500000,322.000000
M408.000000,376.500061
	C408.000000,386.925873 408.000000,397.351685 408.000000,408.000000
	C405.802734,408.000000 404.158966,408.000000 402.515167,408.000000
	C369.040588,408.000000 335.564636,408.155518 302.092590,407.863892
	C295.687195,407.808075 293.446350,410.936310 293.133423,416.262146
	C292.636078,424.726471 292.603668,433.266113 293.130127,441.726929
	C293.529236,448.141205 296.161774,449.936707 300.703278,449.945251
	C347.834015,450.033936 394.964966,450.016235 442.095825,449.974274
	C446.721558,449.970154 449.949768,446.941620 449.961823,442.448547
	C450.036926,414.469971 450.141541,386.489746 449.879852,358.513458
	C449.827484,352.914764 447.975372,350.909698 442.114227,350.973572
	C432.955566,351.073395 423.794800,351.042480 414.635468,350.981781
	C410.159149,350.952118 407.956177,352.999878 407.989197,357.513916
	C408.033020,363.509033 408.000000,369.504730 408.000000,376.500061
M208.000000,136.500000
	C208.000000,152.660965 208.126190,168.823532 207.921402,184.981903
	C207.861679,189.694672 210.251007,191.796951 214.257126,191.911804
	C223.745972,192.183853 233.253189,192.183792 242.742035,191.911865
	C246.747940,191.797073 249.155121,189.696869 249.078522,184.982452
	C248.856628,171.324249 249.000000,157.660080 249.000000,143.998260
	C249.000000,141.061615 249.000000,138.124969 249.000000,134.999985
	C256.218292,134.999985 262.861450,135.041885 269.503815,134.987015
	C275.028198,134.941376 277.948547,132.043839 277.985443,126.535950
	C278.041229,118.205940 278.007721,109.875282 277.997559,101.544907
	C277.989441,94.893379 276.160950,93.018173 269.656677,93.003426
	C262.878357,92.988052 256.099976,93.000000 249.000000,93.000000
	C249.000000,85.748459 248.890564,78.951279 249.033936,72.159439
	C249.152985,66.519524 247.617157,64.449539 241.748688,64.126732
	C232.945129,63.642475 224.090561,63.826664 215.266678,64.062706
	C209.502869,64.216881 208.001328,66.144447 208.000778,72.022499
	C207.998810,93.181664 208.000000,114.340836 208.000000,136.500000
M285.499786,150.000000
	C281.172485,150.000000 276.844727,149.960434 272.518005,150.010086
	C267.183655,150.071320 265.051025,152.114868 265.017029,157.358185
	C264.956543,166.678131 265.158081,176.002563 264.935303,185.317581
	C264.818817,190.189194 267.688354,191.822464 271.581421,191.922363
	C280.895630,192.161407 290.224792,192.170822 299.538300,191.918243
	C303.465668,191.811737 306.192078,190.017456 306.070435,185.197418
	C305.831207,175.716675 305.830109,166.221329 306.070404,156.740631
	C306.193787,151.872711 303.377625,150.339569 299.473785,150.068619
	C295.167206,149.769730 290.823914,150.000153 285.499786,150.000000
z"/>
    <path fill="#FFFFFF" opacity="1.000000" stroke="none"
          d="
M216.313507,322.000000
	C232.610046,322.000000 248.439774,322.000000 264.634705,322.000000
	C264.634705,316.885345 264.634705,311.805420 264.634705,306.000000
	C257.705872,306.000000 250.457794,306.010803 243.209747,305.996307
	C238.213287,305.986298 236.088272,303.978424 236.022171,298.935852
	C235.932983,292.132660 236.000046,285.327423 236.000046,278.263184
	C231.002441,278.263184 226.263458,278.263184 221.000000,278.263184
	C221.000000,284.532227 221.030182,290.805389 220.992126,297.078094
	C220.947678,304.404755 219.336685,305.999908 212.132339,305.999939
	C174.971970,306.000092 137.811615,306.001770 100.651253,305.998199
	C94.674477,305.997620 93.003952,304.363556 93.002678,298.495941
	C92.996674,270.833954 92.996712,243.171982 93.002640,215.510010
	C93.003899,209.636688 94.671707,208.006149 100.645309,208.001724
	C109.643784,207.995056 118.642258,207.991959 127.640717,208.003098
	C132.880127,208.009583 134.967728,210.035461 134.983093,215.414291
	C135.029709,231.730881 134.999969,248.047684 134.999969,264.681946
	C139.887115,264.681946 144.625397,264.681946 150.000000,264.681946
	C150.000000,258.597443 149.997787,252.336853 150.000565,246.076248
	C150.003906,238.520187 152.468979,236.002319 159.885864,236.001312
	C185.037689,235.997879 210.189499,236.000000 236.000000,236.000000
	C236.000000,229.297165 235.982773,222.707458 236.004959,216.117889
	C236.026276,209.786316 237.834976,208.001846 244.155380,208.000488
	C252.987213,207.998581 261.819031,207.991699 270.650879,208.003128
	C275.904846,208.009933 277.967957,210.017700 277.983276,215.424423
	C278.029572,231.740036 278.000000,248.055847 278.000000,264.685547
	C282.895477,264.685547 287.634979,264.685547 293.000000,264.685547
	C293.000000,258.755615 292.991272,252.660797 293.002136,246.566010
	C293.016785,238.344818 295.330750,236.003220 303.408997,235.999756
	C309.074646,235.997345 314.740265,235.995041 320.405914,235.983139
	C320.725800,235.982483 321.045502,235.895264 322.000000,235.755219
	C322.000000,229.269669 321.981445,222.677261 322.005371,216.084976
	C322.028290,209.770615 323.837311,208.000778 330.188324,208.000519
	C358.016937,207.999359 385.845520,207.995850 413.674133,208.003525
	C419.190460,208.005051 420.986084,209.810562 420.996887,215.329544
	C421.009888,221.989090 421.000000,228.648666 421.000000,236.000000
	C427.663727,236.000000 434.249542,235.984634 440.835236,236.004379
	C447.249329,236.023605 449.983856,238.798904 449.996368,245.297592
	C450.011749,253.296219 450.029724,261.295013 449.990051,269.293457
	C449.961334,275.081543 447.059052,277.958893 441.243866,277.991394
	C434.623627,278.028442 428.003052,278.000000 421.000000,278.000000
	C421.000000,285.184326 421.011536,291.973053 420.996338,298.761719
	C420.984070,304.236694 419.185944,305.990417 413.582886,305.997040
	C404.417786,306.007904 395.252625,306.012817 386.087555,305.994965
	C381.032196,305.985107 379.022675,303.845795 379.011108,298.314026
	C378.979004,282.983337 378.999969,267.652588 378.999939,252.321854
	C378.999939,251.361191 378.999908,250.400543 378.999908,249.221527
	C373.914673,249.221527 369.176880,249.221527 364.000000,249.221527
	C364.000000,255.962234 364.026581,262.578918 363.992035,269.195282
	C363.961487,275.048706 361.114258,277.952087 355.342102,277.989929
	C348.713104,278.033356 342.083618,278.000000 335.229950,278.000000
	C335.229950,292.735809 335.229950,307.139313 335.229950,322.000000
	C351.109894,322.000000 366.886932,321.999908 382.664001,322.000153
	C383.830475,322.000153 385.038025,321.805969 386.155731,322.040039
	C389.584015,322.758057 392.094055,324.116028 392.061584,328.437775
	C391.918793,347.433502 392.019409,366.430908 391.987183,385.427643
	C391.978394,390.597961 390.542053,391.982239 385.241730,391.989746
	C366.578247,392.016174 347.914734,392.005585 329.251221,391.996277
	C324.227264,391.993744 322.092773,389.999847 322.023407,384.977325
	C321.929382,378.170471 322.000031,371.361328 322.000031,364.277893
	C307.362152,364.277893 292.958008,364.277893 278.000000,364.277893
	C278.000000,368.491150 278.000031,372.762695 278.000031,377.034271
	C278.000000,389.198883 278.033173,401.363586 277.984680,413.528015
	C277.963379,418.876404 275.899017,420.950165 270.580658,420.984161
	C261.582550,421.041718 252.583618,421.033722 243.585373,420.987427
	C238.053726,420.959015 236.019302,418.862640 236.009659,413.194153
	C235.982162,397.033539 236.000000,380.872833 236.000000,364.000000
	C229.360062,364.000000 222.776642,364.015015 216.193329,363.995697
	C209.819748,363.977020 208.002350,362.171722 208.000580,355.920044
	C207.998154,347.254852 207.997238,338.589630 208.000931,329.924438
	C208.003464,323.962830 209.613571,322.340790 216.313507,322.000000
M328.933777,334.999969
	C324.374054,334.922760 322.011902,332.612335 322.007507,328.044220
	C321.989594,309.381348 321.962524,290.718353 322.024872,272.055695
	C322.041687,267.018250 324.216095,265.013519 329.217590,265.003662
	C336.464355,264.989380 343.711151,265.000000 351.000000,265.000000
	C351.000000,257.440552 350.996124,250.609558 351.001160,243.778580
	C351.005493,237.895462 352.900818,236.027161 358.994324,236.006912
	C367.325867,235.979218 375.657654,235.979126 383.989197,236.006821
	C390.264313,236.027695 391.999023,237.842316 391.999542,244.261993
	C392.000854,260.378998 392.000000,276.496002 392.000000,292.795837
	C397.473907,292.795837 402.544952,292.795837 408.000000,292.795837
	C408.000000,286.142670 407.985992,279.686615 408.003906,273.230621
	C408.021667,266.836182 409.824585,265.003113 416.042145,265.000641
	C422.971283,264.997833 429.900391,265.000000 436.694519,265.000000
	C436.694519,259.317657 436.694519,254.246033 436.694519,249.000000
	C429.575073,249.000000 422.760071,249.002731 415.945099,248.999161
	C409.965271,248.996017 408.040527,247.127014 408.008209,241.172134
	C407.972321,234.558289 408.000000,227.944107 408.000000,221.225861
	C383.477783,221.225861 359.409454,221.225861 335.000000,221.225861
	C335.000000,228.073883 335.005035,234.701874 334.998505,241.329880
	C334.992615,247.316864 333.364532,248.989090 327.515228,248.997559
	C320.415375,249.007858 313.315521,249.000000 306.000000,249.000000
	C306.000000,256.371185 306.002350,263.179962 305.999298,269.988708
	C305.996490,276.177155 304.149597,277.982330 297.738525,277.995850
	C289.573547,278.013092 281.408478,278.013092 273.243500,277.995758
	C266.976685,277.982422 265.012878,276.052277 265.005615,269.853027
	C264.988281,255.022736 265.006409,240.192398 264.989777,225.362106
	C264.988190,223.937622 264.843536,222.513290 264.779144,221.340607
	C259.245575,221.340607 254.169510,221.340607 249.000000,221.340607
	C249.000000,228.338593 249.009705,234.996368 248.996994,241.654099
	C248.986435,247.185928 247.196289,248.993881 241.690903,248.996338
	C221.195068,249.005508 200.699249,249.000000 180.203415,249.000000
	C174.585907,249.000000 168.968414,249.000000 163.000000,249.000000
	C163.000000,256.384064 163.004425,263.342682 162.998596,270.301331
	C162.993851,275.959045 161.078995,277.953186 155.425644,277.987366
	C147.260941,278.036743 139.095703,278.003571 130.930695,277.998932
	C123.533760,277.994751 122.000206,276.472870 122.000084,269.158234
	C121.999817,253.215225 122.000000,237.272217 122.000000,221.232468
	C116.467224,221.232468 111.395866,221.232468 106.231918,221.232468
	C106.231918,245.200775 106.231918,268.936005 106.231918,292.770996
	C140.197876,292.770996 173.931503,292.770996 208.000015,292.770996
	C208.000015,285.585052 207.969131,278.623016 208.010208,271.661407
	C208.040741,266.486572 209.488831,265.032562 214.668900,265.010773
	C223.833527,264.972260 232.998505,264.981934 242.163239,265.007416
	C246.919464,265.020630 248.973740,267.073822 248.992813,271.818481
	C249.020752,278.766388 249.000000,285.714478 249.000000,293.000031
	C255.901138,293.000031 262.363098,292.922058 268.822357,293.021820
	C275.367310,293.122864 277.983917,295.836823 277.996246,302.297577
	C278.011780,310.462555 278.013885,318.627625 277.995514,326.792603
	C277.981476,333.031738 276.039154,334.988037 269.816925,334.994751
	C254.819992,335.010956 239.823029,334.992737 224.826111,335.013214
	C223.569839,335.014923 222.313828,335.203308 221.353409,335.281036
	C221.353409,340.781158 221.353409,345.859283 221.353409,351.000000
	C227.534637,351.000000 233.379425,351.279968 239.186676,350.932495
	C247.329300,350.445312 249.284195,352.648193 249.101059,360.846924
	C248.752518,376.448639 249.000000,392.063629 249.000000,407.766418
	C254.535065,407.766418 259.606445,407.766418 265.000000,407.766418
	C265.000000,391.074371 264.991913,374.614075 265.004700,358.153778
	C265.008789,352.900818 266.849243,351.010803 272.001312,351.006348
	C290.664185,350.990234 309.327057,350.990356 327.989929,351.006287
	C333.156128,351.010681 334.982544,352.889587 334.995728,358.145020
	C335.013092,365.064972 335.000000,371.984985 335.000000,378.659973
	C350.084442,378.659973 364.489929,378.659973 378.658691,378.659973
	C378.658691,363.912933 378.658691,349.507446 378.658691,335.000000
	C362.161499,335.000000 346.005432,335.000000 328.933777,334.999969
z"/>
    <path fill="#FFFFFF" opacity="1.000000" stroke="none"
          d="
M64.000000,95.000000
	C64.000008,87.167328 63.959244,79.834358 64.013344,72.502083
	C64.054138,66.973244 66.953888,64.019684 72.461754,64.015305
	C109.458397,63.985920 146.455093,63.986500 183.451721,64.014076
	C189.230469,64.018394 191.998474,66.945175 191.998840,72.793823
	C192.001129,109.623833 192.002075,146.453842 191.998154,183.283859
	C191.997406,190.196136 190.205643,191.997192 183.324142,191.997986
	C146.494125,192.002258 109.664116,192.001068 72.834106,191.998932
	C66.778625,191.998581 64.010788,189.213303 64.007286,182.992050
	C63.990894,153.828033 64.000000,124.664017 64.000000,95.000000
M122.500000,179.000000
	C141.261780,179.000000 160.023560,179.000000 178.713501,179.000000
	C178.713501,144.690308 178.713501,110.954414 178.713501,77.286484
	C144.690338,77.286484 110.954437,77.286484 77.286484,77.286484
	C77.286484,111.309647 77.286484,145.045547 77.286484,179.000000
	C92.214645,179.000000 106.857323,179.000000 122.500000,179.000000
z"/>
    <path fill="#FFFFFF" opacity="1.000000" stroke="none"
          d="
M395.000000,64.000000
	C410.665283,64.000000 425.830627,63.984890 440.995880,64.007347
	C447.166565,64.016479 449.989594,66.815651 449.992218,72.959526
	C450.007904,109.622879 450.006927,146.286224 449.993317,182.949585
	C449.990997,189.209183 447.248077,191.998398 441.208374,191.998795
	C404.378357,192.001205 367.548370,192.002060 330.718353,191.998154
	C323.804321,191.997421 322.002838,190.206192 322.002014,183.326355
	C321.997742,146.496353 321.998932,109.666344 322.001068,72.836342
	C322.001404,66.780083 324.786530,64.013062 331.005707,64.007378
	C352.170471,63.988068 373.335236,64.000000 395.000000,64.000000
M437.000000,145.500000
	C437.000000,122.738937 437.000000,99.977875 437.000000,77.285965
	C402.691406,77.285965 368.955505,77.285965 335.285950,77.285965
	C335.285950,111.308586 335.285950,145.044495 335.285950,178.714050
	C369.308594,178.714050 403.044464,178.714050 437.000000,178.714050
	C437.000000,167.786346 437.000000,157.143173 437.000000,145.500000
z"/>
    <path fill="#FFFFFF" opacity="1.000000" stroke="none"
          d="
M136.000000,322.000000
	C152.331909,322.000000 168.163818,321.985596 183.995697,322.007385
	C189.988358,322.015656 191.988541,323.971954 191.991287,329.887848
	C192.008514,367.217804 192.003860,404.547760 191.995468,441.877716
	C191.994324,446.942627 189.020828,449.943390 183.779968,449.980438
	C174.114655,450.048798 164.448517,450.000000 154.782715,450.000000
	C127.785156,450.000000 100.787598,450.002228 73.790039,449.998413
	C66.623970,449.997406 64.002777,447.410370 64.001953,440.326538
	C63.997730,404.163147 63.998264,367.999725 64.001427,331.836334
	C64.002083,324.376373 66.427437,322.000092 74.005524,322.000061
	C94.503685,321.999908 115.001839,322.000000 136.000000,322.000000
M157.499878,335.000000
	C130.739426,335.000000 103.978966,335.000000 77.285484,335.000000
	C77.285484,369.307617 77.285484,403.043518 77.285484,436.714508
	C111.307640,436.714508 145.043533,436.714508 178.714508,436.714508
	C178.714508,402.692352 178.714508,368.956451 178.714508,335.000000
	C171.786972,335.000000 165.143387,335.000000 157.499878,335.000000
z"/>
    <path fill="#FFFFFF" opacity="1.000000" stroke="none"
          d="
M408.000000,376.000122
	C408.000000,369.504730 408.033020,363.509033 407.989197,357.513916
	C407.956177,352.999878 410.159149,350.952118 414.635468,350.981781
	C423.794800,351.042480 432.955566,351.073395 442.114227,350.973572
	C447.975372,350.909698 449.827484,352.914764 449.879852,358.513458
	C450.141541,386.489746 450.036926,414.469971 449.961823,442.448547
	C449.949768,446.941620 446.721558,449.970154 442.095825,449.974274
	C394.964966,450.016235 347.834015,450.033936 300.703278,449.945251
	C296.161774,449.936707 293.529236,448.141205 293.130127,441.726929
	C292.603668,433.266113 292.636078,424.726471 293.133423,416.262146
	C293.446350,410.936310 295.687195,407.808075 302.092590,407.863892
	C335.564636,408.155518 369.040588,408.000000 402.515167,408.000000
	C404.158966,408.000000 405.802734,408.000000 408.000000,408.000000
	C408.000000,397.351685 408.000000,386.925873 408.000000,376.000122
M406.500000,437.000000
	C416.590027,437.000000 426.680084,437.000000 436.747986,437.000000
	C436.747986,412.392426 436.747986,388.339325 436.747986,364.250153
	C431.423706,364.250153 426.355011,364.250153 421.000000,364.250153
	C421.000000,380.448792 421.004517,396.398804 420.997864,412.348846
	C420.994995,419.207916 419.190521,420.997345 412.274780,420.998169
	C378.646118,421.002197 345.017487,421.000000 311.388824,421.000000
	C309.635864,421.000000 307.882904,421.000000 306.324158,421.000000
	C306.324158,426.726135 306.324158,431.796478 306.324158,437.000000
	C339.598755,437.000000 372.549377,437.000000 406.500000,437.000000
z"/>
    <path fill="#FFFFFF" opacity="1.000000" stroke="none"
          d="
M208.000000,136.000000
	C208.000000,114.340836 207.998810,93.181664 208.000778,72.022499
	C208.001328,66.144447 209.502869,64.216881 215.266678,64.062706
	C224.090561,63.826664 232.945129,63.642475 241.748688,64.126732
	C247.617157,64.449539 249.152985,66.519524 249.033936,72.159439
	C248.890564,78.951279 249.000000,85.748459 249.000000,93.000000
	C256.099976,93.000000 262.878357,92.988052 269.656677,93.003426
	C276.160950,93.018173 277.989441,94.893379 277.997559,101.544907
	C278.007721,109.875282 278.041229,118.205940 277.985443,126.535950
	C277.948547,132.043839 275.028198,134.941376 269.503815,134.987015
	C262.861450,135.041885 256.218292,134.999985 249.000000,134.999985
	C249.000000,138.124969 249.000000,141.061615 249.000000,143.998260
	C249.000000,157.660080 248.856628,171.324249 249.078522,184.982452
	C249.155121,189.696869 246.747940,191.797073 242.742035,191.911865
	C233.253189,192.183792 223.745972,192.183853 214.257126,191.911804
	C210.251007,191.796951 207.861679,189.694672 207.921402,184.981903
	C208.126190,168.823532 208.000000,152.660965 208.000000,136.000000
M255.471283,106.000000
	C251.641068,106.000000 247.810715,106.020004 243.980652,105.995392
	C238.008270,105.957016 236.034790,104.018661 236.007492,98.098083
	C235.975510,91.160385 236.000000,84.222420 236.000000,77.247986
	C230.763855,77.247986 226.027374,77.247986 221.223419,77.247986
	C221.223419,111.216049 221.223419,144.935684 221.223419,178.776794
	C226.184799,178.776794 230.920502,178.776794 235.998444,178.776794
	C235.998444,177.930908 235.998428,177.302719 235.998444,176.674530
	C235.998962,161.020462 235.978653,145.366348 236.010971,129.712341
	C236.022781,123.987015 238.009796,122.008377 243.552841,122.001976
	C250.644363,121.993790 257.735901,122.000000 264.698608,122.000000
	C264.698608,116.321701 264.698608,111.252235 264.698608,106.000000
	C261.752106,106.000000 259.105560,106.000000 255.471283,106.000000
z"/>
    <path fill="#FFFFFF" opacity="1.000000" stroke="none"
          d="
M285.998199,150.000000
	C290.823914,150.000153 295.167206,149.769730 299.473785,150.068619
	C303.377625,150.339569 306.193787,151.872711 306.070404,156.740631
	C305.830109,166.221329 305.831207,175.716675 306.070435,185.197418
	C306.192078,190.017456 303.465668,191.811737 299.538300,191.918243
	C290.224792,192.170822 280.895630,192.161407 271.581421,191.922363
	C267.688354,191.822464 264.818817,190.189194 264.935303,185.317581
	C265.158081,176.002563 264.956543,166.678131 265.017029,157.358185
	C265.051025,152.114868 267.183655,150.071320 272.518005,150.010086
	C276.844727,149.960434 281.172485,150.000000 285.998199,150.000000
M285.499939,179.000000
	C287.931610,179.000000 290.363312,179.000000 292.709442,179.000000
	C292.709442,173.347397 292.709442,168.274979 292.709442,163.293610
	C287.674896,163.293610 282.935760,163.293610 278.296448,163.293610
	C278.296448,168.664047 278.296448,173.736496 278.296448,179.000000
	C280.571838,179.000000 282.552277,179.000000 285.499939,179.000000
z"/>
    <path fill="#000000" opacity="1.000000" stroke="none"
          d="
M329.391571,335.000000
	C346.005432,335.000000 362.161499,335.000000 378.658691,335.000000
	C378.658691,349.507446 378.658691,363.912933 378.658691,378.659973
	C364.489929,378.659973 350.084442,378.659973 335.000000,378.659973
	C335.000000,371.984985 335.013092,365.064972 334.995728,358.145020
	C334.982544,352.889587 333.156128,351.010681 327.989929,351.006287
	C309.327057,350.990356 290.664185,350.990234 272.001312,351.006348
	C266.849243,351.010803 265.008789,352.900818 265.004700,358.153778
	C264.991913,374.614075 265.000000,391.074371 265.000000,407.766418
	C259.606445,407.766418 254.535065,407.766418 249.000000,407.766418
	C249.000000,392.063629 248.752518,376.448639 249.101059,360.846924
	C249.284195,352.648193 247.329300,350.445312 239.186676,350.932495
	C233.379425,351.279968 227.534637,351.000000 221.353409,351.000000
	C221.353409,345.859283 221.353409,340.781158 221.353409,335.281036
	C222.313828,335.203308 223.569839,335.014923 224.826111,335.013214
	C239.823029,334.992737 254.819992,335.010956 269.816925,334.994751
	C276.039154,334.988037 277.981476,333.031738 277.995514,326.792603
	C278.013885,318.627625 278.011780,310.462555 277.996246,302.297577
	C277.983917,295.836823 275.367310,293.122864 268.822357,293.021820
	C262.363098,292.922058 255.901138,293.000031 249.000000,293.000031
	C249.000000,285.714478 249.020752,278.766388 248.992813,271.818481
	C248.973740,267.073822 246.919464,265.020630 242.163239,265.007416
	C232.998505,264.981934 223.833527,264.972260 214.668900,265.010773
	C209.488831,265.032562 208.040741,266.486572 208.010208,271.661407
	C207.969131,278.623016 208.000015,285.585052 208.000015,292.770996
	C173.931503,292.770996 140.197876,292.770996 106.231918,292.770996
	C106.231918,268.936005 106.231918,245.200775 106.231918,221.232468
	C111.395866,221.232468 116.467224,221.232468 122.000000,221.232468
	C122.000000,237.272217 121.999817,253.215225 122.000084,269.158234
	C122.000206,276.472870 123.533760,277.994751 130.930695,277.998932
	C139.095703,278.003571 147.260941,278.036743 155.425644,277.987366
	C161.078995,277.953186 162.993851,275.959045 162.998596,270.301331
	C163.004425,263.342682 163.000000,256.384064 163.000000,249.000000
	C168.968414,249.000000 174.585907,249.000000 180.203415,249.000000
	C200.699249,249.000000 221.195068,249.005508 241.690903,248.996338
	C247.196289,248.993881 248.986435,247.185928 248.996994,241.654099
	C249.009705,234.996368 249.000000,228.338593 249.000000,221.340607
	C254.169510,221.340607 259.245575,221.340607 264.779144,221.340607
	C264.843536,222.513290 264.988190,223.937622 264.989777,225.362106
	C265.006409,240.192398 264.988281,255.022736 265.005615,269.853027
	C265.012878,276.052277 266.976685,277.982422 273.243500,277.995758
	C281.408478,278.013092 289.573547,278.013092 297.738525,277.995850
	C304.149597,277.982330 305.996490,276.177155 305.999298,269.988708
	C306.002350,263.179962 306.000000,256.371185 306.000000,249.000000
	C313.315521,249.000000 320.415375,249.007858 327.515228,248.997559
	C333.364532,248.989090 334.992615,247.316864 334.998505,241.329880
	C335.005035,234.701874 335.000000,228.073883 335.000000,221.225861
	C359.409454,221.225861 383.477783,221.225861 408.000000,221.225861
	C408.000000,227.944107 407.972321,234.558289 408.008209,241.172134
	C408.040527,247.127014 409.965271,248.996017 415.945099,248.999161
	C422.760071,249.002731 429.575073,249.000000 436.694519,249.000000
	C436.694519,254.246033 436.694519,259.317657 436.694519,265.000000
	C429.900391,265.000000 422.971283,264.997833 416.042145,265.000641
	C409.824585,265.003113 408.021667,266.836182 408.003906,273.230621
	C407.985992,279.686615 408.000000,286.142670 408.000000,292.795837
	C402.544952,292.795837 397.473907,292.795837 392.000000,292.795837
	C392.000000,276.496002 392.000854,260.378998 391.999542,244.261993
	C391.999023,237.842316 390.264313,236.027695 383.989197,236.006821
	C375.657654,235.979126 367.325867,235.979218 358.994324,236.006912
	C352.900818,236.027161 351.005493,237.895462 351.001160,243.778580
	C350.996124,250.609558 351.000000,257.440552 351.000000,265.000000
	C343.711151,265.000000 336.464355,264.989380 329.217590,265.003662
	C324.216095,265.013519 322.041687,267.018250 322.024872,272.055695
	C321.962524,290.718353 321.989594,309.381348 322.007507,328.044220
	C322.011902,332.612335 324.374054,334.922760 329.391571,335.000000
z"/>
    <path fill="#000000" opacity="1.000000" stroke="none"
          d="
M122.000000,179.000000
	C106.857323,179.000000 92.214645,179.000000 77.286484,179.000000
	C77.286484,145.045547 77.286484,111.309647 77.286484,77.286484
	C110.954437,77.286484 144.690338,77.286484 178.713501,77.286484
	C178.713501,110.954414 178.713501,144.690308 178.713501,179.000000
	C160.023560,179.000000 141.261780,179.000000 122.000000,179.000000
M163.000000,120.500008
	C162.999985,113.509476 162.968353,106.518745 163.011353,99.528473
	C163.039032,95.028900 160.860977,92.973221 156.385727,92.983040
	C137.910828,93.023552 119.435799,92.986252 100.960854,93.007927
	C95.005241,93.014915 93.016144,94.989319 93.008560,100.914253
	C92.985130,119.222763 92.992722,137.531311 93.004616,155.839844
	C93.008011,161.078400 94.860825,162.988968 99.981140,162.993484
	C118.622536,163.009979 137.263947,163.008347 155.905365,162.994675
	C161.163239,162.990814 162.985703,161.179260 162.994202,155.953308
	C163.012894,144.468903 163.000000,132.984436 163.000000,120.500008
z"/>
    <path fill="#000000" opacity="1.000000" stroke="none"
          d="
M437.000000,146.000000
	C437.000000,157.143173 437.000000,167.786346 437.000000,178.714050
	C403.044464,178.714050 369.308594,178.714050 335.285950,178.714050
	C335.285950,145.044495 335.285950,111.308586 335.285950,77.285965
	C368.955505,77.285965 402.691406,77.285965 437.000000,77.285965
	C437.000000,99.977875 437.000000,122.738937 437.000000,146.000000
M388.500000,93.000000
	C378.180664,93.000008 367.861206,93.026604 357.542023,92.987679
	C353.049896,92.970734 350.975220,95.123581 350.984070,99.600716
	C351.021637,118.574936 351.015900,137.549316 350.988373,156.523560
	C350.981812,161.056961 353.205841,163.030777 357.666290,163.019806
	C376.640472,162.973160 395.614838,162.984818 414.589081,163.011642
	C418.828888,163.017639 421.004059,161.063263 421.002625,156.767563
	C420.996429,137.959702 421.027649,119.151779 420.982025,100.344040
	C420.969360,95.112610 418.806702,93.046104 413.467438,93.012917
	C405.478577,92.963272 397.489166,93.000000 388.500000,93.000000
z"/>
    <path fill="#000000" opacity="1.000000" stroke="none"
          d="
M157.999847,335.000000
	C165.143387,335.000000 171.786972,335.000000 178.714508,335.000000
	C178.714508,368.956451 178.714508,402.692352 178.714508,436.714508
	C145.043533,436.714508 111.307640,436.714508 77.285484,436.714508
	C77.285484,403.043518 77.285484,369.307617 77.285484,335.000000
	C103.978966,335.000000 130.739426,335.000000 157.999847,335.000000
M93.000000,388.500000
	C93.000008,396.822052 92.963890,405.144318 93.013016,413.466064
	C93.044533,418.805969 95.112160,420.969330 100.342659,420.982056
	C119.150398,421.027710 137.958313,420.996216 156.766174,421.002869
	C161.062347,421.004395 163.017639,418.831177 163.011642,414.590485
	C162.984833,395.616241 162.973099,376.641846 163.019867,357.667664
	C163.030869,353.207733 161.058929,350.981903 156.524948,350.988434
	C137.550674,351.015839 118.576324,351.021790 99.602104,350.983978
	C95.125183,350.975067 92.970062,353.047821 92.987755,357.540649
	C93.027069,367.526978 93.000008,377.513519 93.000000,388.500000
z"/>
    <path fill="#000000" opacity="1.000000" stroke="none"
          d="
M406.000000,437.000000
	C372.549377,437.000000 339.598755,437.000000 306.324158,437.000000
	C306.324158,431.796478 306.324158,426.726135 306.324158,421.000000
	C307.882904,421.000000 309.635864,421.000000 311.388824,421.000000
	C345.017487,421.000000 378.646118,421.002197 412.274780,420.998169
	C419.190521,420.997345 420.994995,419.207916 420.997864,412.348846
	C421.004517,396.398804 421.000000,380.448792 421.000000,364.250153
	C426.355011,364.250153 431.423706,364.250153 436.747986,364.250153
	C436.747986,388.339325 436.747986,412.392426 436.747986,437.000000
	C426.680084,437.000000 416.590027,437.000000 406.000000,437.000000
z"/>
    <path fill="#000000" opacity="1.000000" stroke="none"
          d="
M255.965164,106.000000
	C259.105560,106.000000 261.752106,106.000000 264.698608,106.000000
	C264.698608,111.252235 264.698608,116.321701 264.698608,122.000000
	C257.735901,122.000000 250.644363,121.993790 243.552841,122.001976
	C238.009796,122.008377 236.022781,123.987015 236.010971,129.712341
	C235.978653,145.366348 235.998962,161.020462 235.998444,176.674530
	C235.998428,177.302719 235.998444,177.930908 235.998444,178.776794
	C230.920502,178.776794 226.184799,178.776794 221.223419,178.776794
	C221.223419,144.935684 221.223419,111.216049 221.223419,77.247986
	C226.027374,77.247986 230.763855,77.247986 236.000000,77.247986
	C236.000000,84.222420 235.975510,91.160385 236.007492,98.098083
	C236.034790,104.018661 238.008270,105.957016 243.980652,105.995392
	C247.810715,106.020004 251.641068,106.000000 255.965164,106.000000
z"/>
    <path fill="#000000" opacity="1.000000" stroke="none"
          d="
M285.016327,179.000000
	C282.552277,179.000000 280.571838,179.000000 278.296448,179.000000
	C278.296448,173.736496 278.296448,168.664047 278.296448,163.293610
	C282.935760,163.293610 287.674896,163.293610 292.709442,163.293610
	C292.709442,168.274979 292.709442,173.347397 292.709442,179.000000
	C290.363312,179.000000 287.931610,179.000000 285.016327,179.000000
z"/>
    <path fill="#FFFFFF" opacity="1.000000" stroke="none"
          d="
M163.000000,121.000000
	C163.000000,132.984436 163.012894,144.468903 162.994202,155.953308
	C162.985703,161.179260 161.163239,162.990814 155.905365,162.994675
	C137.263947,163.008347 118.622536,163.009979 99.981140,162.993484
	C94.860825,162.988968 93.008011,161.078400 93.004616,155.839844
	C92.992722,137.531311 92.985130,119.222763 93.008560,100.914253
	C93.016144,94.989319 95.005241,93.014915 100.960854,93.007927
	C119.435799,92.986252 137.910828,93.023552 156.385727,92.983040
	C160.860977,92.973221 163.039032,95.028900 163.011353,99.528473
	C162.968353,106.518745 162.999985,113.509476 163.000000,121.000000
M112.576752,150.000000
	C124.999557,150.000000 137.422363,150.000000 149.683899,150.000000
	C149.683899,134.964905 149.683899,120.559692 149.683899,106.318138
	C134.960770,106.318138 120.555504,106.318138 106.320694,106.318138
	C106.320694,121.042732 106.320694,135.447449 106.320694,150.000000
	C108.293716,150.000000 109.946732,150.000000 112.576752,150.000000
z"/>
    <path fill="#FFFFFF" opacity="1.000000" stroke="none"
          d="
M389.000000,93.000000
	C397.489166,93.000000 405.478577,92.963272 413.467438,93.012917
	C418.806702,93.046104 420.969360,95.112610 420.982025,100.344040
	C421.027649,119.151779 420.996429,137.959702 421.002625,156.767563
	C421.004059,161.063263 418.828888,163.017639 414.589081,163.011642
	C395.614838,162.984818 376.640472,162.973160 357.666290,163.019806
	C353.205841,163.030777 350.981812,161.056961 350.988373,156.523560
	C351.015900,137.549316 351.021637,118.574936 350.984070,99.600716
	C350.975220,95.123581 353.049896,92.970734 357.542023,92.987679
	C367.861206,93.026604 378.180664,93.000008 389.000000,93.000000
M408.000000,140.466354
	C408.000000,129.039917 408.000000,117.613480 408.000000,106.298988
	C392.998077,106.298988 378.594025,106.298988 364.299896,106.298988
	C364.299896,121.003754 364.299896,135.407837 364.299896,149.699142
	C379.005585,149.699142 393.409576,149.699142 408.000000,149.699142
	C408.000000,146.751801 408.000000,144.103867 408.000000,140.466354
z"/>
    <path fill="#FFFFFF" opacity="1.000000" stroke="none"
          d="
M93.000000,388.000000
	C93.000008,377.513519 93.027069,367.526978 92.987755,357.540649
	C92.970062,353.047821 95.125183,350.975067 99.602104,350.983978
	C118.576324,351.021790 137.550674,351.015839 156.524948,350.988434
	C161.058929,350.981903 163.030869,353.207733 163.019867,357.667664
	C162.973099,376.641846 162.984833,395.616241 163.011642,414.590485
	C163.017639,418.831177 161.062347,421.004395 156.766174,421.002869
	C137.958313,420.996216 119.150398,421.027710 100.342659,420.982056
	C95.112160,420.969330 93.044533,418.805969 93.013016,413.466064
	C92.963890,405.144318 93.000008,396.822052 93.000000,388.000000
M107.709488,407.996063
	C121.787079,407.996063 135.864670,407.996063 149.635223,407.996063
	C149.635223,392.867950 149.635223,378.460388 149.635223,364.368652
	C134.862915,364.368652 120.456390,364.368652 106.000008,364.368652
	C106.000008,377.902191 105.980194,391.067261 106.032410,404.232025
	C106.037331,405.470093 106.495964,406.706421 107.709488,407.996063
z"/>
    <path fill="#000000" opacity="1.000000" stroke="none"
          d="
M112.088249,150.000000
	C109.946732,150.000000 108.293716,150.000000 106.320694,150.000000
	C106.320694,135.447449 106.320694,121.042732 106.320694,106.318138
	C120.555504,106.318138 134.960770,106.318138 149.683899,106.318138
	C149.683899,120.559692 149.683899,134.964905 149.683899,150.000000
	C137.422363,150.000000 124.999557,150.000000 112.088249,150.000000
z"/>
    <path fill="#000000" opacity="1.000000" stroke="none"
          d="
M408.000000,140.961151
	C408.000000,144.103867 408.000000,146.751801 408.000000,149.699142
	C393.409576,149.699142 379.005585,149.699142 364.299896,149.699142
	C364.299896,135.407837 364.299896,121.003754 364.299896,106.298988
	C378.594025,106.298988 392.998077,106.298988 408.000000,106.298988
	C408.000000,117.613480 408.000000,129.039917 408.000000,140.961151
z"/>
    <path fill="#000000" opacity="1.000000" stroke="none"
          d="
M107.226715,407.969788
	C106.495964,406.706421 106.037331,405.470093 106.032410,404.232025
	C105.980194,391.067261 106.000008,377.902191 106.000008,364.368652
	C120.456390,364.368652 134.862915,364.368652 149.635223,364.368652
	C149.635223,378.460388 149.635223,392.867950 149.635223,407.996063
	C135.864670,407.996063 121.787079,407.996063 107.226715,407.969788
z"/>
</svg>