<svg version="1.1" id="Layer_1" xmlns="http://www.w3.org/2000/svg" xmlns:xlink="http://www.w3.org/1999/xlink" x="0px" y="0px"
     width="100%" viewBox="0 0 512 512" enable-background="new 0 0 512 512" xml:space="preserve">
<path fill="#000000" opacity="1.000000" stroke="none"
      d="
M513.000000,85.000000
	C513.000000,227.623947 513.000000,370.247894 513.000000,512.935913
	C342.427216,512.935913 171.854370,512.935913 1.000000,512.935913
	C1.000000,350.309357 1.000000,187.618561 1.369041,24.465389
	C7.082574,31.174084 14.629178,31.201008 22.633894,31.103189
	C46.269634,30.814354 69.911171,31.000000 93.406197,31.000000
	C111.453003,112.377197 129.432510,193.450943 147.376038,274.362396
	C137.142258,279.318542 130.036163,286.107483 125.361687,295.177917
	C117.753700,309.940552 118.985725,331.680573 131.060760,345.393005
	C139.750916,355.261566 150.551773,361.402039 164.301117,361.033203
	C171.357117,360.843903 178.422348,361.000000 186.685181,361.000000
	C162.927811,368.224701 148.235596,385.449860 151.000443,413.904999
	C152.646225,430.843018 172.518570,449.792999 188.885330,451.100891
	C219.975296,453.585358 236.456375,435.520294 240.576813,415.064850
	C242.868561,403.687744 241.390198,391.951050 234.240402,381.294495
	C227.268555,370.903137 217.820740,364.983154 205.925217,361.242950
	C270.129395,361.242950 333.780518,361.242950 398.278168,361.242950
	C377.363861,367.239471 360.246552,383.359100 362.942841,413.538513
	C364.408142,429.939545 383.218750,449.314056 400.022766,450.989685
	C428.370728,453.816498 447.107269,439.288025 452.467133,415.410522
	C455.054047,403.886047 453.425110,391.945801 446.191101,381.190460
	C439.280029,370.915253 429.861115,364.977631 417.114441,361.000000
	C423.598206,361.000000 428.594604,361.056244 433.588959,360.980682
	C437.042542,360.928436 440.727356,361.418579 443.897980,360.394409
	C451.066650,358.078918 454.429352,350.467621 452.992737,341.510925
	C452.045959,335.608185 445.742493,331.000336 438.608093,331.000305
	C351.792969,330.999847 264.977875,331.016205 178.162796,330.957306
	C173.260193,330.953979 168.334000,330.535461 163.460724,329.957001
	C153.899673,328.822174 148.628510,316.751709 153.821289,308.646454
	C157.966309,302.176575 164.317551,301.040161 171.069214,301.036072
	C260.550415,300.981995 350.031799,300.938019 439.512512,301.151611
	C444.969757,301.164642 451.499176,295.874634 452.999573,290.581390
	C458.642517,270.673645 464.352417,250.784836 469.974152,230.871124
	C477.689819,203.539978 485.293396,176.177109 493.049683,148.857544
	C498.439178,129.874344 503.955200,110.926453 509.552338,92.003502
	C510.279724,89.544235 511.830597,87.328537 513.000000,85.000000
z"/>
    <path fill="#FFFFFF" opacity="1.000000" stroke="none"
          d="
M513.000000,84.532394
	C511.830597,87.328537 510.279724,89.544235 509.552338,92.003502
	C503.955200,110.926453 498.439178,129.874344 493.049683,148.857544
	C485.293396,176.177109 477.689819,203.539978 469.974152,230.871124
	C464.352417,250.784836 458.642517,270.673645 452.999573,290.581390
	C451.499176,295.874634 444.969757,301.164642 439.512512,301.151611
	C350.031799,300.938019 260.550415,300.981995 171.069214,301.036072
	C164.317551,301.040161 157.966309,302.176575 153.821289,308.646454
	C148.628510,316.751709 153.899673,328.822174 163.460724,329.957001
	C168.334000,330.535461 173.260193,330.953979 178.162796,330.957306
	C264.977875,331.016205 351.792969,330.999847 438.608093,331.000305
	C445.742493,331.000336 452.045959,335.608185 452.992737,341.510925
	C454.429352,350.467621 451.066650,358.078918 443.897980,360.394409
	C440.727356,361.418579 437.042542,360.928436 433.588959,360.980682
	C428.594604,361.056244 423.598206,361.000000 417.114441,361.000000
	C429.861115,364.977631 439.280029,370.915253 446.191101,381.190460
	C453.425110,391.945801 455.054047,403.886047 452.467133,415.410522
	C447.107269,439.288025 428.370728,453.816498 400.022766,450.989685
	C383.218750,449.314056 364.408142,429.939545 362.942841,413.538513
	C360.246552,383.359100 377.363861,367.239471 398.278168,361.242950
	C333.780518,361.242950 270.129395,361.242950 205.925217,361.242950
	C217.820740,364.983154 227.268555,370.903137 234.240402,381.294495
	C241.390198,391.951050 242.868561,403.687744 240.576813,415.064850
	C236.456375,435.520294 219.975296,453.585358 188.885330,451.100891
	C172.518570,449.792999 152.646225,430.843018 151.000443,413.904999
	C148.235596,385.449860 162.927811,368.224701 186.685181,361.000000
	C178.422348,361.000000 171.357117,360.843903 164.301117,361.033203
	C150.551773,361.402039 139.750916,355.261566 131.060760,345.393005
	C118.985725,331.680573 117.753700,309.940552 125.361687,295.177917
	C130.036163,286.107483 137.142258,279.318542 147.376038,274.362396
	C129.432510,193.450943 111.453003,112.377197 93.406197,31.000000
	C69.911171,31.000000 46.269634,30.814354 22.633894,31.103189
	C14.629178,31.201008 7.082574,31.174084 1.369041,24.001503
	C1.000000,18.977907 1.000000,13.955815 1.368242,8.465370
	C3.824323,5.664678 5.912162,3.332339 8.000000,1.000000
	C43.020893,1.000000 78.041786,1.000000 113.243546,1.293037
	C115.945625,4.822344 119.773994,7.706358 120.757774,11.356948
	C124.647743,25.791786 128.183029,40.375122 130.699524,55.099983
	C131.647614,60.647671 133.747772,61.068920 138.217422,61.065849
	C258.489960,60.983223 378.762604,60.983158 499.035034,61.107910
	C501.734161,61.110710 504.569977,62.439457 507.087677,63.670082
	C509.247833,64.725945 511.043274,66.527962 513.000000,68.000000
	C513.000000,73.354927 513.000000,78.709862 513.000000,84.532394
M437.500000,91.000000
	C338.067444,91.000000 238.634857,91.000000 139.021133,91.000000
	C139.021133,92.208046 138.865677,93.055656 139.043991,93.826019
	C142.999283,110.914124 147.155777,127.957436 150.935532,145.083969
	C155.796478,167.109604 160.294540,189.215057 165.073654,211.259079
	C168.962357,229.195953 173.084549,247.082153 176.989807,265.015533
	C177.938766,269.373169 179.688873,271.170776 184.759186,271.156311
	C263.228180,270.932526 341.697968,271.000000 420.167603,270.999969
	C421.333801,270.999969 422.646362,271.338684 423.629608,270.914398
	C424.890778,270.370209 426.561615,269.413422 426.896881,268.288849
	C432.349060,249.998978 437.674622,231.670639 442.915527,213.318634
	C453.530334,176.148926 464.087097,138.962601 474.634186,101.773621
	C475.608490,98.338196 476.341980,94.834473 477.275513,91.000000
	C463.796570,91.000000 451.148285,91.000000 437.500000,91.000000
M204.545624,417.046082
	C211.126541,412.204132 212.324707,403.491791 206.905228,396.708099
	C202.956619,391.765564 194.315750,389.257233 186.859680,395.019623
	C182.076721,398.716064 179.414978,407.737610 184.907196,415.014404
	C188.790848,420.159943 199.588272,422.218292 204.545624,417.046082
M411.014618,392.000763
	C398.746552,391.997864 393.841156,396.657562 393.939423,407.747284
	C393.982361,412.591553 398.577972,417.971466 403.602600,419.804504
	C408.588867,421.623566 416.039154,418.949402 419.022003,415.097443
	C424.926178,407.472992 422.755676,396.092529 411.014618,392.000763
z"/>
    <path fill="#000000" opacity="1.000000" stroke="none"
          d="
M513.000000,67.531342
	C511.043274,66.527962 509.247833,64.725945 507.087677,63.670082
	C504.569977,62.439457 501.734161,61.110710 499.035034,61.107910
	C378.762604,60.983158 258.489960,60.983223 138.217422,61.065849
	C133.747772,61.068920 131.647614,60.647671 130.699524,55.099983
	C128.183029,40.375122 124.647743,25.791786 120.757774,11.356948
	C119.773994,7.706358 115.945625,4.822344 113.712204,1.293037
	C247.000015,1.000000 380.000031,1.000000 513.000000,1.000000
	C513.000000,23.104027 513.000000,45.083355 513.000000,67.531342
z"/>
    <path fill="#000000" opacity="1.000000" stroke="none"
          d="
M7.502095,1.000000
	C5.912162,3.332339 3.824323,5.664678 1.368242,7.998508
	C1.000000,5.752362 1.000000,3.504725 1.000000,1.000000
	C2.998142,1.000000 5.001166,1.000000 7.502095,1.000000
z"/>
    <path fill="#000000" opacity="1.000000" stroke="none"
          d="
M438.000000,91.000000
	C451.148285,91.000000 463.796570,91.000000 477.275513,91.000000
	C476.341980,94.834473 475.608490,98.338196 474.634186,101.773621
	C464.087097,138.962601 453.530334,176.148926 442.915527,213.318634
	C437.674622,231.670639 432.349060,249.998978 426.896881,268.288849
	C426.561615,269.413422 424.890778,270.370209 423.629608,270.914398
	C422.646362,271.338684 421.333801,270.999969 420.167603,270.999969
	C341.697968,271.000000 263.228180,270.932526 184.759186,271.156311
	C179.688873,271.170776 177.938766,269.373169 176.989807,265.015533
	C173.084549,247.082153 168.962357,229.195953 165.073654,211.259079
	C160.294540,189.215057 155.796478,167.109604 150.935532,145.083969
	C147.155777,127.957436 142.999283,110.914124 139.043991,93.826019
	C138.865677,93.055656 139.021133,92.208046 139.021133,91.000000
	C238.634857,91.000000 338.067444,91.000000 438.000000,91.000000
z"/>
    <path fill="#000000" opacity="1.000000" stroke="none"
          d="
M204.251587,417.308472
	C199.588272,422.218292 188.790848,420.159943 184.907196,415.014404
	C179.414978,407.737610 182.076721,398.716064 186.859680,395.019623
	C194.315750,389.257233 202.956619,391.765564 206.905228,396.708099
	C212.324707,403.491791 211.126541,412.204132 204.251587,417.308472
z"/>
    <path fill="#000000" opacity="1.000000" stroke="none"
          d="
M411.440674,392.006348
	C422.755676,396.092529 424.926178,407.472992 419.022003,415.097443
	C416.039154,418.949402 408.588867,421.623566 403.602600,419.804504
	C398.577972,417.971466 393.982361,412.591553 393.939423,407.747284
	C393.841156,396.657562 398.746552,391.997864 411.440674,392.006348
z"/>
</svg>